<?xml version="1.0" encoding="utf-8"?>
<!-- Generator: Adobe Illustrator 21.1.0, SVG Export Plug-In . SVG Version: 6.00 Build 0)  -->
<svg version="1.1" id="Слой_1" xmlns="http://www.w3.org/2000/svg" xmlns:xlink="http://www.w3.org/1999/xlink" x="0px" y="0px"
	 viewBox="0 0 1000 1000" style="enable-background:new 0 0 1000 1000;" xml:space="preserve">
<style type="text/css">
	.st0{fill:#F8F8F8;}
	.st1{opacity:0.8;clip-path:url(#SVGID_2_);fill:#92D5E8;}
	.st2{clip-path:url(#SVGID_2_);}
	.st3{clip-path:url(#SVGID_2_);fill:#FFFFFF;}
	.st4{fill:#7D8CDB;}
	.st5{opacity:0.7;fill:#68C8BF;}
	.st6{fill:none;stroke:#DCFAFF;stroke-miterlimit:10;}
	.st7{fill:#DCFAFF;}
	.st8{opacity:0.5;clip-path:url(#SVGID_2_);fill:#68C8BF;}
	.st9{opacity:0.5;clip-path:url(#SVGID_2_);fill:#5590E8;}
	.st10{fill:none;stroke:#7D8CDB;stroke-miterlimit:10;}
	.st11{opacity:0.7;}
	.st12{fill:#B7DDE8;}
	.st13{fill:none;stroke:#7D8CDB;stroke-width:6;stroke-miterlimit:10;}
	.st14{clip-path:url(#SVGID_2_);fill:none;}
	.st15{clip-path:url(#SVGID_2_);fill:#5590E8;}
	.st16{fill:#5590E8;}
	
		.st17{clip-path:url(#SVGID_2_);fill:none;stroke:#7D8CDB;stroke-width:5;stroke-linecap:round;stroke-linejoin:round;stroke-miterlimit:10;}
	.st18{fill:#382275;}
	.st19{fill:#8585DD;}
	.st20{fill:#6F6FCE;}
	.st21{fill:#FCF9F0;}
	.st22{fill:#FFFFFF;}
	.st23{fill:#5959B5;}
	.st24{fill:#F6BD60;}
	.st25{fill:none;stroke:#FCF9F0;stroke-width:1.25;stroke-miterlimit:10;}
</style>
<circle class="st0" cx="500" cy="500" r="499.5"/>
<g id="Слой_2">
</g>
<g id="Слой_3">
</g>
<g>
	<defs>
		<circle id="SVGID_1_" cx="500" cy="500" r="499.5"/>
	</defs>
	<clipPath id="SVGID_2_">
		<use xlink:href="#SVGID_1_"  style="overflow:visible;"/>
	</clipPath>
	<rect x="575.9" y="396.5" class="st1" width="103.5" height="413.9"/>
	<rect x="742" y="357.6" class="st1" width="111.2" height="454.1"/>
	<g class="st2">
	</g>
	<path class="st3" d="M775.3,160.6c0,11.4,9.3,20.7,20.7,20.7h155.2c11.4,0,20.7-9.3,20.7-20.7s-9.3-20.7-20.7-20.7
		c-0.8,0-1.7,0-2.5,0.1v-0.1c0-16.3-13.2-29.4-29.4-29.4c-4.9,0-9.6,1.2-13.6,3.4C901,99.4,887.4,89,871.5,89
		c-12.9,0-24.2,6.8-30.5,17c-3-1-6.2-1.6-9.5-1.6c-16.3,0-29.4,13.2-29.4,29.4c0,2.5,0.3,4.9,0.9,7.3c-2.2-0.8-4.6-1.3-7-1.3
		C784.6,139.9,775.3,149.2,775.3,160.6z"/>
	<path class="st3" d="M437.1,152.6c0,7.6,6.1,13.7,13.7,13.7h102.8c7.6,0,13.7-6.1,13.7-13.7c0-7.6-6.1-13.7-13.7-13.7
		c-0.6,0-1.1,0-1.7,0.1v-0.1c0-10.8-8.7-19.5-19.5-19.5c-3.2,0-6.3,0.8-9,2.2c-3.1-9.5-12-16.4-22.6-16.4c-8.5,0-16,4.5-20.2,11.3
		c-2-0.7-4.1-1-6.3-1c-10.8,0-19.5,8.7-19.5,19.5c0,1.7,0.2,3.3,0.6,4.8c-1.5-0.6-3-0.8-4.6-0.8
		C443.3,138.9,437.1,145.1,437.1,152.6z"/>
	<path class="st3" d="M-48.6,247.2c0,13.9,11.3,25.1,25.2,25.1h188.4c13.9,0,25.1-11.3,25.1-25.1c0-13.9-11.3-25.2-25.1-25.2
		c-1,0-2.1,0.1-3.1,0.2V222c0-19.8-16-35.7-35.7-35.7c-6,0-11.6,1.5-16.5,4.1c-5.6-17.5-22-30.1-41.4-30.1c-15.6,0-29.3,8.3-37,20.7
		c-3.6-1.2-7.5-1.9-11.6-1.9c-19.8,0-35.7,16-35.7,35.7c0,3.1,0.4,6,1.1,8.8c-2.7-1-5.6-1.5-8.5-1.5
		C-37.4,222-48.6,233.3-48.6,247.2z"/>
	<g class="st2">
		<path class="st4" d="M251.3,134.6c0,0,1.6,0.1,4.2,0.1c1.3,0.1,2.8,0.4,4.6,0.7c1.7,0.3,3.6,1,5.6,1.6c3.9,1.5,8.2,3.5,11.9,6.3
			c2,1.3,3.6,3,5.4,4.4l1.1,1.2l0,0c0,0,0,0,0,0h0c0-0.1-0.1,0.2,0.1-0.2c0.3-0.5,0.5-0.9,0.8-1.4c0.5-1,1.3-1.9,2-2.8
			c1.5-1.8,3.4-3.5,5.5-4.7c4.1-2.6,9-3.7,13.1-4.1c4.2-0.4,7.8-0.1,10.4,0.1c2.6,0.2,4.1,0.5,4.1,0.5c0.8,0.1,0.6,2.1-0.2,2.1
			c0,0-1.5-0.2-4-0.2c-2.5-0.1-6-0.1-9.8,0.5c-3.8,0.6-8.1,1.8-11.4,4.2c-1.7,1.1-3.2,2.6-4.4,4.1c-0.6,0.8-1.2,1.5-1.6,2.4
			c-0.2,0.4-0.5,0.9-0.7,1.3c-0.1,0.1-0.4,0.8-0.5,1.2l-0.6,1.4c-0.4,0.9-0.8,1.8-1.2,2.7c-0.1,0.4-0.3,0-0.4-0.1l-0.5-0.6l-1-1.2
			c-1-1.2-2.1-2.4-3.2-3.6c-1.6-1.4-3-3-4.8-4.2c-3.3-2.8-7.3-4.8-10.8-6.4c-1.8-0.6-3.5-1.4-5.1-1.8c-1.6-0.4-3-0.8-4.2-1
			c-2.4-0.3-3.9-0.4-3.9-0.4C250.5,136.5,250.5,134.7,251.3,134.6z"/>
	</g>
	<g class="st2">
		<path class="st4" d="M-88.7,378.9c0,0,1.2,0,3.2,0.1c1,0.1,2.2,0.3,3.5,0.5c1.3,0.2,2.8,0.7,4.3,1.2c3,1.2,6.4,2.6,9.3,4.8
			c1.5,1,2.8,2.3,4.2,3.4c0.2,0.2,0.5,0.5,0.4,0.4c0,0,0,0,0,0c0,0-0.1,0.1,0-0.1l0.3-0.6c0.4-0.8,1-1.5,1.6-2.2
			c1.2-1.4,2.7-2.7,4.3-3.7c3.3-2.1,7-2.8,10.2-3.1c3.2-0.3,6,0,8,0.2c2,0.2,3.1,0.4,3.1,0.4c0.7,0.1,0.4,2.1-0.2,2.1
			c0,0-1.2-0.1-3.1-0.1c-1.9,0-4.6,0-7.5,0.5c-2.9,0.5-6.1,1.4-8.6,3.2c-1.3,0.8-2.4,1.9-3.3,3.1c-0.4,0.6-0.9,1.2-1.2,1.8l-0.3,0.5
			l-0.5,1c-0.3,0.7-0.6,1.4-1,2.1c-0.3,0.7-0.6,1.4-1,2.1c-0.1,0.3-0.2,0-0.3-0.1l-0.4-0.4l-0.7-0.8c-1-1.1-2-2.2-3-3.3
			c-1.2-1-2.3-2.3-3.6-3.2c-2.5-2.1-5.5-3.7-8.1-5c-1.4-0.5-2.7-1.1-3.9-1.4c-1.2-0.3-2.3-0.6-3.2-0.8c-1.9-0.2-3-0.4-3-0.4
			C-89.3,380.8-89.3,379-88.7,378.9z"/>
	</g>
	<g class="st2">
		<path class="st4" d="M997.6,272.3c0,0,1.2,0,3.2,0.1c1,0.1,2.2,0.3,3.5,0.5c1.3,0.2,2.8,0.7,4.3,1.2c3,1.2,6.4,2.6,9.3,4.8
			c1.5,1,2.8,2.3,4.2,3.4c0.2,0.2,0.5,0.5,0.4,0.4c0,0,0,0,0,0c0,0-0.1,0.1,0-0.1l0.3-0.6c0.4-0.8,1-1.5,1.6-2.2
			c1.2-1.4,2.7-2.7,4.3-3.7c3.3-2.1,7-2.8,10.2-3.1c3.2-0.3,6,0,8,0.2c2,0.2,3.1,0.4,3.1,0.4c0.7,0.1,0.4,2.1-0.2,2.1
			c0,0-1.2-0.1-3.1-0.1c-1.9,0-4.6,0-7.5,0.5c-2.9,0.5-6.1,1.4-8.6,3.2c-1.3,0.8-2.4,1.9-3.3,3.1c-0.4,0.6-0.9,1.2-1.2,1.8l-0.3,0.5
			l-0.5,1c-0.3,0.7-0.6,1.4-1,2.1c-0.3,0.7-0.6,1.4-1,2.1c-0.1,0.3-0.2,0-0.3-0.1l-0.4-0.4l-0.7-0.8c-1-1.1-2-2.2-3-3.3
			c-1.2-1-2.3-2.3-3.6-3.2c-2.5-2.1-5.5-3.7-8.1-5c-1.4-0.5-2.7-1.1-3.9-1.4c-1.2-0.3-2.3-0.6-3.2-0.8c-1.9-0.2-3-0.4-3-0.4
			C997,274.1,996.9,272.4,997.6,272.3z"/>
	</g>
	<g class="st2">
		<path class="st4" d="M488.8,329c0,0,1.2,0,3.2,0.1c1,0.1,2.2,0.3,3.5,0.5c1.3,0.2,2.8,0.7,4.3,1.2c3,1.2,6.4,2.6,9.3,4.8
			c1.5,1,2.8,2.3,4.2,3.4c0.2,0.2,0.5,0.5,0.4,0.4c0,0,0,0,0,0c0,0-0.1,0.1,0-0.1l0.3-0.6c0.4-0.8,1-1.5,1.6-2.2
			c1.2-1.4,2.7-2.7,4.3-3.7c3.3-2.1,7-2.8,10.2-3.1c3.2-0.3,6,0,8,0.2c2,0.2,3.1,0.4,3.1,0.4c0.7,0.1,0.4,2.1-0.2,2.1
			c0,0-1.2-0.1-3.1-0.1c-1.9,0-4.6,0-7.5,0.5c-2.9,0.5-6.1,1.4-8.6,3.2c-1.3,0.8-2.4,1.9-3.3,3.1c-0.4,0.6-0.9,1.2-1.2,1.8l-0.3,0.5
			l-0.5,1c-0.3,0.7-0.6,1.4-1,2.1c-0.3,0.7-0.6,1.4-1,2.1c-0.1,0.3-0.2,0-0.3-0.1l-0.4-0.4l-0.7-0.8c-1-1.1-2-2.2-3-3.3
			c-1.2-1-2.3-2.3-3.6-3.2c-2.5-2.1-5.5-3.7-8.1-5c-1.4-0.5-2.7-1.1-3.9-1.4c-1.2-0.3-2.3-0.6-3.2-0.8c-1.9-0.2-3-0.4-3-0.4
			C488.1,330.8,488.1,329.1,488.8,329z"/>
	</g>
	<g class="st2">
		<path class="st4" d="M-62.7,135.2c0,0,0.7,0,1.7,0c1.1,0.1,2.6,0.3,4.2,0.8c1.6,0.6,3.4,1.3,5,2.4c0.4,0.3,0.8,0.5,1.2,0.9
			c0.1,0.1,0.5,0.4,0.4,0.4l0,0c0,0,0,0,0,0l0,0l0,0c0.1-0.1-0.2,0.3-0.1,0.1l0.5-0.6c0.4-0.4,0.7-0.8,1.1-1.2l1.3-0.9
			c1.9-1.1,3.9-1.5,5.6-1.6c1.7-0.1,3.2,0.1,4.2,0.2c1,0.2,1.6,0.3,1.6,0.3c0.3,0.1,0.1,2-0.2,2.1c0,0-0.6,0-1.5,0
			c-1,0-2.3,0.1-3.7,0.4c-1.4,0.3-2.9,0.8-4,1.7l-0.8,0.7c-0.2,0.2-0.4,0.5-0.6,0.8l-0.3,0.4c0-0.1-0.3,0.6-0.4,0.6l-0.3,0.6
			c-0.4,0.8-0.7,1.5-1.1,2.2c-0.2,0.3-0.4,0.7-0.5,1.1c-0.2,0-0.5-0.5-0.8-0.8c-0.6-0.6-1.1-1.3-1.7-1.9c-0.5-0.5-0.9-1-1.4-1.5
			c-0.3-0.3-0.6-0.5-0.9-0.8c-1.2-1.1-2.6-1.9-3.9-2.6c-1.3-0.6-2.5-1-3.4-1.2c-0.9-0.2-1.5-0.2-1.5-0.2
			C-63,137.1-63,135.3-62.7,135.2z"/>
	</g>
	<g class="st2">
		<path class="st4" d="M315.4,241.2c0,0,0.6,0,1.7,0c1.1,0.1,2.6,0.3,4.2,0.8c1.6,0.6,3.4,1.3,5,2.4c0.4,0.3,0.8,0.5,1.2,0.9
			c0.1,0.1,0.5,0.4,0.4,0.4l0,0c0,0,0,0,0,0l0,0l0,0c0.1-0.1-0.3,0.3-0.1,0.1l0.5-0.6c0.4-0.4,0.7-0.8,1.1-1.2l1.3-0.9
			c1.9-1.1,3.9-1.5,5.6-1.6c1.7-0.1,3.2,0.1,4.2,0.2c1,0.2,1.6,0.3,1.6,0.3c0.3,0.1,0.1,2-0.2,2.1c0,0-0.6,0-1.5,0
			c-1,0-2.3,0.1-3.7,0.4c-1.4,0.3-2.9,0.8-4,1.7l-0.8,0.7c-0.2,0.2-0.4,0.5-0.6,0.8l-0.3,0.4c0-0.1-0.3,0.6-0.4,0.6l-0.3,0.6
			c-0.4,0.8-0.7,1.5-1.1,2.2c-0.2,0.4-0.4,0.7-0.5,1.1c-0.2,0-0.5-0.5-0.8-0.8c-0.6-0.6-1.1-1.3-1.7-1.9c-0.5-0.5-1-1-1.4-1.5
			c-0.3-0.3-0.6-0.5-0.9-0.8c-1.2-1.1-2.6-1.9-3.9-2.6c-1.3-0.6-2.5-1-3.4-1.2c-0.9-0.2-1.5-0.2-1.5-0.2
			C315.1,243.1,315.1,241.3,315.4,241.2z"/>
	</g>
	<g class="st2">
		<path class="st4" d="M717.6,275.5c0,0,0.6,0,1.7,0c1.1,0.1,2.6,0.3,4.2,0.8c1.6,0.6,3.4,1.3,5,2.4c0.4,0.3,0.8,0.5,1.2,0.9
			c0.1,0.1,0.5,0.4,0.4,0.4l0,0c0,0,0,0,0,0l0,0l0,0c0.1-0.1-0.3,0.3-0.1,0.1l0.5-0.6c0.4-0.4,0.7-0.8,1.1-1.2l1.3-0.9
			c1.9-1.1,3.9-1.5,5.6-1.6c1.7-0.1,3.2,0.1,4.2,0.2c1,0.2,1.6,0.3,1.6,0.3c0.3,0.1,0.1,2-0.2,2.1c0,0-0.6,0-1.6,0
			c-0.9,0-2.3,0.1-3.7,0.4c-1.4,0.3-2.9,0.8-4,1.7l-0.8,0.7c-0.2,0.2-0.4,0.5-0.6,0.8l-0.3,0.4c0-0.1-0.3,0.6-0.4,0.6l-0.3,0.6
			c-0.4,0.8-0.7,1.5-1.1,2.2c-0.2,0.4-0.4,0.7-0.5,1.1c-0.2,0-0.5-0.5-0.8-0.8c-0.6-0.6-1.1-1.3-1.7-1.9c-0.5-0.5-0.9-1-1.4-1.5
			c-0.3-0.3-0.6-0.5-0.9-0.8c-1.2-1.1-2.6-1.9-3.9-2.6c-1.3-0.6-2.5-1-3.4-1.2c-0.9-0.2-1.5-0.2-1.5-0.2
			C717.3,277.4,717.2,275.6,717.6,275.5z"/>
	</g>
	<rect x="302.5" y="359" class="st1" width="52.7" height="454"/>
	<g class="st2">
		<rect x="1070.3" y="335.1" class="st5" width="101" height="472.7"/>
		<line class="st6" x1="1084.5" y1="354.7" x2="1157.1" y2="354.7"/>
		<line class="st6" x1="1084.5" y1="387.7" x2="1157.1" y2="387.7"/>
		<line class="st6" x1="1084.5" y1="420.7" x2="1157.1" y2="420.7"/>
		<line class="st6" x1="1084.5" y1="453.7" x2="1157.1" y2="453.7"/>
		<line class="st6" x1="1084.5" y1="486.7" x2="1157.1" y2="486.7"/>
		<line class="st6" x1="1084.5" y1="519.7" x2="1157.1" y2="519.7"/>
		<line class="st6" x1="1084.5" y1="552.7" x2="1157.1" y2="552.7"/>
		<line class="st6" x1="1084.5" y1="585.6" x2="1157.1" y2="585.6"/>
		<line class="st6" x1="1084.5" y1="618.6" x2="1157.1" y2="618.6"/>
		<line class="st6" x1="1084.5" y1="651.6" x2="1157.1" y2="651.6"/>
		<line class="st6" x1="1084.5" y1="684.6" x2="1157.1" y2="684.6"/>
		<line class="st6" x1="1084.5" y1="717.6" x2="1157.1" y2="717.6"/>
		<line class="st6" x1="1084.5" y1="750.6" x2="1157.1" y2="750.6"/>
	</g>
	<g class="st2">
		<rect x="489" y="472.3" class="st5" width="164.8" height="338.1"/>
		<g>
			<rect x="502.1" y="481.8" class="st7" width="13" height="25.8"/>
			<rect x="527.2" y="481.8" class="st7" width="13" height="25.8"/>
			<rect x="552.3" y="481.8" class="st7" width="13" height="25.8"/>
			<rect x="577.4" y="481.8" class="st7" width="13" height="25.8"/>
			<rect x="602.5" y="481.8" class="st7" width="13" height="25.8"/>
			<rect x="627.7" y="481.8" class="st7" width="13" height="25.8"/>
		</g>
		<g>
			<rect x="502.1" y="518.4" class="st7" width="13" height="25.8"/>
			<rect x="527.2" y="518.4" class="st7" width="13" height="25.8"/>
			<rect x="552.3" y="518.4" class="st7" width="13" height="25.8"/>
			<rect x="577.4" y="518.4" class="st7" width="13" height="25.8"/>
			<rect x="602.5" y="518.4" class="st7" width="13" height="25.8"/>
			<rect x="627.7" y="518.4" class="st7" width="13" height="25.8"/>
		</g>
		<g>
			<rect x="502.1" y="555" class="st7" width="13" height="25.8"/>
			<rect x="527.2" y="555" class="st7" width="13" height="25.8"/>
			<rect x="552.3" y="555" class="st7" width="13" height="25.8"/>
			<rect x="577.4" y="555" class="st7" width="13" height="25.8"/>
			<rect x="602.5" y="555" class="st7" width="13" height="25.8"/>
			<rect x="627.7" y="555" class="st7" width="13" height="25.8"/>
		</g>
		<g>
			<rect x="502.1" y="591.7" class="st7" width="13" height="25.8"/>
			<rect x="527.2" y="591.7" class="st7" width="13" height="25.8"/>
			<rect x="552.3" y="591.7" class="st7" width="13" height="25.8"/>
			<rect x="577.4" y="591.7" class="st7" width="13" height="25.8"/>
			<rect x="602.5" y="591.7" class="st7" width="13" height="25.8"/>
			<rect x="627.7" y="591.7" class="st7" width="13" height="25.8"/>
		</g>
		<g>
			<rect x="502.1" y="628.3" class="st7" width="13" height="25.8"/>
			<rect x="527.2" y="628.3" class="st7" width="13" height="25.8"/>
			<rect x="552.3" y="628.3" class="st7" width="13" height="25.8"/>
			<rect x="577.4" y="628.3" class="st7" width="13" height="25.8"/>
			<rect x="602.5" y="628.3" class="st7" width="13" height="25.8"/>
			<rect x="627.7" y="628.3" class="st7" width="13" height="25.8"/>
		</g>
		<g>
			<rect x="502.1" y="664.9" class="st7" width="13" height="25.8"/>
			<rect x="527.2" y="664.9" class="st7" width="13" height="25.8"/>
			<rect x="552.3" y="664.9" class="st7" width="13" height="25.8"/>
			<rect x="577.4" y="664.9" class="st7" width="13" height="25.8"/>
			<rect x="602.5" y="664.9" class="st7" width="13" height="25.8"/>
			<rect x="627.7" y="664.9" class="st7" width="13" height="25.8"/>
		</g>
		<g>
			<rect x="502.1" y="701.5" class="st7" width="13" height="25.8"/>
			<rect x="527.2" y="701.5" class="st7" width="13" height="25.8"/>
			<rect x="552.3" y="701.5" class="st7" width="13" height="25.8"/>
			<rect x="577.4" y="701.5" class="st7" width="13" height="25.8"/>
			<rect x="602.5" y="701.5" class="st7" width="13" height="25.8"/>
			<rect x="627.7" y="701.5" class="st7" width="13" height="25.8"/>
		</g>
		<g>
			<rect x="502.1" y="738.1" class="st7" width="13" height="25.8"/>
			<rect x="527.2" y="738.1" class="st7" width="13" height="25.8"/>
			<rect x="552.3" y="738.1" class="st7" width="13" height="25.8"/>
			<rect x="577.4" y="738.1" class="st7" width="13" height="25.8"/>
			<rect x="602.5" y="738.1" class="st7" width="13" height="25.8"/>
			<rect x="627.7" y="738.1" class="st7" width="13" height="25.8"/>
		</g>
	</g>
	<rect x="853.2" y="337.8" class="st8" width="101" height="472.7"/>
	<rect x="355.2" y="396.5" class="st8" width="103.5" height="413.9"/>
	<rect x="-87.2" y="453.7" class="st1" width="169.2" height="352.9"/>
	<rect x="680.6" y="564.8" class="st9" width="101" height="244.7"/>
	<g class="st2">
		<path class="st10" d="M259.5,723.4C353.2,673,424.6,470,424.6,470s56,183.7,178.1,212"/>
		<path class="st10" d="M910.8,693.9c-57.6-57.7-94.5-138.5-123.2-213.8c-1.3-3.4-2.5-6.7-3.7-10.1
			c-18.6,59.3-50.5,119.3-94.9,163.1c-23.2,22.9-51.2,41.4-83.2,48.8"/>
		<g>
			<g>
				<rect x="412.7" y="411.3" class="st4" width="23.8" height="396.1"/>
			</g>
			<g class="st11">
				<rect x="422.9" y="420.8" class="st12" width="3.5" height="377.3"/>
			</g>
		</g>
		<g>
			<rect x="770.5" y="411.3" class="st4" width="23.8" height="396.1"/>
			<g class="st11">
				<rect x="780.6" y="420.8" class="st12" width="3.5" height="377.3"/>
			</g>
		</g>
		<path class="st13" d="M293.8,714.1c0,0,395.5-78.2,617.8,9.3"/>
	</g>
	<polygon class="st14" points="927.8,529.1 927.8,529.5 1021.7,529.5 970.2,499.4 	"/>
	<polygon class="st14" points="929.1,467.4 969.8,491.2 1003.8,467.4 	"/>
	<polygon class="st14" points="927.8,543.7 927.8,597.2 971.9,569 	"/>
	<polygon class="st14" points="978.5,643.6 927.8,618.4 927.8,671.7 	"/>
	<polygon class="st14" points="929.3,536.5 978.5,564.8 1022.7,536.5 	"/>
	<polygon class="st14" points="927.8,474.7 927.8,520.6 963.6,495.6 	"/>
	<path class="st14" d="M1051,671.8c-1-20.8-2.5-40.1-4.4-58.1l-53.2,29.6L1051,671.8z"/>
	<polygon class="st14" points="1034.8,612.3 931.1,612.3 985.9,639.5 	"/>
	<polygon class="st14" points="978.7,572.9 928.1,605.3 1035.2,605.3 	"/>
	<polygon class="st14" points="989.1,714.3 938.8,738.8 1040.4,738.8 	"/>
	<path class="st14" d="M1045.5,603.2c-2.9-24.5-6.6-46.4-10.9-66l-49.2,31.5L1045.5,603.2z"/>
	<path class="st14" d="M1050.9,799.2c0.7-17.8,1.2-34.9,1.4-51.3L998.2,774L1050.9,799.2z"/>
	<polygon class="st14" points="939.1,745.8 990.1,770.1 1040.6,745.8 	"/>
	<path class="st14" d="M997.1,710.4l55.3,26.3c0.1-18.5-0.2-36.1-0.8-52.8L997.1,710.4z"/>
	<polygon class="st14" points="927.8,736.4 981.1,710.5 927.8,685.1 	"/>
	<path class="st14" d="M957.9,414.4v46h52.6c-12-27.5-25.3-46.9-38.1-60.5c-19.6-21-37.8-28.1-47.5-30.5c-1.3,8.2-3.1,16.3-5.6,24.3
		h22.8v20.8H957.9z"/>
	<polygon class="st14" points="986,647.3 935.8,675.2 1042.2,675.2 	"/>
	<polygon class="st14" points="937.8,682.2 989.1,706.6 1039.3,682.2 	"/>
	<polygon class="st14" points="927.8,800.2 982.1,774 927.8,748.1 	"/>
	<path class="st14" d="M1032.4,527.7c-5.4-22.7-11.7-42.2-18.4-59L976.4,495L1032.4,527.7z"/>
	<path class="st15" d="M1058.2,677.3l0.4-1.7l-0.5-0.2c-7.2-164.7-45.9-243-80.7-280.2c-21.2-22.6-40.9-30.2-51.6-32.7
		c7.4-58.8-10.1-115.6-10.1-115.6c-21,60.1-9.1,122.7-2.9,146.9h-23.4v20.8h-15.8v49.4h30.1v345.7h24.1v-2.8l0.5,1l61.8-29.9
		l62.5,29.9l5-3C1059.8,757.4,1059.8,715,1058.2,677.3z M1051,671.8l-57.6-28.6l53.2-29.6C1048.6,631.7,1050.1,651,1051,671.8z
		 M927.8,474.7l35.8,20.9l-35.8,25.1V474.7z M928.1,605.3l50.6-32.4l56.5,32.4H928.1z M1034.8,612.3l-49,27.2l-54.8-27.2H1034.8z
		 M978.5,564.8l-49.3-28.3h93.4L978.5,564.8z M927.8,529.5v-0.4l42.4-29.7l51.5,30.1H927.8z M969.8,491.2l-40.8-23.8h74.7
		L969.8,491.2z M927.8,543.7l44.1,25.3l-44.1,28.3V543.7z M978.5,643.6l-50.7,28.1v-53.3L978.5,643.6z M989.1,714.3l51.3,24.5H938.8
		L989.1,714.3z M927.8,736.4v-51.3l53.3,25.4L927.8,736.4z M989.1,706.6l-51.3-24.5h101.6L989.1,706.6z M935.8,675.2l50.2-27.9
		l56.2,27.9H935.8z M1045.5,603.2l-60.2-34.5l49.2-31.5C1038.9,556.8,1042.6,578.7,1045.5,603.2z M1032.4,527.7l-56-32.7l37.5-26.3
		C1020.7,485.5,1027,505,1032.4,527.7z M919.2,393.7c2.4-8,4.3-16.2,5.6-24.3c9.8,2.4,27.9,9.6,47.5,30.5
		c12.8,13.7,26.1,33,38.1,60.5h-52.6v-46h-15.8v-20.8H919.2z M927.8,800.2v-52.1l54.3,25.9L927.8,800.2z M990.1,770.1l-51-24.4
		h101.5L990.1,770.1z M1050.9,799.2L998.2,774l54.1-26.1C1052.1,764.2,1051.7,781.3,1050.9,799.2z M997.1,710.4l54.4-26.5
		c0.6,16.7,0.9,34.3,0.8,52.8L997.1,710.4z"/>
	<g class="st2">
		<path class="st16" d="M82.4,816.3h239.8V344.9c0,0-136.6-21.1-196.9,50.4l-42.9-1.6V816.3z"/>
		<line class="st6" x1="125.3" y1="406.6" x2="125.3" y2="797.1"/>
		<line class="st6" x1="205.2" y1="366.7" x2="309.2" y2="366.7"/>
		<line class="st6" x1="165.9" y1="396.5" x2="309.2" y2="396.5"/>
		<line class="st6" x1="142.8" y1="426.3" x2="309.2" y2="426.3"/>
		<line class="st6" x1="142.8" y1="456.2" x2="309.2" y2="456.2"/>
		<line class="st6" x1="142.8" y1="486" x2="309.2" y2="486"/>
		<line class="st6" x1="142.8" y1="515.8" x2="309.2" y2="515.8"/>
		<line class="st6" x1="142.8" y1="545.7" x2="309.2" y2="545.7"/>
		<line class="st6" x1="142.8" y1="575.5" x2="309.2" y2="575.5"/>
		<line class="st6" x1="142.8" y1="605.4" x2="309.2" y2="605.4"/>
		<line class="st6" x1="142.8" y1="635.2" x2="309.2" y2="635.2"/>
		<line class="st6" x1="142.8" y1="665" x2="309.2" y2="665"/>
		<line class="st6" x1="142.8" y1="694.9" x2="309.2" y2="694.9"/>
		<line class="st6" x1="142.8" y1="724.7" x2="309.2" y2="724.7"/>
		<line class="st6" x1="142.8" y1="754.5" x2="309.2" y2="754.5"/>
		<line class="st6" x1="142.8" y1="784.4" x2="309.2" y2="784.4"/>
	</g>
	<line class="st17" x1="-297.8" y1="810.8" x2="1253.1" y2="810.8"/>
	<g class="st2">
		<rect x="-71" y="571.3" class="st4" width="140.2" height="12"/>
		<rect x="-258.7" y="712.1" class="st4" width="315.2" height="98.3"/>
		<rect x="-60.8" y="536" class="st4" width="117.3" height="191.6"/>
		<polygon class="st4" points="-61,519.2 -61,544.7 -35.8,544.7 -35.8,519.2 -48.4,494.8 		"/>
		<polygon class="st4" points="-258.1,699.1 -258.1,724.5 -232.9,724.5 -232.9,699.1 -245.5,674.6 		"/>
		<polygon class="st4" points="-31.1,518.7 -31.1,544.2 -5.9,544.2 -5.9,518.7 -18.5,494.2 		"/>
		<polygon class="st4" points="31.3,518.7 31.3,544.2 56.5,544.2 56.5,518.7 43.9,494.2 		"/>
		<rect x="43.9" y="674.1" class="st4" width="25.2" height="25.5"/>
		<rect x="-74.3" y="701" class="st4" width="6.5" height="11.4"/>
		<rect x="-225.3" y="701" class="st4" width="6.5" height="11.4"/>
		<rect x="-95.9" y="701" class="st4" width="6.5" height="11.4"/>
		<rect x="-117.4" y="701" class="st4" width="6.5" height="11.4"/>
		<rect x="-139" y="701" class="st4" width="6.5" height="11.4"/>
		<rect x="-160.6" y="701" class="st4" width="6.5" height="11.4"/>
		<rect x="-182.2" y="701" class="st4" width="6.5" height="11.4"/>
		<rect x="-203.7" y="701" class="st4" width="6.5" height="11.4"/>
		<line class="st6" x1="43.9" y1="727.6" x2="-245.5" y2="727.6"/>
		<polyline class="st6" points="43.9,583 -54.9,583 -54.9,583 		"/>
		<rect x="-81.2" y="776.8" class="st7" width="11.2" height="12.7"/>
		<rect x="-118.6" y="776.8" class="st7" width="11.2" height="12.7"/>
		<rect x="-156" y="776.8" class="st7" width="11.2" height="12.7"/>
		<rect x="-193.5" y="776.8" class="st7" width="11.2" height="12.7"/>
		<rect x="-230.9" y="776.8" class="st7" width="11.2" height="12.7"/>
		<rect x="3.6" y="615.1" class="st7" width="12.6" height="35.2"/>
		<rect x="-22.5" y="615.1" class="st7" width="12.6" height="35.2"/>
		<polygon class="st4" points="69.1,674.1 43.9,674.1 56.5,649.6 		"/>
	</g>
	<g class="st2">
		<g>
			<g>
				<polygon class="st18" points="1096,1002 1226,1002 1195,846.4 1161,675.3 1140.3,779.5 				"/>
			</g>
			<g>
				<polygon class="st18" points="-179.7,1002 -19.4,1002 -64.8,773.5 -99.6,599.1 -120.7,705.3 				"/>
			</g>
			<g>
				<g>
					<path class="st19" d="M1009.8,668.3V1002h113.8V668.3c0-35.8-22.2-65.3-50.6-69c-2.1-0.3-4.1-0.4-6.2-0.4
						c-15.7,0-29.9,7.8-40.2,20.4C1016.1,631.7,1009.8,649.1,1009.8,668.3z"/>
				</g>
				<g>
					<path class="st20" d="M1022.3,668.3V1002h101.3V668.3c0-35.8-22.2-65.3-50.6-69c-13.2,1.8-25.1,9.1-34,19.9
						C1028.6,631.7,1022.3,649.1,1022.3,668.3z"/>
				</g>
			</g>
			<g>
				<g>
					<path class="st19" d="M872.7,604.1V1002h162.4V604.1c0-52.2-33-95-74.9-98.9c-2.1-0.2-4.1-0.3-6.2-0.3
						c-22.4,0-42.7,11.1-57.4,29C881.8,552,872.7,576.8,872.7,604.1z"/>
				</g>
				<g>
					<path class="st20" d="M885.2,604.1V1002h149.9V604.1c0-52.2-33-95-74.9-98.9c-19.9,1.8-37.8,12.5-51.2,28.7
						C894.2,552,885.2,576.8,885.2,604.1z"/>
				</g>
			</g>
			<g>
				<g>
					<path class="st19" d="M790.1,723.2V1002h113.8V723.2c0-35.8-22.2-65.3-50.6-69c-2.1-0.3-4.1-0.4-6.2-0.4
						c-15.7,0-29.9,7.8-40.2,20.3C796.5,686.7,790.1,704.1,790.1,723.2z"/>
				</g>
				<g>
					<path class="st20" d="M802.6,723.2V1002h101.3V723.2c0-35.8-22.2-65.3-50.6-69c-13.2,1.8-25.1,9-34,19.9
						C809,686.7,802.6,704.1,802.6,723.2z"/>
				</g>
			</g>
			<g>
				<g>
					<rect x="951.3" y="578.7" class="st21" width="5.2" height="423.3"/>
				</g>
				<g>
					<path class="st21" d="M955.7,839.6l-3.7-4.5l44.2-54c9.3-11.4,14.5-26.6,14.5-42.7v-49.2h5.2v49.2c0,17.8-5.7,34.6-16,47.2
						L955.7,839.6z"/>
				</g>
				<g>
					<path class="st21" d="M952,940.7l-51.9-63.4c-10.3-12.6-16-29.4-16-47.2v-80.4h5.2v80.4c0,16.1,5.1,31.3,14.5,42.7l51.9,63.4
						L952,940.7z"/>
				</g>
				<g>
					<path class="st21" d="M955.7,964.8l-3.7-4.5l28-34.1c9.3-11.4,14.5-26.6,14.5-42.7v-27.7h5.2v27.7c0,17.8-5.7,34.6-16,47.2
						L955.7,964.8z"/>
				</g>
			</g>
			<g>
				<polygon class="st18" points="648.9,1002 846.6,1002 769.9,616.2 747.8,505 711.4,687.6 				"/>
			</g>
			<g>
				<polygon class="st22" points="12.8,744 12.8,1002 262.1,1002 262.1,608 78.9,608 70.8,624.5 				"/>
			</g>
			<g>
				<polygon class="st18" points="12.8,744 12.8,1002 262.1,1002 262.1,624.5 70.8,624.5 				"/>
			</g>
			<g>
				<polygon class="st19" points="196,744 196,1002 328.2,1002 328.2,744 262.1,608 255.3,621.9 				"/>
			</g>
			<g>
				<polygon class="st20" points="196,744 196,1002 314.6,1002 314.6,744 255.3,621.9 				"/>
			</g>
			<g>
				<rect x="12.8" y="744" class="st23" width="183.2" height="258"/>
			</g>
			<g>
				<rect x="248" y="787.2" class="st24" width="29.1" height="35.6"/>
			</g>
			<g>
				<polygon class="st22" points="392.7,638.4 392.7,1002 527.8,1002 527.8,555.9 432.7,555.9 424.7,572.5 				"/>
			</g>
			<g>
				<polygon class="st18" points="392.7,638.4 392.7,1002 527.8,1002 527.8,572.5 424.7,572.5 				"/>
			</g>
			<g>
				<polygon class="st19" points="487.8,638.4 487.8,1002 567.9,1002 567.9,638.4 527.8,555.9 521.1,569.9 				"/>
			</g>
			<g>
				<polygon class="st20" points="487.8,638.4 487.8,1002 554.4,1002 554.4,638.4 521.1,569.9 				"/>
			</g>
			<g>
				<rect x="392.7" y="638.4" class="st23" width="95.1" height="363.6"/>
			</g>
			<g>
				
					<rect x="514.8" y="694.4" transform="matrix(-1 -1.224647e-16 1.224647e-16 -1 1056.6874 1421.8363)" class="st24" width="27.1" height="33"/>
			</g>
			<g>
				<polygon class="st19" points="381.3,1002 487.6,1002 434.6,822.8 427.8,845.6 				"/>
			</g>
			<g>
				<polygon class="st20" points="381.3,1002 474.1,1002 427.8,845.6 				"/>
			</g>
			<g>
				<polygon class="st22" points="275.3,1002 381.6,1002 429.7,839.3 434.6,822.8 328.5,822.8 323.6,839.3 				"/>
			</g>
			<g>
				<polygon class="st18" points="275.3,1002 381.6,1002 429.7,839.3 323.6,839.3 				"/>
			</g>
			<g>
				<path class="st24" d="M423.8,1002h21.5v-29.1c0-7.3-4.8-13.1-10.8-13.1l0,0c-5.9,0-10.8,5.9-10.8,13.1V1002z"/>
			</g>
			<g>
				<path class="st25" d="M715.5,746.5"/>
			</g>
			<g>
				<g>
					<rect x="676.2" y="856.3" class="st23" width="89.6" height="145.7"/>
				</g>
				<g>
					<rect x="554.2" y="856.3" class="st19" width="123" height="145.7"/>
				</g>
				<g>
					<rect x="567.7" y="856.3" class="st20" width="109.5" height="145.7"/>
				</g>
				<g>
					<polygon class="st22" points="538,878.1 781.3,878.1 712.9,763 703,746.5 616.2,746.5 606.4,763 					"/>
				</g>
				<g>
					<polygon class="st18" points="538,878.1 781.3,878.1 712.9,763 606.4,763 					"/>
				</g>
				<g>
					<polygon class="st19" points="538,878.1 694.5,878.1 623,757.9 616.2,746.5 					"/>
				</g>
				<g>
					<polygon class="st23" points="551.5,878.1 694.5,878.1 623,757.9 					"/>
				</g>
				<g>
					<rect x="602.6" y="923.1" class="st24" width="27.5" height="33.5"/>
				</g>
			</g>
			<g>
				<g>
					<path class="st19" d="M-63.4,827.3V1002H58.5V827.3c0-20.6-6.8-39.2-17.9-52.6c-11-13.5-26.3-21.8-43.1-21.8
						c-2.3,0-4.5,0.2-6.8,0.5C-39.7,757.4-63.4,789-63.4,827.3z"/>
				</g>
				<g>
					<path class="st20" d="M-63.4,827.3V1002H45V827.3c0-20.6-6.8-39.2-17.9-52.6C17.6,763,4.9,755.2-9.2,753.3
						C-39.7,757.4-63.4,789-63.4,827.3z"/>
				</g>
			</g>
			<g>
				<g>
					<path class="st19" d="M35.1,879.6V1002h85.4V879.6c0-14.4-4.8-27.4-12.5-36.9c-7.7-9.4-18.4-15.3-30.2-15.3
						c-2.3,0-4.6,0.2-6.8,0.6C50.6,832.1,35.1,853.6,35.1,879.6z"/>
				</g>
				<g>
					<path class="st20" d="M35.1,879.6V1002H107V879.6c0-14.4-4.8-27.4-12.5-36.9c-6.2-7.6-14.4-12.9-23.4-14.6
						C50.6,832.1,35.1,853.6,35.1,879.6z"/>
				</g>
			</g>
			<g>
				<g>
					<rect x="5.3" y="820.2" class="st21" width="5.2" height="181.8"/>
				</g>
				<g>
					<path class="st21" d="M9.8,978.2l-3.7-4.5l25.6-31.2c9.3-11.4,14.5-26.6,14.5-42.7V873h5.2v26.8c0,17.8-5.7,34.6-16,47.2
						L9.8,978.2z"/>
				</g>
				<g>
					<path class="st21" d="M5.9,935.8l-17.4-21.3c-10.3-12.6-16-29.4-16-47.2v-20.5h5.2v20.5c0,16.1,5.1,31.3,14.5,42.7l17.4,21.3
						L5.9,935.8z"/>
				</g>
			</g>
		</g>
	</g>
</g>
</svg>
