<?xml version="1.0" encoding="utf-8"?>
<!-- Generator: Adobe Illustrator 21.1.0, SVG Export Plug-In . SVG Version: 6.00 Build 0)  -->
<svg version="1.1" id="Слой_1" xmlns="http://www.w3.org/2000/svg" xmlns:xlink="http://www.w3.org/1999/xlink" x="0px" y="0px"
	 viewBox="0 0 1000 1000" style="enable-background:new 0 0 1000 1000;" xml:space="preserve">
<style type="text/css">
	.st0{fill:#F8F8F8;}
	.st1{clip-path:url(#SVGID_2_);fill:#F3EEDE;}
	.st2{clip-path:url(#SVGID_2_);fill:#FFFFFF;}
	.st3{clip-path:url(#SVGID_2_);fill:#BCC3C4;}
	.st4{clip-path:url(#SVGID_2_);fill:#D2D9DB;}
	.st5{clip-path:url(#SVGID_2_);}
	.st6{fill:#6B6BC9;}
	.st7{fill:#8A8AE5;}
	.st8{fill:#42429C;}
	.st9{fill:#716EDE;}
	.st10{fill:#434389;}
	.st11{fill:#5553C5;}
	.st12{fill:#5454A3;}
	.st13{fill:#9797EA;}
	.st14{filter:url(#Adobe_OpacityMaskFilter);}
	.st15{filter:url(#Adobe_OpacityMaskFilter_1_);}
	.st16{mask:url(#SVGID_3_);fill:url(#SVGID_4_);}
	.st17{fill:url(#SVGID_5_);}
	.st18{fill:#E8E8E8;}
	.st19{fill:#E0E0E0;}
	.st20{fill:#A6A9AB;}
	.st21{clip-path:url(#SVGID_2_);fill:url(#SVGID_6_);}
	.st22{fill:#A4A4A4;}
	.st23{fill:#949494;}
	.st24{fill:#828282;}
	.st25{fill:#797B7B;}
	.st26{fill:#5E5E5E;}
	.st27{fill:#767676;}
	.st28{filter:url(#Adobe_OpacityMaskFilter_2_);}
	.st29{filter:url(#Adobe_OpacityMaskFilter_3_);}
	.st30{mask:url(#SVGID_7_);fill:url(#SVGID_8_);}
	.st31{fill:url(#SVGID_9_);}
	.st32{fill:#E5E5E5;}
	.st33{fill:#D6D6D6;}
	.st34{clip-path:url(#SVGID_2_);fill:#59595B;}
</style>
<circle class="st0" cx="500" cy="500" r="499.5"/>
<g>
	<defs>
		<circle id="SVGID_1_" cx="500" cy="500" r="499.5"/>
	</defs>
	<clipPath id="SVGID_2_">
		<use xlink:href="#SVGID_1_"  style="overflow:visible;"/>
	</clipPath>
	<path class="st1" d="M-742.4,950.9c0,27.1,379.8,49.1,848.3,49.1v-98.2C-362.6,901.8-742.4,923.8-742.4,950.9z"/>
	<path class="st2" d="M-710.5,936.6c0,26.1,365.5,47.3,816.5,47.3v-94.5C-345,889.3-710.5,910.5-710.5,936.6z"/>
	<path class="st3" d="M954.3,950.9c0,27.1-379.8,49.1-848.3,49.1v-98.2C574.4,901.8,954.3,923.8,954.3,950.9z"/>
	<path class="st4" d="M922.4,936.6c0,26.1-365.5,47.3-816.5,47.3v-94.5C556.8,889.3,922.4,910.5,922.4,936.6z"/>
	<g class="st5">
		<path class="st6" d="M-532,712.7c0.6-5.4-3.2-10.3-6.8-13.6c-3.6-3.3-7.8-7.2-8.2-12.8c-0.4-5.1,2.7-9.4,6.2-11.4
			c3.5-2,7.5-2.4,11.2-3.9c3.7-1.5,7.4-4.5,8.3-9.3c1.1-5.5-1.9-11.5-5.6-15c-3.7-3.5-8.2-5.1-12.4-7.5c-4.2-2.3-8.4-5.8-10.3-11.1
			c-2.8-7.9,0.7-17.2,6.2-21.3c5.5-4.2,12.4-4.3,19-3.8c5.2,0.4,11.5,0.3,13.6-5.6c1.2-3.6,0.2-8.1-1.6-11.6
			c-1.7-3.5-4.1-6.5-5.8-10c-4.3-8.9-3.7-21.1,1.5-28.4c5.6-7.9,16.1-9.2,23.4-2.8c7.3,6.4,10.6,19.7,7.1,29.6
			c-2,5.8-6.1,11.1-5.1,17.6c1,6.8,6.9,10.4,11.9,12.8c5.1,2.4,10.9,5.8,12.1,12.5c1.2,6.8-3.1,12.5-7.3,16.4
			c-4.2,3.9-9.1,8.3-9.4,15.1c-0.4,7.4,4.7,13.6,9.7,17.9c5,4.3,10.4,7.9,15.2,12.6c4.8,4.7,9.2,10.7,11.1,18
			c1.9,7.3,0.8,16-3.8,20.4c-2.9,2.8-6.7,3.6-10.2,4.9c-3.5,1.4-7.1,3.7-8.3,8.2c-0.9,3.2-0.3,6.8-0.4,10.3
			c-0.1,6.8-2.8,13.3-7.1,16.9c-4.9,4.2-9.2,2.5-14.7,2.7c-5.6,0.2-9.9,2-15.6-0.7c-3-1.4-5.8-3.5-8.6-5.6
			c-5.4-4-10.7-8.1-16.1-12.1c-3.9-3-8.5-7.3-8.1-12.9C-540.3,722.3-532.8,719.6-532,712.7z"/>
		<polygon class="st7" points="-521.7,722.3 -520.4,720.9 -498.1,735.9 -503.7,686.6 -500.7,686.2 -497.2,713 -479.3,693.2 
			-477.8,694.4 -496.7,717.3 -481.5,835.8 -486.8,836.5 -497.6,740.3 		"/>
	</g>
	<g class="st5">
		<path class="st8" d="M-463,716.1c-13.4-9.8-24.2-31.4-21.7-53.6c2.2-19.4,13.9-36.1,11.6-55.5c-2-16.4-13.2-26.1-23.5-32
			c-10.3-6-21.9-11.6-27.5-25.9c-6.6-16.6-2-39.3,7.3-52.5c9.3-13.2,22.2-19,34.7-22.9c12.5-3.9,25.5-6.5,37-14.9
			c11.5-8.5,21.6-24.4,22.4-43.7c0.6-13.3-3.3-26.5-2-39.7c1.3-13.9,8.3-25.4,16.6-31.6c8.3-6.2,17.8-7.6,27.1-7.4
			c15.8,0.3,32,5.5,44.6,19.8c12.6,14.3,20.8,39.1,17.4,62.3c-2.7,18.4-12.1,35.8-9,54.1c2.8,15.9,13.9,24.7,24.2,30.1
			c10.3,5.5,21.7,10.7,27.7,24.5c6.7,15.6,3.6,37.5-4.2,51.9c-7.8,14.4-19.3,23-30.6,30.5c-5.7,3.8-11.7,7.7-16,14.7
			s-6.4,18-3.1,26.1c4.5,11.2,15.7,10.8,21.9,19.9c7.9,11.4,4,32.9-4.8,42.6c-8.8,9.6-20.3,10.7-31.2,11.4
			c-21.9,1.5-43.9,3.2-65.9,4.4c-8.2,0.4-16.4-1.6-24.7-2.5c-5-0.6-10.1-1.4-15-3.1C-453.4,721.7-459.3,716.1-463,716.1z"/>
		<polygon class="st6" points="-349.1,655.9 -351.3,654.2 -382.6,677.3 -383.2,612.2 -387.9,612.2 -388.2,647.6 -419.3,624.8 
			-421.5,626.5 -388.3,653.4 -389.5,809.9 -381.4,809.9 -382.5,683.1 		"/>
	</g>
	<g class="st5">
		<path class="st9" d="M-331.7,723.2c1.1-3.3,3.2-6.5,3-10c-0.2-4.3-4-7.7-8-9.4c-4-1.7-8.4-2.2-12.5-3.7
			c-9.5-3.5-16.6-12.7-17.5-22.7c-1-10,4.3-20.4,13-25.6c5.4-3.2,11.8-4.5,17.6-6.9c5.8-2.5,11.5-6.8,12.6-13
			c1.1-6.4-3.1-12.6-8-16.9c-4.9-4.3-10.7-7.6-14.8-12.8c-9.1-11.5-5.1-30.9,7.8-37.9c6.2-3.3,13.5-3.9,20.2-6.2
			c6.7-2.3,13.4-7.2,13.9-14.3c0.5-7.5-6-13.4-10-19.7c-8.1-12.7-5.9-31,5-41.4c10.9-10.4,29.2-11.8,41.5-3.1
			c12.3,8.7,17.2,26.4,11.1,40.2c-2.6,5.9-7,10.9-10.1,16.6c-3.1,5.7-4.9,12.8-2.1,18.6c6.7,14,31,8.6,39.5,21.5
			c4.9,7.4,1.9,17.7-3.5,24.7c-5.4,7-13,12.1-18.8,18.9c-5.8,6.8-9.7,16.5-5.9,24.5c2.7,5.9,8.7,9.3,13.8,13.4
			c5,4.1,9.6,10.3,7.7,16.5c-3.3,11-22.3,9.7-26.3,20.5c-2.4,6.4,2.1,13.2,3,20.1C-254,756.4-343.1,758.3-331.7,723.2z"/>
		<polygon class="st10" points="-271.5,699.8 -273.1,698.5 -298.9,712.3 -295,666.6 -298.6,666.3 -301.2,691.1 -323.7,672.7 
			-325.6,673.7 -301.7,695.1 -313.3,804.7 -307,805.3 -299.3,716.3 		"/>
	</g>
	<g class="st5">
		<path class="st11" d="M-534.8,738c18.3-19,44-32.6,70.3-30.4c21,1.8,40.2,13.5,54.6,28.9c14.4,15.4,24.5,34.4,33.1,53.8
			c10,22.6,18.3,45.9,24.7,69.8c2.6,9.6,6.9,27.6,1,35.6c-5.1,6.9-14.3,8.9-22.7,10.2c-41.7,6.7-86.4,2.4-128.6,0.8
			c-20.9-0.8-43.1-3.2-59.2-16.6C-610.6,849.6-568.4,772.9-534.8,738z"/>
		<g>
			<path class="st8" d="M-377.9,899c-45.8,2.2-92-5.8-134.4-23.3c-11.8-4.9-23.7-10.9-31.1-21.2c-6.1-8.7-8.4-19.6-8.2-30.2
				c0.2-10.6,2.5-21,4.9-31.4c4.2-18.6,8.4-37.1,12.7-55.7c-0.3,0.3-0.5,0.5-0.8,0.8c-33.6,34.9-75.8,111.6-27,152
				c16.1,13.4,38.4,15.8,59.2,16.6c42.2,1.7,86.9,5.9,128.6-0.8c5.2-0.8,10.7-1.9,15.3-4.2c-1.5-0.9-3.1-1.5-4.7-2
				C-368,898.4-373,898.8-377.9,899z"/>
		</g>
	</g>
	<g class="st5">
		<path class="st8" d="M-365.8,794.4c11.8-36,28.8-68.9,51.8-88.8c18.3-15.8,39.7-22.7,61-24.7c19.2-1.8,39.1,0.4,57.1,11.9
			c22.2,14.3,40,42,52.5,73.3s20,66.3,26.5,101.3c1.9,10.2,3.6,21.5,0.6,30.8c-4.6,14.1-17.2,16-27.8,16
			c-45.1,0.2-90.3,0.1-135.4-0.3c-22.3-0.2-44.7-0.5-67-0.8c-11.1-0.2-22.8,1.2-33.9-0.6c-8.4-1.4-9.6-8.5-8.1-20.2
			C-384.5,858.7-375.3,824.9-365.8,794.4z"/>
		<path class="st8" d="M-156.7,911c-2.9-1.8-6.5-2-9.9-2.1c-46.2-2.2-91.2-24-121.7-58.9c-10.1-11.6-18.6-24.7-25.3-38.6
			c-5.9-12.4-10.4-25.4-13.3-38.8c-2.8-12.9-2.3-26-4.5-38.9c-0.5-2.8-1.2-5-2-6.6c-13.5,18.7-24.2,42.2-32.4,67.2
			c-9.5,30.5-18.6,64.3-22.8,97.8c-1.5,11.8-0.3,18.9,8.1,20.2c11.1,1.8,22.8,0.4,33.9,0.6c22.3,0.4,44.7,0.6,67,0.8
			c41.9,0.4,83.7,0.5,125.6,0.3C-154.6,912.9-155.5,911.8-156.7,911z"/>
		<g>
			<path class="st9" d="M-371,898.2c-1.6,0.1-1.5,2.6,0.1,2.5C-369.3,900.6-369.4,898.1-371,898.2z"/>
			<path class="st9" d="M-368.4,884.9c-3.1,0.1-2.9,5,0.2,4.9C-365,889.7-365.2,884.8-368.4,884.9z"/>
			<path class="st9" d="M-362.5,892.2c-2.8,0.1-2.6,4.4,0.2,4.3C-359.5,896.4-359.7,892-362.5,892.2z"/>
			<path class="st9" d="M-350,896.2c-3.6,0.1-3.4,5.7,0.2,5.5C-346.2,901.6-346.4,896.1-350,896.2z"/>
			<path class="st9" d="M-366.9,901.1c-2.3,0.1-2.2,3.7,0.1,3.6C-364.5,904.6-364.6,901-366.9,901.1z"/>
			<path class="st9" d="M-362.4,885.9c2.5-0.1,2.4-4-0.2-3.9C-365,882.1-364.9,886-362.4,885.9z"/>
			<path class="st9" d="M-366.2,868.8c-2.2,0.1-2.1,3.5,0.1,3.4C-363.9,872.2-364,868.8-366.2,868.8z"/>
			<path class="st9" d="M-368.1,862.9c2.4-0.1,2.3-3.8-0.2-3.7C-370.6,859.3-370.5,863-368.1,862.9z"/>
			<path class="st9" d="M-360.1,853.3c2.7-0.1,2.6-4.3-0.2-4.2C-363,849.2-362.8,853.4-360.1,853.3z"/>
			<path class="st9" d="M-353.4,861.2c-2.6,0.1-2.4,4.2,0.2,4C-350.6,865.2-350.8,861.1-353.4,861.2z"/>
			<path class="st9" d="M-356.3,877.2c-3.2,0.1-3,5.1,0.2,5C-352.9,882.1-353.1,877.1-356.3,877.2z"/>
			<path class="st9" d="M-336.1,885c-3,0.1-2.8,4.7,0.2,4.6C-332.9,889.4-333.1,884.9-336.1,885z"/>
			<path class="st9" d="M-339.9,898c-2.7,0.1-2.6,4.4,0.2,4.3C-337,902.2-337.2,897.9-339.9,898z"/>
			<path class="st9" d="M-347.9,879.6c-3.3,0.1-3.1,5.3,0.2,5.1C-344.3,884.6-344.5,879.5-347.9,879.6z"/>
			<path class="st9" d="M-339.4,871.2c-2.4,0.1-2.3,3.9,0.2,3.8C-336.8,874.8-337,871.1-339.4,871.2z"/>
			<path class="st9" d="M-321.7,885.4c-2.6,0.1-2.5,4.2,0.2,4.1C-318.9,889.4-319.1,885.3-321.7,885.4z"/>
			<path class="st9" d="M-321.2,897.9c-2.5,0.1-2.4,4,0.2,3.9C-318.5,901.7-318.7,897.8-321.2,897.9z"/>
			<path class="st9" d="M-331.2,898.1c-2.2,0.1-2.1,3.5,0.1,3.4C-328.8,901.4-329,898-331.2,898.1z"/>
			<path class="st9" d="M-300.7,892.4c-3.4,0.1-3.2,5.4,0.2,5.2C-297.1,897.5-297.3,892.3-300.7,892.4z"/>
			<path class="st9" d="M-282.1,898.4c-2.8,0.1-2.7,4.5,0.2,4.4C-279.1,902.7-279.3,898.3-282.1,898.4z"/>
			<path class="st9" d="M-265.2,902.4c-2,0.1-1.8,3.1,0.1,3C-263.1,905.4-263.2,902.3-265.2,902.4z"/>
			<path class="st9" d="M-311.6,900c-2.9,0.1-2.7,4.7,0.2,4.5C-308.4,904.4-308.6,899.8-311.6,900z"/>
			<path class="st9" d="M-312.1,885.9c-2.6,0.1-2.4,4.2,0.2,4C-309.4,889.8-309.5,885.8-312.1,885.9z"/>
			<path class="st9" d="M-280.4,890.8c1.8-0.1,1.6-2.8-0.1-2.7C-282.3,888.1-282.2,890.9-280.4,890.8z"/>
			<path class="st9" d="M-293.5,902.2c-2.2,0.1-2,3.5,0.1,3.4C-291.2,905.5-291.4,902.1-293.5,902.2z"/>
			<path class="st9" d="M-325,873.3c-2.5,0.1-2.4,4,0.2,3.9C-322.3,877.1-322.5,873.2-325,873.3z"/>
			<path class="st9" d="M-342.7,849.6c-2.7,0.1-2.5,4.3,0.2,4.2C-339.8,853.6-340,849.5-342.7,849.6z"/>
			<path class="st9" d="M-354.9,843c3.1-0.1,2.9-4.9-0.2-4.8C-358.2,838.3-358,843.1-354.9,843z"/>
			<path class="st9" d="M-348.3,820.1c-3,0.1-2.8,4.7,0.2,4.6C-345.1,824.6-345.3,820-348.3,820.1z"/>
			<path class="st9" d="M-356.6,821.4c2.3-0.1,2.2-3.7-0.1-3.6C-359.1,817.8-358.9,821.5-356.6,821.4z"/>
			<path class="st9" d="M-360.4,836.5c2.6-0.1,2.4-4.2-0.2-4C-363.1,832.5-363,836.6-360.4,836.5z"/>
			<path class="st9" d="M-345.7,804.5c1.8-0.1,1.6-2.8-0.1-2.7C-347.6,801.9-347.5,804.6-345.7,804.5z"/>
			<path class="st9" d="M-340.5,796.3c2.3-0.1,2.1-3.6-0.1-3.5C-342.9,792.9-342.7,796.4-340.5,796.3z"/>
			<path class="st9" d="M-336.9,836.2c2.4-0.1,2.3-3.8-0.2-3.7C-339.4,832.5-339.3,836.2-336.9,836.2z"/>
			<path class="st9" d="M-329.9,851.1c3-0.1,2.8-4.7-0.2-4.6C-333,846.6-332.8,851.2-329.9,851.1z"/>
			<path class="st9" d="M-310.1,855.9c-2.6,0.1-2.5,4.2,0.2,4.1C-307.3,859.9-307.5,855.8-310.1,855.9z"/>
			<path class="st9" d="M-308,869.8c-2.1,0.1-2,3.4,0.1,3.3C-305.8,872.9-305.9,869.7-308,869.8z"/>
			<path class="st9" d="M-329.7,864.9c2.9-0.1,2.7-4.6-0.2-4.5C-332.8,860.6-332.6,865-329.7,864.9z"/>
			<path class="st9" d="M-339.5,858.6c-2.2,0.1-2.1,3.5,0.1,3.4C-337.2,861.9-337.3,858.5-339.5,858.6z"/>
			<path class="st9" d="M-346.5,863c-2.5,0.1-2.4,4,0.2,3.9C-343.9,866.8-344,862.9-346.5,863z"/>
			<path class="st9" d="M-348.4,876.2c2.5-0.1,2.4-4.1-0.2-4C-351.1,872.3-350.9,876.3-348.4,876.2z"/>
			<path class="st9" d="M-358.5,873.4c3-0.1,2.8-4.8-0.2-4.6C-361.6,868.8-361.5,873.5-358.5,873.4z"/>
			<path class="st9" d="M-373.4,879.5c-2.2,0.1-2.1,3.5,0.1,3.4C-371,882.8-371.2,879.4-373.4,879.5z"/>
			<path class="st9" d="M-350.1,892.1c2.9-0.1,2.7-4.7-0.2-4.5C-353.3,887.7-353.1,892.2-350.1,892.1z"/>
			<path class="st9" d="M-372.1,890.8c-2.5,0.1-2.4,4,0.2,3.9C-369.5,894.6-369.6,890.7-372.1,890.8z"/>
			<path class="st9" d="M-357.7,901.9c-3,0.1-2.9,4.9,0.2,4.7C-354.5,906.5-354.7,901.8-357.7,901.9z"/>
			<path class="st9" d="M-339,891.8c-3,0.1-2.8,4.8,0.2,4.6C-335.8,896.4-336,891.7-339,891.8z"/>
			<path class="st9" d="M-334.3,879.3c2.7-0.1,2.5-4.2-0.2-4.1C-337.1,875.3-337,879.4-334.3,879.3z"/>
			<path class="st9" d="M-327,892.6c-2.5,0.1-2.3,3.9,0.2,3.8C-324.4,896.3-324.5,892.5-327,892.6z"/>
			<path class="st9" d="M-343.3,844.6c2.2-0.1,2.1-3.5-0.1-3.4C-345.6,841.3-345.5,844.7-343.3,844.6z"/>
			<path class="st9" d="M-352.1,853.8c2.8-0.1,2.6-4.4-0.2-4.3C-355,849.6-354.9,853.9-352.1,853.8z"/>
			<path class="st9" d="M-365.3,842.8c1.3-0.1,1.2-2-0.1-2C-366.6,840.9-366.6,842.8-365.3,842.8z"/>
			<path class="st9" d="M-348.9,833.7c2.7-0.1,2.6-4.3-0.2-4.2C-351.8,829.6-351.6,833.8-348.9,833.7z"/>
			<path class="st9" d="M-321.9,861.6c-2.5,0.1-2.4,4,0.2,3.9C-319.2,865.4-319.4,861.5-321.9,861.6z"/>
			<path class="st9" d="M-315,872.9c-3,0.1-2.9,4.9,0.2,4.7C-311.8,877.5-312,872.8-315,872.9z"/>
			<path class="st9" d="M-293,885.9c3-0.1,2.8-4.8-0.2-4.7C-296.2,881.3-296,886-293,885.9z"/>
			<path class="st9" d="M-311.7,895.2c2.7-0.1,2.6-4.3-0.2-4.2C-314.6,891.1-314.5,895.3-311.7,895.2z"/>
			<path class="st9" d="M-290.9,889.1c-3.5,0.1-3.2,5.5,0.2,5.4C-287.2,894.4-287.4,889-290.9,889.1z"/>
			<path class="st9" d="M-304.6,875.7c-2.4,0.1-2.3,3.9,0.2,3.8C-302,879.4-302.1,875.6-304.6,875.7z"/>
			<path class="st9" d="M-299.6,900.9c-3.2,0.1-3,5,0.2,4.9C-296.2,905.7-296.4,900.8-299.6,900.9z"/>
			<path class="st9" d="M-276.9,902c-3.1,0.1-2.9,4.9,0.2,4.8C-273.7,906.7-273.8,901.9-276.9,902z"/>
			<path class="st9" d="M-273.1,893.5c-3.1,0.1-2.9,4.9,0.2,4.8C-269.9,898.2-270,893.4-273.1,893.5z"/>
		</g>
	</g>
	<g class="st5">
		<path class="st8" d="M-586.5,798.2c20-11.5,43.6-4.9,62.2,12.9c18.5,17.8,32.2,45.6,41.1,75.7c1.4,4.7,2.7,9.6,3,14.7
			c0.3,5.1-0.6,10.5-3,13.9c-2.1,2.9-5.1,4.1-7.9,4.9c-33.2,9.2-65.3,11.6-102.6,10c-11.8-0.5-24.4-4.3-33.1-16.7
			c-5.7-8.2-9.1-20-9-31.7c0.1-18.8,10.5-34.1,18-47.5C-609.4,819.2-599.1,805.4-586.5,798.2z"/>
		<g>
			<path class="st8" d="M-492.4,916.6c-2.7-0.6-5.5-0.2-8.2,0.2c-18.1,2.4-36.8,2.6-54.3-2.7c-17.5-5.3-33.7-16.4-42.3-32.6
				c-4.4-8.4-6.7-17.7-7.5-27.1c-0.7-8.6-0.2-17.2,0.4-25.7c0.3-4.5,0.8-9.8-0.3-14.3c-4.8,6-9.3,12.8-13.3,20
				c-7.5,13.4-17.9,28.7-18,47.5c-0.1,11.7,3.3,23.5,9,31.7c8.7,12.4,21.3,16.2,33.1,16.7c37.3,1.6,69.5-0.8,102.6-10
				c1.1-0.3,2.2-0.7,3.3-1.2C-489.1,917.9-490.7,917-492.4,916.6z"/>
		</g>
	</g>
	<g class="st5">
		<path class="st12" d="M-641.4,826.8c-1.4-4.5,2.2-8.9,5.7-12.1c3.5-3.2,7.5-6.8,7.3-11.5c-0.2-4.3-4.2-7.6-8.3-8.9
			c-4.1-1.3-8.5-1.3-12.7-2.1c-4.2-0.9-8.6-3-10.3-7c-1.9-4.5,0.5-9.8,4.1-13.1c3.6-3.3,8.3-5.1,12.5-7.5c4.3-2.4,8.4-5.7,9.8-10.4
			c2-6.9-3-14.3-9.6-17.2c-6.6-2.9-14.1-2.4-21.2-1.3c-5.6,0.9-12.5,1.5-15.5-3.3c-1.8-2.9-1.2-6.8,0.2-9.9c1.4-3.1,3.6-5.9,5-9
			c3.5-7.9,1.2-18-5.4-23.6c-7.2-6.1-18.8-6.1-25.9,0c-7.1,6.1-8.9,17.6-3.9,25.6c3,4.7,8.1,8.7,7.9,14.2
			c-0.2,5.8-6.1,9.4-11.3,11.9c-5.2,2.5-11.1,6-11.6,11.7c-0.5,5.8,5,10.2,10.1,13c5.1,2.8,10.9,6,12.2,11.7
			c1.4,6.1-3.4,11.9-8.2,16c-4.9,4.1-10.3,7.7-14.9,12.1c-4.6,4.4-8.6,9.9-9.7,16.2c-1.1,6.3,1.2,13.5,6.8,16.7
			c3.5,2.1,7.7,2.3,11.7,3.1c4,0.8,8.2,2.4,10.1,6c1.4,2.6,1.2,5.7,1.7,8.6c1,5.7,4.8,10.8,9.9,13.5c5.9,3,10.4,1.2,16.4,0.7
			c6.1-0.4,11,0.7,16.9-2.2c3.1-1.5,5.8-3.5,8.6-5.5c5.3-3.9,10.6-7.8,15.9-11.7c3.9-2.9,8.3-6.9,7.1-11.6
			C-631,833.9-639.6,832.5-641.4,826.8z"/>
		<polygon class="st7" points="-651.4,835.9 -652.9,834.8 -675.2,849.6 -675.6,807.7 -678.9,807.7 -679.2,830.5 -701.3,815.8 
			-702.9,816.9 -679.2,834.2 -680.2,935.1 -674.4,935.1 -675.2,853.4 		"/>
	</g>
	<g class="st5">
		<path class="st9" d="M-651,855.8c0.8-3.4,2.5-6.7,2-10.2c-0.6-4.3-4.7-7.3-8.9-8.6c-4.1-1.3-8.6-1.4-12.8-2.4
			c-9.8-2.5-17.7-11-19.6-20.9c-1.9-9.9,2.3-20.7,10.4-26.7c5.1-3.7,11.3-5.6,16.8-8.6c5.5-3,10.8-7.9,11.2-14.2
			c0.5-6.5-4.3-12.3-9.5-16.1c-5.3-3.8-11.4-6.6-15.9-11.3c-10.2-10.6-8.1-30.3,4.1-38.4c5.9-3.9,13-5.2,19.5-8.1
			c6.4-2.9,12.7-8.5,12.5-15.5c-0.2-7.5-7.2-12.7-11.9-18.7c-9.3-11.8-8.8-30.2,1-41.6c9.8-11.4,28-14.5,41-7.1s19.6,24.6,14.9,38.9
			c-2.1,6.1-5.9,11.5-8.4,17.5c-2.5,6-3.7,13.2-0.3,18.7c8,13.3,31.6,5.6,41.3,17.6c5.6,6.9,3.6,17.4-1.1,24.9
			c-4.7,7.5-11.8,13.3-16.9,20.6c-5.1,7.3-8,17.3-3.5,24.9c3.3,5.6,9.6,8.4,15,12c5.4,3.6,10.5,9.4,9.3,15.7
			c-2.2,11.3-21.2,11.8-24.2,22.9c-1.8,6.6,3.4,13,4.9,19.7C-570.5,881.3-658.9,891.8-651,855.8z"/>
		<polygon class="st7" points="-593.4,826.8 -595.1,825.6 -619.4,841.8 -619.9,796 -623.5,796 -623.7,820.9 -647.9,804.8 
			-649.6,806 -623.8,824.9 -624.8,935.1 -618.5,935.1 -619.3,845.8 		"/>
	</g>
	<g class="st5">
		<path class="st11" d="M-21.9,840.1c-5.2-11.4-11.3-22.1-18.6-30.6c-7.3-8.5-15.9-14.7-24.9-16.5c-13.9-2.8-27.9,5.2-38.5,18.6
			c-10.6,13.4-17.9,31.8-23.1,51.1c-1.4,5.1-2.6,10.4-2.9,16c-0.3,5.6,0.4,11.4,2.6,16c3.6,7.4,10,10.8,16.1,11.1
			c35.3,1.6,61.1,1.1,92.2-1.7c4.4-0.4,8.8-2.6,12.4-6.1c4.2-4.1,0.9-11.1-0.7-17.1C-11.2,866.6-16.1,852.9-21.9,840.1z"/>
		<g>
			<path class="st8" d="M-35.1,822.5c2.8,9.1,4,18.8,2.8,28.2c-0.7,5.3-2.2,10.6-4.5,15.4c-6.8,14-20.1,23.9-34.5,29.6
				c-14.3,5.7-29.8,7.6-45.1,9c1.7,0.6,3.5,1,5.3,1.1c35.3,1.6,61.1,1.1,92.2-1.7c4.4-0.4,8.8-2.6,12.4-6.1
				c4.2-4.1,0.9-11.1-0.7-17.1c-3.8-14.3-8.7-28-14.6-40.8c-5.2-11.3-11.1-21.9-18.3-30.3c0.5,1.9,2,4.1,2.7,5.7
				C-36.6,817.8-35.8,820.1-35.1,822.5z"/>
		</g>
	</g>
	<g class="st5">
		<path class="st6" d="M-72.7,843.3c-1-3,1.5-6,3.8-8.1c2.4-2.1,5.1-4.6,4.9-7.8c-0.2-2.9-2.8-5.1-5.6-6c-2.8-0.9-5.7-0.9-8.6-1.5
			c-2.8-0.6-5.8-2-6.9-4.7c-1.3-3,0.4-6.6,2.8-8.8c2.4-2.2,5.6-3.5,8.5-5.1c2.9-1.6,5.7-3.8,6.6-7c1.4-4.6-2-9.7-6.4-11.6
			c-4.4-2-9.5-1.6-14.3-0.9c-3.8,0.6-8.5,1-10.5-2.3c-1.2-2-0.8-4.6,0.2-6.7c1-2.1,2.5-3.9,3.4-6.1c2.4-5.3,0.9-12.2-3.6-15.9
			c-4.8-4.1-12.6-4.1-17.5,0c-4.8,4.1-6,11.9-2.7,17.2c2,3.2,5.5,5.9,5.3,9.6c-0.2,3.9-4.1,6.3-7.6,8c-3.5,1.7-7.5,4-7.8,7.9
			c-0.3,3.9,3.4,6.9,6.8,8.8c3.4,1.9,7.4,4.1,8.2,7.9c0.9,4.1-2.3,8-5.5,10.7c-3.3,2.8-6.9,5.2-10.1,8.1c-3.1,3-5.8,6.7-6.6,10.9
			c-0.8,4.3,0.8,9.1,4.5,11.3c2.4,1.4,5.2,1.6,7.9,2.1c2.7,0.5,5.6,1.6,6.8,4.1c0.9,1.7,0.8,3.8,1.2,5.8c0.7,3.8,3.2,7.3,6.7,9.1
			c4,2.1,7,0.8,11.1,0.5c4.1-0.3,7.4,0.5,11.4-1.4c2.1-1,3.9-2.4,5.8-3.7c3.6-2.6,7.2-5.3,10.7-7.9c2.6-1.9,5.6-4.7,4.8-7.8
			C-65.7,848.2-71.5,847.2-72.7,843.3z"/>
		<polygon class="st7" points="-79.4,849.4 -80.5,848.7 -95.5,858.7 -95.7,830.4 -98,830.4 -98.2,845.8 -113,835.8 -114.1,836.6 
			-98.2,848.3 -99,916.3 -95.1,916.3 -95.5,861.2 		"/>
	</g>
	<g class="st5">
		<path class="st13" d="M-141.3,881.8c0.3-1.5,1-2.9,0.8-4.4c-0.3-1.8-2.1-3.1-3.9-3.6s-3.7-0.5-5.5-0.9c-4.2-1-7.7-4.5-8.6-8.7
			c-0.9-4.2,0.8-8.9,4.2-11.5c2.1-1.6,4.7-2.5,7.1-3.8c2.3-1.3,4.5-3.5,4.6-6.2c0.1-2.8-2-5.2-4.2-6.8c-2.3-1.6-4.9-2.7-6.9-4.6
			c-4.5-4.4-3.8-12.8,1.4-16.4c2.5-1.7,5.5-2.4,8.2-3.7c2.7-1.3,5.3-3.8,5.2-6.8c-0.2-3.2-3.2-5.3-5.3-7.8c-4.1-5-4.1-12.8,0-17.8
			c4.1-5,11.8-6.5,17.4-3.5c5.7,3,8.6,10.3,6.8,16.4c-0.8,2.6-2.4,5-3.4,7.6c-1,2.6-1.4,5.7,0.1,8c3.5,5.6,13.6,2,17.8,7.1
			c2.5,2.9,1.7,7.4-0.2,10.6c-1.9,3.3-4.9,5.8-7,9c-2.1,3.2-3.2,7.5-1.2,10.7c1.5,2.3,4.2,3.5,6.5,4.9c2.3,1.5,4.6,3.9,4.1,6.6
			c-0.8,4.8-8.9,5.3-10.1,10c-0.7,2.9,1.6,5.5,2.3,8.3C-106.7,891.8-144.3,897.2-141.3,881.8z"/>
		<polygon class="st7" points="-117.1,868.8 -117.8,868.3 -128,875.5 -128.7,855.9 -130.2,856 -130.1,866.6 -140.6,860 
			-141.3,860.5 -130.1,868.3 -129.3,915.3 -126.6,915.3 -128,877.2 		"/>
	</g>
	<g class="st5">
		<defs>
			<filter id="Adobe_OpacityMaskFilter" filterUnits="userSpaceOnUse" x="157.6" y="296.5" width="372.5" height="261.9">
				<feFlood  style="flood-color:white;flood-opacity:1" result="back"/>
				<feBlend  in="SourceGraphic" in2="back" mode="normal"/>
			</filter>
		</defs>
		<mask maskUnits="userSpaceOnUse" x="157.6" y="296.5" width="372.5" height="261.9" id="SVGID_3_">
			<g class="st14">
				<defs>
					<filter id="Adobe_OpacityMaskFilter_1_" filterUnits="userSpaceOnUse" x="157.6" y="296.5" width="372.5" height="261.9">
						<feFlood  style="flood-color:white;flood-opacity:1" result="back"/>
						<feBlend  in="SourceGraphic" in2="back" mode="normal"/>
					</filter>
				</defs>
				<mask maskUnits="userSpaceOnUse" x="157.6" y="296.5" width="372.5" height="261.9" id="SVGID_3_">
					<g class="st15">
					</g>
				</mask>
				<linearGradient id="SVGID_4_" gradientUnits="userSpaceOnUse" x1="157.5843" y1="427.4331" x2="530.0897" y2="427.4331">
					<stop  offset="0" style="stop-color:#FFFFFF"/>
					<stop  offset="1" style="stop-color:#000000"/>
				</linearGradient>
				<path class="st16" d="M513.6,303.8c-10.1-5.1-21.5-6.9-32.8-7.2c-12.7-0.4-25.5,0.8-38.2,1.6c-14.3,0.9-28.7,1.6-43,2.3
					c-28.4,1.3-56.8,2.2-85.2,2.8c-25.8,0.6-51.8,1.4-77.1,6.8c-12.3,2.6-24.5,6.4-35.9,11.8c-9.4,4.5-18.9,12.6-18.2,24.1
					c0.7,10.3,10.2,15.5,19.3,17.3c11.2,2.2,22.9,2,34.2,3.4c6,0.7,12,1.9,17.7,3.9c5.1,1.8,11.7,4.6,14.9,9.2
					c4.5,6.7-6.5,8.5-10.8,9.4c-6,1.2-12.2,1.8-18.3,2.3c-22.6,1.6-49.4-0.4-69.1,13.1c-8.1,5.5-15.5,14.9-13.2,25.3
					c2.3,10.4,13.3,15.3,22.7,17.6c12.8,3.1,26.2,2.8,39.3,2.7c6.6-0.1,13.3-0.3,19.9,0.4c4.2,0.4,10.5,1.6,12,6.2
					c2.1,6.2-5.7,11.2-10.3,13.4c-5.2,2.5-10.9,4-16.5,5.5c-10.3,2.7-22.5,5.5-29.9,13.8c-3.2,3.6-5.6,8.5-4.4,13.4
					c1.2,4.7,5,7.3,9.2,9.1c2.2,0.9,4.6,1.6,6.6,2.9c3.6,2.4,3.3,4.7,1,8c-3.3,4.8-5.7,10.1-6.7,15.9c-0.8,4.8-1.4,10.7,1.1,15.2
					c2.1,3.6,6,5.9,9.9,3.6c2.3-1.4,1.9-4.1,0.4-5.5c0.3-11.5,14.5-18.8,23.7-22.7c11.1-4.7,22.8-7.4,34.6-9.6
					c11.9-2.1,23.9-3.6,35.7-6c11.2-2.2,22.9-4.9,33.1-10.2c8.1-4.2,17-11.8,16.6-21.8c-0.4-10.4-9.7-15.9-18-20.1
					c-4.9-2.4-10.2-5.2-13.2-10c-3.6-5.8,0.1-11.2,4.8-14.9c8.4-6.6,19.1-8.8,29.5-9.9c10.5-1,21.1-1.1,31.6-2.6
					c9.9-1.4,21.2-4.1,28.3-11.7c6.3-6.7,6.4-15.8-0.6-22c-2.9-2.6-6.3-4.5-9.5-6.5c-2.7-1.8-6.1-3.9-7-7.3
					c-1.6-5.9,5.1-10.5,9.6-12.7c5.2-2.6,11.2-3.7,17-4.4c12.6-1.4,25.2-2,37.7-4c13.5-2.2,26.8-5.3,39.8-9.4
					c9.8-3,21.1-7.7,23.7-18.8C532.3,316.4,522.4,308.3,513.6,303.8z"/>
			</g>
		</mask>
		<linearGradient id="SVGID_5_" gradientUnits="userSpaceOnUse" x1="157.5843" y1="427.4331" x2="530.0897" y2="427.4331">
			<stop  offset="0" style="stop-color:#FFFFFF"/>
			<stop  offset="1" style="stop-color:#FFFFFF"/>
		</linearGradient>
		<path class="st17" d="M513.6,303.8c-10.1-5.1-21.5-6.9-32.8-7.2c-12.7-0.4-25.5,0.8-38.2,1.6c-14.3,0.9-28.7,1.6-43,2.3
			c-28.4,1.3-56.8,2.2-85.2,2.8c-25.8,0.6-51.8,1.4-77.1,6.8c-12.3,2.6-24.5,6.4-35.9,11.8c-9.4,4.5-18.9,12.6-18.2,24.1
			c0.7,10.3,10.2,15.5,19.3,17.3c11.2,2.2,22.9,2,34.2,3.4c6,0.7,12,1.9,17.7,3.9c5.1,1.8,11.7,4.6,14.9,9.2
			c4.5,6.7-6.5,8.5-10.8,9.4c-6,1.2-12.2,1.8-18.3,2.3c-22.6,1.6-49.4-0.4-69.1,13.1c-8.1,5.5-15.5,14.9-13.2,25.3
			c2.3,10.4,13.3,15.3,22.7,17.6c12.8,3.1,26.2,2.8,39.3,2.7c6.6-0.1,13.3-0.3,19.9,0.4c4.2,0.4,10.5,1.6,12,6.2
			c2.1,6.2-5.7,11.2-10.3,13.4c-5.2,2.5-10.9,4-16.5,5.5c-10.3,2.7-22.5,5.5-29.9,13.8c-3.2,3.6-5.6,8.5-4.4,13.4
			c1.2,4.7,5,7.3,9.2,9.1c2.2,0.9,4.6,1.6,6.6,2.9c3.6,2.4,3.3,4.7,1,8c-3.3,4.8-5.7,10.1-6.7,15.9c-0.8,4.8-1.4,10.7,1.1,15.2
			c2.1,3.6,6,5.9,9.9,3.6c2.3-1.4,1.9-4.1,0.4-5.5c0.3-11.5,14.5-18.8,23.7-22.7c11.1-4.7,22.8-7.4,34.6-9.6
			c11.9-2.1,23.9-3.6,35.7-6c11.2-2.2,22.9-4.9,33.1-10.2c8.1-4.2,17-11.8,16.6-21.8c-0.4-10.4-9.7-15.9-18-20.1
			c-4.9-2.4-10.2-5.2-13.2-10c-3.6-5.8,0.1-11.2,4.8-14.9c8.4-6.6,19.1-8.8,29.5-9.9c10.5-1,21.1-1.1,31.6-2.6
			c9.9-1.4,21.2-4.1,28.3-11.7c6.3-6.7,6.4-15.8-0.6-22c-2.9-2.6-6.3-4.5-9.5-6.5c-2.7-1.8-6.1-3.9-7-7.3
			c-1.6-5.9,5.1-10.5,9.6-12.7c5.2-2.6,11.2-3.7,17-4.4c12.6-1.4,25.2-2,37.7-4c13.5-2.2,26.8-5.3,39.8-9.4
			c9.8-3,21.1-7.7,23.7-18.8C532.3,316.4,522.4,308.3,513.6,303.8z"/>
		<polygon class="st18" points="270,898.9 157.6,898.9 184,540.8 243.7,540.8 		"/>
		<g>
			<polygon class="st19" points="157.6,898.9 184,540.8 213.8,540.8 213.8,898.9 			"/>
		</g>
		
			<rect x="179.7" y="571" transform="matrix(-1 -1.224647e-16 1.224647e-16 -1 429.171 1149.6171)" class="st20" width="69.7" height="7.7"/>
		
			<rect x="178.2" y="593.1" transform="matrix(-1 -1.224647e-16 1.224647e-16 -1 429.171 1193.858)" class="st20" width="72.7" height="7.7"/>
	</g>
	<linearGradient id="SVGID_6_" gradientUnits="userSpaceOnUse" x1="656.7647" y1="457.1486" x2="969.0838" y2="457.1486">
		<stop  offset="0" style="stop-color:#E3E3E3"/>
		<stop  offset="0.9959" style="stop-color:#D9D9D9"/>
	</linearGradient>
	<path class="st21" d="M958.2,449.4c-6-2.4-12.7-2.4-19.2-3c-4.8-0.4-9.7-1.3-13.5-4.2c-3.8-2.9-6-8.3-3.9-12.6
		c3.7-7.3,17.7-12.3,21.3-19.6c2.3-4.6-1.1-14-5.4-16.8c-4.3-2.8-9.7-3.3-14.9-3.7c-51.3-4.2-103.5-0.1-155-1.1
		c-15-0.3-29.4,1.7-43.2,7.9c-4.5,2-9,4.5-12.1,8.4c-3.1,3.9-4.5,9.4-2.3,13.9c2,4.1,6.7,7,7.1,11.6c0.6,6.6-7.7,10.1-14.3,10.7
		c-7.5,0.7-15.2,0.4-22.6,1.7c-7.5,1.3-15,4.3-19.7,10.2c-4.7,5.9-5.6,15.2-0.5,20.9c4.6,5.1,12.2,5.9,19.1,5.5
		c6.8-0.4,14-1.5,20.3,1.1c6.4,2.6,11.1,10.7,7.3,16.4c-3.9,5.8-13.9,5.7-16.5,12.2c-1.7,4.3,1.2,9.3,5.2,11.6
		c4,2.3,8.8,2.5,13.5,2.6c32.1,1,64.2,2.1,96.4,3.1c22,0.7,44.5,1.3,65.2-6c6.4-2.3,13.7-7.8,11.5-14.2c-2.8-7.9-17.2-7-18.7-15.3
		c-0.7-4.1,2.7-7.9,6.6-9.2c3.9-1.3,8.2-0.7,12.3-0.3c22,2.5,44.3,1.8,66.1-2.1c9.1-1.6,20-5.9,20.8-15.2
		C969.6,457.5,964.2,451.8,958.2,449.4z"/>
	<g class="st5">
		<path class="st22" d="M905.9,762.4c-16.1-21-40.1-37.3-66.5-38c-21-0.6-41.5,8.9-57.5,22.6c-16,13.7-28.2,31.5-38.8,49.7
			c-12.5,21.3-23.3,43.6-32.3,66.6c-3.6,9.3-10,26.7-4.9,35.3c4.3,7.4,13.2,10.4,21.4,12.7c40.7,11.3,85.6,12.1,127.7,15.1
			c20.8,1.5,43.2,1.6,60.7-9.9C968.7,881.8,935.3,800.8,905.9,762.4z"/>
		<g>
			<path class="st23" d="M732,904.9c45.3,7.3,92.1,4.5,136.2-8.1c12.2-3.5,24.8-8.1,33.3-17.6c7-7.9,10.5-18.5,11.5-29.1
				c1-10.6-0.2-21.2-1.3-31.7c-2.1-18.9-4.3-37.8-6.4-56.7c0.2,0.3,0.4,0.6,0.7,0.8c29.5,38.4,62.8,119.3,9.9,154.1
				c-17.5,11.5-39.9,11.4-60.7,9.9c-42.1-3-87-3.8-127.7-15.1c-5.1-1.4-10.4-3.1-14.8-5.9c1.6-0.7,3.2-1.2,4.9-1.4
				C722.2,903.2,727.1,904.1,732,904.9z"/>
		</g>
	</g>
	<g class="st5">
		<path class="st24" d="M745.1,809.7c-11.8-36-28.8-68.9-51.8-88.8c-18.3-15.8-39.7-22.7-61-24.7c-19.2-1.8-39.1,0.4-57.1,11.9
			c-22.2,14.3-40,42-52.5,73.3c-12.5,31.3-20,66.3-26.5,101.3c-1.9,10.2-3.6,21.5-0.6,30.8c4.6,14.1,17.2,16,27.8,16
			c45.1,0.2,90.3,0.1,135.4-0.3c22.3-0.2,44.7-0.5,67-0.8c11.1-0.2,22.8,1.2,33.9-0.6c8.4-1.4,9.6-8.5,8.1-20.2
			C763.8,873.9,754.6,840.1,745.1,809.7z"/>
		<path class="st25" d="M536,926.3c2.9-1.8,6.5-2,9.9-2.1c46.2-2.2,91.2-24,121.7-58.9c10.1-11.6,18.6-24.7,25.3-38.6
			c5.9-12.4,10.4-25.4,13.3-38.8c2.8-12.9,2.3-26,4.5-38.9c0.5-2.8,1.2-5,2-6.6c13.5,18.7,24.2,42.2,32.4,67.2
			c9.5,30.5,18.6,64.3,22.8,97.8c1.5,11.8,0.3,18.9-8.1,20.2c-11.1,1.8-22.8,0.4-33.9,0.6c-22.3,0.4-44.7,0.6-67,0.8
			c-41.9,0.4-83.7,0.5-125.6,0.3C533.9,928.2,534.9,927,536,926.3z"/>
		<g>
			<path class="st26" d="M750.3,913.5c1.6,0.1,1.5,2.6-0.1,2.5C748.6,915.9,748.7,913.4,750.3,913.5z"/>
			<path class="st26" d="M747.7,900.2c3.1,0.1,2.9,5-0.2,4.9C744.4,904.9,744.5,900.1,747.7,900.2z"/>
			<path class="st26" d="M741.8,907.4c2.8,0.1,2.6,4.4-0.2,4.3C738.9,911.6,739,907.3,741.8,907.4z"/>
			<path class="st26" d="M729.3,911.5c3.6,0.1,3.4,5.7-0.2,5.5C725.5,916.9,725.8,911.3,729.3,911.5z"/>
			<path class="st26" d="M746.2,916.3c2.3,0.1,2.2,3.7-0.1,3.6C743.8,919.8,743.9,916.2,746.2,916.3z"/>
			<path class="st26" d="M741.7,901.2c-2.5-0.1-2.4-4,0.2-3.9C744.3,897.4,744.2,901.3,741.7,901.2z"/>
			<path class="st26" d="M745.5,884.1c2.2,0.1,2.1,3.5-0.1,3.4C743.2,887.4,743.3,884,745.5,884.1z"/>
			<path class="st26" d="M747.4,878.2c-2.4-0.1-2.3-3.8,0.2-3.7C749.9,874.6,749.8,878.3,747.4,878.2z"/>
			<path class="st26" d="M739.4,868.5c-2.7-0.1-2.6-4.3,0.2-4.2C742.3,864.4,742.1,868.7,739.4,868.5z"/>
			<path class="st26" d="M732.7,876.5c2.6,0.1,2.4,4.2-0.2,4C729.9,880.4,730.1,876.4,732.7,876.5z"/>
			<path class="st26" d="M735.6,892.5c3.2,0.1,3,5.1-0.2,5C732.2,897.3,732.4,892.3,735.6,892.5z"/>
			<path class="st26" d="M715.4,900.2c3,0.1,2.8,4.7-0.2,4.6C712.3,904.7,712.4,900.1,715.4,900.2z"/>
			<path class="st26" d="M719.2,913.3c2.7,0.1,2.6,4.4-0.2,4.3C716.3,917.5,716.5,913.2,719.2,913.3z"/>
			<path class="st26" d="M727.2,894.9c3.3,0.1,3.1,5.3-0.2,5.1C723.7,899.9,723.9,894.7,727.2,894.9z"/>
			<path class="st26" d="M718.7,886.4c2.4,0.1,2.3,3.9-0.2,3.8C716.2,890.1,716.3,886.3,718.7,886.4z"/>
			<path class="st26" d="M701,900.7c2.6,0.1,2.5,4.2-0.2,4.1C698.2,904.7,698.4,900.6,701,900.7z"/>
			<path class="st26" d="M700.5,913.1c2.5,0.1,2.4,4-0.2,3.9C697.8,916.9,698,913,700.5,913.1z"/>
			<path class="st26" d="M710.5,913.4c2.2,0.1,2.1,3.5-0.1,3.4C708.1,916.7,708.3,913.3,710.5,913.4z"/>
			<path class="st26" d="M680,907.7c3.4,0.1,3.2,5.4-0.2,5.2C676.4,912.7,676.6,907.5,680,907.7z"/>
			<path class="st26" d="M661.4,913.7c2.8,0.1,2.7,4.5-0.2,4.4C658.4,918,658.6,913.6,661.4,913.7z"/>
			<path class="st26" d="M644.5,917.7c2,0.1,1.8,3.1-0.1,3C642.4,920.6,642.6,917.6,644.5,917.7z"/>
			<path class="st26" d="M690.9,915.2c2.9,0.1,2.7,4.7-0.2,4.5C687.8,919.6,687.9,915.1,690.9,915.2z"/>
			<path class="st26" d="M691.4,901.1c2.6,0.1,2.4,4.2-0.2,4C688.7,905.1,688.8,901,691.4,901.1z"/>
			<path class="st26" d="M659.7,906c-1.8-0.1-1.6-2.8,0.1-2.7C661.6,903.4,661.5,906.1,659.7,906z"/>
			<path class="st26" d="M672.8,917.5c2.2,0.1,2,3.5-0.1,3.4C670.5,920.7,670.7,917.4,672.8,917.5z"/>
			<path class="st26" d="M704.3,888.6c2.5,0.1,2.4,4-0.2,3.9C701.6,892.4,701.8,888.5,704.3,888.6z"/>
			<path class="st26" d="M722,864.8c2.7,0.1,2.5,4.3-0.2,4.2C719.1,868.9,719.3,864.7,722,864.8z"/>
			<path class="st26" d="M734.2,858.2c-3.1-0.1-2.9-4.9,0.2-4.8C737.5,853.6,737.3,858.4,734.2,858.2z"/>
			<path class="st26" d="M727.6,835.3c3,0.1,2.8,4.7-0.2,4.6C724.4,839.8,724.6,835.2,727.6,835.3z"/>
			<path class="st26" d="M735.9,836.6c-2.3-0.1-2.2-3.7,0.1-3.6C738.4,833.1,738.2,836.7,735.9,836.6z"/>
			<path class="st26" d="M739.7,851.7c-2.6-0.1-2.4-4.2,0.2-4C742.4,847.8,742.3,851.8,739.7,851.7z"/>
			<path class="st26" d="M725,819.8c-1.8-0.1-1.6-2.8,0.1-2.7C726.9,817.1,726.8,819.8,725,819.8z"/>
			<path class="st26" d="M719.8,811.6c-2.3-0.1-2.1-3.6,0.1-3.5C722.2,808.2,722,811.7,719.8,811.6z"/>
			<path class="st26" d="M716.2,851.4c-2.4-0.1-2.3-3.8,0.2-3.7C718.7,847.8,718.6,851.5,716.2,851.4z"/>
			<path class="st26" d="M709.2,866.3c-3-0.1-2.8-4.7,0.2-4.6C712.3,861.8,712.1,866.4,709.2,866.3z"/>
			<path class="st26" d="M689.5,871.1c2.6,0.1,2.5,4.2-0.2,4.1C686.7,875.1,686.8,871,689.5,871.1z"/>
			<path class="st26" d="M687.3,885c2.1,0.1,2,3.4-0.1,3.3C685.1,888.2,685.2,884.9,687.3,885z"/>
			<path class="st26" d="M709,880.2c-2.9-0.1-2.7-4.6,0.2-4.5C712.1,875.8,711.9,880.3,709,880.2z"/>
			<path class="st26" d="M718.8,873.9c2.2,0.1,2.1,3.5-0.1,3.4C716.5,877.2,716.7,873.8,718.8,873.9z"/>
			<path class="st26" d="M725.8,878.3c2.5,0.1,2.4,4-0.2,3.9C723.2,882.1,723.3,878.2,725.8,878.3z"/>
			<path class="st26" d="M727.7,891.5c-2.5-0.1-2.4-4.1,0.2-4C730.4,887.6,730.3,891.6,727.7,891.5z"/>
			<path class="st26" d="M737.8,888.6c-3-0.1-2.8-4.8,0.2-4.6C741,884.1,740.8,888.7,737.8,888.6z"/>
			<path class="st26" d="M752.7,894.8c2.2,0.1,2.1,3.5-0.1,3.4C750.4,898.1,750.5,894.7,752.7,894.8z"/>
			<path class="st26" d="M729.5,907.4c-2.9-0.1-2.7-4.7,0.2-4.5C732.6,902.9,732.4,907.5,729.5,907.4z"/>
			<path class="st26" d="M751.4,906c2.5,0.1,2.4,4-0.2,3.9C748.8,909.8,748.9,905.9,751.4,906z"/>
			<path class="st26" d="M737.1,917.2c3,0.1,2.9,4.9-0.2,4.7C733.8,921.8,734,917.1,737.1,917.2z"/>
			<path class="st26" d="M718.3,907.1c3,0.1,2.8,4.8-0.2,4.6C715.1,911.6,715.3,907,718.3,907.1z"/>
			<path class="st26" d="M713.6,894.6c-2.7-0.1-2.5-4.2,0.2-4.1C716.5,890.5,716.3,894.7,713.6,894.6z"/>
			<path class="st26" d="M706.3,907.8c2.5,0.1,2.3,3.9-0.2,3.8C703.7,911.5,703.9,907.7,706.3,907.8z"/>
			<path class="st26" d="M722.6,859.9c-2.2-0.1-2.1-3.5,0.1-3.4C724.9,856.6,724.8,860,722.6,859.9z"/>
			<path class="st26" d="M731.4,869.1c-2.8-0.1-2.6-4.4,0.2-4.3C734.4,864.9,734.2,869.2,731.4,869.1z"/>
			<path class="st26" d="M744.6,858c-1.3-0.1-1.2-2,0.1-2C745.9,856.1,745.9,858.1,744.6,858z"/>
			<path class="st26" d="M728.2,849c-2.7-0.1-2.6-4.3,0.2-4.2C731.1,844.8,731,849.1,728.2,849z"/>
			<path class="st26" d="M701.2,876.9c2.5,0.1,2.4,4-0.2,3.9C698.5,880.7,698.7,876.8,701.2,876.9z"/>
			<path class="st26" d="M694.4,888.2c3,0.1,2.9,4.9-0.2,4.7C691.1,892.8,691.3,888,694.4,888.2z"/>
			<path class="st26" d="M672.3,901.1c-3-0.1-2.8-4.8,0.2-4.7C675.5,896.6,675.3,901.3,672.3,901.1z"/>
			<path class="st26" d="M691.1,910.4c-2.7-0.1-2.6-4.3,0.2-4.2C694,906.3,693.8,910.6,691.1,910.4z"/>
			<path class="st26" d="M670.2,904.4c3.5,0.1,3.2,5.5-0.2,5.4C666.5,909.6,666.7,904.3,670.2,904.4z"/>
			<path class="st26" d="M683.9,891c2.4,0.1,2.3,3.9-0.2,3.8C681.3,894.7,681.4,890.9,683.9,891z"/>
			<path class="st26" d="M678.9,916.1c3.2,0.1,3,5-0.2,4.9C675.5,920.9,675.7,916,678.9,916.1z"/>
			<path class="st26" d="M656.2,917.3c3.1,0.1,2.9,4.9-0.2,4.8C653,921.9,653.2,917.2,656.2,917.3z"/>
			<path class="st26" d="M652.5,908.7c3.1,0.1,2.9,4.9-0.2,4.8C649.2,913.4,649.4,908.6,652.5,908.7z"/>
		</g>
	</g>
	<g class="st5">
		<path class="st24" d="M401.2,848.2c5.2-11.4,11.3-22.1,18.6-30.6c7.3-8.5,15.9-14.7,24.9-16.5c13.9-2.8,27.9,5.2,38.5,18.6
			c10.6,13.4,17.9,31.8,23.1,51.1c1.4,5.1,2.6,10.4,2.9,16c0.3,5.6-0.4,11.4-2.6,16c-3.6,7.4-10,10.8-16.1,11.1
			c-35.3,1.6-61.1,1.1-92.2-1.7c-4.4-0.4-8.8-2.6-12.4-6.1c-4.2-4.1-0.9-11.1,0.7-17.1C390.5,874.6,395.4,860.9,401.2,848.2z"/>
		<g>
			<path class="st27" d="M414.4,830.5c-2.8,9.1-4,18.8-2.8,28.2c0.7,5.3,2.2,10.6,4.5,15.4c6.8,14,20.1,23.9,34.5,29.6
				c14.3,5.7,29.8,7.6,45.1,9c-1.7,0.6-3.5,1-5.3,1.1c-35.3,1.6-61.1,1.1-92.2-1.7c-4.4-0.4-8.8-2.6-12.4-6.1
				c-4.2-4.1-0.9-11.1,0.7-17.1c3.8-14.3,8.7-28,14.6-40.8c5.2-11.3,11.1-21.9,18.3-30.3c-0.5,1.9-2,4.1-2.7,5.7
				C415.9,825.8,415.1,828.1,414.4,830.5z"/>
		</g>
	</g>
	<g class="st5">
		<defs>
			<filter id="Adobe_OpacityMaskFilter_2_" filterUnits="userSpaceOnUse" x="248.4" y="83" width="607.3" height="427">
				<feFlood  style="flood-color:white;flood-opacity:1" result="back"/>
				<feBlend  in="SourceGraphic" in2="back" mode="normal"/>
			</filter>
		</defs>
		<mask maskUnits="userSpaceOnUse" x="248.4" y="83" width="607.3" height="427" id="SVGID_7_">
			<g class="st28">
				<defs>
					<filter id="Adobe_OpacityMaskFilter_3_" filterUnits="userSpaceOnUse" x="248.4" y="83" width="607.3" height="427">
						<feFlood  style="flood-color:white;flood-opacity:1" result="back"/>
						<feBlend  in="SourceGraphic" in2="back" mode="normal"/>
					</filter>
				</defs>
				<mask maskUnits="userSpaceOnUse" x="248.4" y="83" width="607.3" height="427" id="SVGID_7_">
					<g class="st29">
					</g>
				</mask>
				<linearGradient id="SVGID_8_" gradientUnits="userSpaceOnUse" x1="248.395" y1="296.4841" x2="855.6954" y2="296.4841">
					<stop  offset="0" style="stop-color:#FFFFFF"/>
					<stop  offset="1" style="stop-color:#000000"/>
				</linearGradient>
				<path class="st30" d="M828.8,94.9c-16.5-8.4-35.1-11.2-53.4-11.8c-20.8-0.6-41.6,1.3-62.3,2.6c-23.4,1.4-46.7,2.6-70.1,3.7
					c-46.3,2.1-92.6,3.5-138.9,4.5c-42,0.9-84.4,2.2-125.7,11.1c-20,4.3-40,10.4-58.5,19.3c-15.4,7.4-30.9,20.5-29.7,39.3
					c1.1,16.8,16.6,25.3,31.5,28.2c18.3,3.6,37.3,3.3,55.8,5.6c9.8,1.2,19.6,3.1,28.9,6.3c8.3,2.9,19.1,7.5,24.2,15
					c7.4,10.9-10.5,13.9-17.6,15.3c-9.8,2-19.8,3-29.8,3.7c-36.9,2.6-80.5-0.6-112.6,21.3c-13.2,9-25.3,24.2-21.5,41.2
					c3.7,17,21.7,25,37,28.7c20.9,5.1,42.7,4.6,64.1,4.4c10.7-0.1,21.7-0.4,32.4,0.6c6.8,0.7,17.1,2.6,19.6,10.1
					c3.4,10-9.3,18.3-16.8,21.9c-8.6,4.1-17.8,6.6-27,9c-16.7,4.5-36.7,9-48.7,22.5c-5.2,5.8-9.2,13.9-7.2,21.8
					c1.9,7.6,8.2,12,15,14.9c3.6,1.5,7.5,2.6,10.8,4.8c5.9,3.9,5.4,7.7,1.6,13.1c-5.4,7.8-9.2,16.5-10.9,25.9
					c-1.4,7.9-2.3,17.5,1.8,24.8c3.3,5.9,9.7,9.6,16.1,5.9c3.8-2.2,3.1-6.7,0.6-9c0.4-18.7,23.7-30.6,38.7-37
					c18-7.7,37.2-12.1,56.4-15.6c19.4-3.5,38.9-5.9,58.2-9.8c18.2-3.6,37.4-8,53.9-16.6c13.2-6.8,27.7-19.3,27-35.5
					c-0.6-16.9-15.9-25.9-29.3-32.7c-7.9-4-16.7-8.5-21.5-16.3c-5.8-9.5,0.1-18.2,7.8-24.3c13.6-10.8,31.1-14.4,48.1-16.1
					c17.2-1.7,34.4-1.8,51.5-4.2c16.1-2.3,34.6-6.7,46.2-19c10.2-11,10.4-25.8-0.9-35.9c-4.7-4.2-10.2-7.3-15.4-10.7
					c-4.5-2.9-10-6.4-11.5-11.8c-2.6-9.6,8.3-17.1,15.6-20.7c8.6-4.3,18.3-6.1,27.7-7.2c20.5-2.3,41-3.3,61.5-6.6
					c22-3.5,43.7-8.6,64.9-15.3c15.9-5,34.4-12.5,38.6-30.6C859.2,115.5,843.2,102.2,828.8,94.9z"/>
			</g>
		</mask>
		<linearGradient id="SVGID_9_" gradientUnits="userSpaceOnUse" x1="248.395" y1="296.4841" x2="855.6954" y2="296.4841">
			<stop  offset="0" style="stop-color:#FFFFFF"/>
			<stop  offset="1" style="stop-color:#FFFFFF"/>
		</linearGradient>
		<path class="st31" d="M828.8,94.9c-16.5-8.4-35.1-11.2-53.4-11.8c-20.8-0.6-41.6,1.3-62.3,2.6c-23.4,1.4-46.7,2.6-70.1,3.7
			c-46.3,2.1-92.6,3.5-138.9,4.5c-42,0.9-84.4,2.2-125.7,11.1c-20,4.3-40,10.4-58.5,19.3c-15.4,7.4-30.9,20.5-29.7,39.3
			c1.1,16.8,16.6,25.3,31.5,28.2c18.3,3.6,37.3,3.3,55.8,5.6c9.8,1.2,19.6,3.1,28.9,6.3c8.3,2.9,19.1,7.5,24.2,15
			c7.4,10.9-10.5,13.9-17.6,15.3c-9.8,2-19.8,3-29.8,3.7c-36.9,2.6-80.5-0.6-112.6,21.3c-13.2,9-25.3,24.2-21.5,41.2
			c3.7,17,21.7,25,37,28.7c20.9,5.1,42.7,4.6,64.1,4.4c10.7-0.1,21.7-0.4,32.4,0.6c6.8,0.7,17.1,2.6,19.6,10.1
			c3.4,10-9.3,18.3-16.8,21.9c-8.6,4.1-17.8,6.6-27,9c-16.7,4.5-36.7,9-48.7,22.5c-5.2,5.8-9.2,13.9-7.2,21.8
			c1.9,7.6,8.2,12,15,14.9c3.6,1.5,7.5,2.6,10.8,4.8c5.9,3.9,5.4,7.7,1.6,13.1c-5.4,7.8-9.2,16.5-10.9,25.9
			c-1.4,7.9-2.3,17.5,1.8,24.8c3.3,5.9,9.7,9.6,16.1,5.9c3.8-2.2,3.1-6.7,0.6-9c0.4-18.7,23.7-30.6,38.7-37
			c18-7.7,37.2-12.1,56.4-15.6c19.4-3.5,38.9-5.9,58.2-9.8c18.2-3.6,37.4-8,53.9-16.6c13.2-6.8,27.7-19.3,27-35.5
			c-0.6-16.9-15.9-25.9-29.3-32.7c-7.9-4-16.7-8.5-21.5-16.3c-5.8-9.5,0.1-18.2,7.8-24.3c13.6-10.8,31.1-14.4,48.1-16.1
			c17.2-1.7,34.4-1.8,51.5-4.2c16.1-2.3,34.6-6.7,46.2-19c10.2-11,10.4-25.8-0.9-35.9c-4.7-4.2-10.2-7.3-15.4-10.7
			c-4.5-2.9-10-6.4-11.5-11.8c-2.6-9.6,8.3-17.1,15.6-20.7c8.6-4.3,18.3-6.1,27.7-7.2c20.5-2.3,41-3.3,61.5-6.6
			c22-3.5,43.7-8.6,64.9-15.3c15.9-5,34.4-12.5,38.6-30.6C859.2,115.5,843.2,102.2,828.8,94.9z"/>
		<polygon class="st32" points="424.9,914.8 247.2,914.8 288.9,492.4 383.2,492.4 		"/>
		<g>
			<polygon class="st33" points="247.2,914.8 288.9,492.4 336,492.4 336,914.8 			"/>
		</g>
		
			<rect x="282.2" y="522.5" transform="matrix(-1 -1.224647e-16 1.224647e-16 -1 674.514 1052.7937)" class="st20" width="110.2" height="7.7"/>
		
			<rect x="279.8" y="544.7" transform="matrix(-1 -1.224647e-16 1.224647e-16 -1 674.514 1097.0349)" class="st20" width="114.9" height="7.7"/>
	</g>
	<polygon class="st34" points="489,760.2 486.7,758.5 455.4,781.5 454.8,716.5 450.1,716.5 449.8,751.8 418.7,729 416.5,730.7 
		449.8,757.6 448.5,914.1 456.7,914.1 455.5,787.3 	"/>
	<polygon class="st34" points="430.3,798.5 428.5,797.1 403.4,815.6 402.9,763.5 399.2,763.5 398.9,791.8 374,773.5 372.2,774.9 
		398.9,796.4 397.9,921.8 404.4,921.8 403.5,820.2 	"/>
	<polygon class="st34" points="236.2,821.1 234.9,820.1 217.2,833.1 216.9,796.4 214.3,796.4 214.1,816.4 196.5,803.5 195.3,804.4 
		214,819.6 213.3,907.9 217.9,907.9 217.3,836.4 	"/>
	<polygon class="st34" points="210.1,784 208.3,782.6 183.6,800.8 183.1,749.5 179.4,749.5 179.2,777.4 154.6,759.4 152.9,760.7 
		179.1,782 178.2,905.4 184.6,905.4 183.7,805.4 	"/>
</g>
</svg>
