<?xml version="1.0" encoding="utf-8"?>
<!-- Generator: Adobe Illustrator 21.1.0, SVG Export Plug-In . SVG Version: 6.00 Build 0)  -->
<svg version="1.1" id="Слой_1" xmlns="http://www.w3.org/2000/svg" xmlns:xlink="http://www.w3.org/1999/xlink" x="0px" y="0px"
	 viewBox="0 0 1000 1000" style="enable-background:new 0 0 1000 1000;" xml:space="preserve">
<style type="text/css">
	.st0{fill:#F8F8F8;}
	.st1{clip-path:url(#SVGID_2_);fill:#736AE1;}
	.st2{clip-path:url(#SVGID_2_);}
	.st3{filter:url(#Adobe_OpacityMaskFilter);}
	.st4{filter:url(#Adobe_OpacityMaskFilter_1_);}
	.st5{mask:url(#SVGID_3_);fill:url(#SVGID_4_);}
	.st6{fill:url(#SVGID_5_);}
	.st7{fill:#F5F3EF;}
	.st8{fill:#EDECE5;}
	.st9{fill:#736AE1;}
	.st10{filter:url(#Adobe_OpacityMaskFilter_2_);}
	.st11{filter:url(#Adobe_OpacityMaskFilter_3_);}
	.st12{mask:url(#SVGID_6_);fill:url(#SVGID_7_);}
	.st13{fill:url(#SVGID_8_);}
	.st14{fill:#F2F0EA;}
	.st15{fill:#E3E2DC;}
	.st16{fill:#E8E8E7;}
	.st17{fill:#D6D6D6;}
	.st18{fill:#EFEFEE;}
	.st19{fill:none;}
	.st20{fill:#CCCCCC;}
	.st21{fill:#554FC9;}
	.st22{fill:#373796;}
	.st23{fill:#3E3E81;}
	.st24{fill:#34347A;}
	.st25{fill:#007E4D;}
	.st26{fill:#413D9E;}
	.st27{fill:#7D7DC4;}
	.st28{fill:#7676CF;}
	.st29{fill:#41417F;}
	.st30{fill:#41418B;}
	.st31{fill:#9393D0;}
	.st32{fill:#3C3C96;}
	.st33{fill:#FFFFFF;}
	.st34{fill:#F6F6F6;}
	.st35{fill:url(#SVGID_9_);}
	.st36{fill:url(#SVGID_10_);}
	.st37{fill:#E0E0DF;}
	.st38{fill:#282861;}
</style>
<circle class="st0" cx="500" cy="500" r="499.5"/>
<g id="Слой_2">
</g>
<g>
	<defs>
		<circle id="SVGID_1_" cx="500" cy="500" r="499.5"/>
	</defs>
	<clipPath id="SVGID_2_">
		<use xlink:href="#SVGID_1_"  style="overflow:visible;"/>
	</clipPath>
	<path class="st1" d="M80.9,969c92.8-1.1,185.7-2.1,278.5-3.2c7.1-0.1,14.4-0.2,20.9-3.1c6.5-2.9,11.9-9.3,11.4-16.4
		c-0.9-12.2-16.4-16.4-28.5-17.4c-106.4-8.8-213.5-8.7-319.8,0.5c-13,1.1-58.6,11.9-41.1,34.3C14.1,978.9,64.2,969.2,80.9,969z"/>
	<g class="st2">
		<defs>
			<filter id="Adobe_OpacityMaskFilter" filterUnits="userSpaceOnUse" x="251.7" y="240.5" width="300.8" height="211.5">
				<feFlood  style="flood-color:white;flood-opacity:1" result="back"/>
				<feBlend  in="SourceGraphic" in2="back" mode="normal"/>
			</filter>
		</defs>
		<mask maskUnits="userSpaceOnUse" x="251.7" y="240.5" width="300.8" height="211.5" id="SVGID_3_">
			<g class="st3">
				<defs>
					<filter id="Adobe_OpacityMaskFilter_1_" filterUnits="userSpaceOnUse" x="251.7" y="240.5" width="300.8" height="211.5">
						<feFlood  style="flood-color:white;flood-opacity:1" result="back"/>
						<feBlend  in="SourceGraphic" in2="back" mode="normal"/>
					</filter>
				</defs>
				<mask maskUnits="userSpaceOnUse" x="251.7" y="240.5" width="300.8" height="211.5" id="SVGID_3_">
					<g class="st4">
					</g>
				</mask>
				<linearGradient id="SVGID_4_" gradientUnits="userSpaceOnUse" x1="251.6703" y1="346.2594" x2="552.4836" y2="346.2594">
					<stop  offset="0" style="stop-color:#FFFFFF"/>
					<stop  offset="1" style="stop-color:#000000"/>
				</linearGradient>
				<path class="st5" d="M539.2,246.4c-8.2-4.1-17.4-5.6-26.5-5.8c-10.3-0.3-20.6,0.7-30.9,1.3c-11.6,0.7-23.1,1.3-34.7,1.8
					c-22.9,1.1-45.9,1.7-68.8,2.2c-20.8,0.5-41.8,1.1-62.2,5.5c-9.9,2.1-19.8,5.2-29,9.5c-7.6,3.6-15.3,10.2-14.7,19.5
					c0.5,8.3,8.2,12.5,15.6,14c9.1,1.8,18.5,1.6,27.6,2.8c4.8,0.6,9.7,1.5,14.3,3.1c4.1,1.4,9.5,3.7,12,7.4c3.7,5.4-5.2,6.9-8.7,7.6
					c-4.9,1-9.8,1.5-14.8,1.8c-18.3,1.3-39.9-0.3-55.8,10.6c-6.5,4.5-12.5,12-10.7,20.4c1.9,8.4,10.7,12.4,18.3,14.2
					c10.4,2.5,21.1,2.3,31.7,2.2c5.3-0.1,10.7-0.2,16,0.3c3.4,0.3,8.5,1.3,9.7,5c1.7,5-4.6,9.1-8.3,10.9c-4.2,2-8.8,3.3-13.4,4.5
					c-8.3,2.2-18.2,4.5-24.1,11.2c-2.6,2.9-4.5,6.9-3.6,10.8c0.9,3.8,4.1,5.9,7.4,7.4c1.8,0.8,3.7,1.3,5.3,2.4
					c2.9,1.9,2.7,3.8,0.8,6.5c-2.7,3.9-4.6,8.2-5.4,12.8c-0.7,3.9-1.1,8.7,0.9,12.3c1.7,2.9,4.8,4.8,8,2.9c1.9-1.1,1.5-3.3,0.3-4.4
					c0.2-9.3,11.7-15.1,19.1-18.3c8.9-3.8,18.4-6,28-7.7c9.6-1.7,19.3-2.9,28.8-4.8c9-1.8,18.5-3.9,26.7-8.2
					c6.5-3.4,13.7-9.5,13.4-17.6c-0.3-8.4-7.9-12.8-14.5-16.2c-3.9-2-8.3-4.2-10.6-8.1c-2.9-4.7,0.1-9,3.9-12
					c6.7-5.4,15.4-7.1,23.8-8c8.5-0.8,17.1-0.9,25.5-2.1c8-1.1,17.2-3.3,22.9-9.4c5.1-5.4,5.2-12.8-0.4-17.8
					c-2.3-2.1-5.1-3.6-7.7-5.3c-2.2-1.4-4.9-3.2-5.7-5.9c-1.3-4.7,4.1-8.5,7.7-10.3c4.2-2.1,9-3,13.7-3.6
					c10.2-1.2,20.3-1.6,30.4-3.2c10.9-1.8,21.6-4.3,32.2-7.6c7.9-2.5,17-6.2,19.1-15.2C554.2,256.6,546.3,250,539.2,246.4z"/>
			</g>
		</mask>
		<linearGradient id="SVGID_5_" gradientUnits="userSpaceOnUse" x1="251.6703" y1="346.2594" x2="552.4836" y2="346.2594">
			<stop  offset="0" style="stop-color:#D9F8FF"/>
			<stop  offset="1" style="stop-color:#FFFFFF"/>
		</linearGradient>
		<path class="st6" d="M539.2,246.4c-8.2-4.1-17.4-5.6-26.5-5.8c-10.3-0.3-20.6,0.7-30.9,1.3c-11.6,0.7-23.1,1.3-34.7,1.8
			c-22.9,1.1-45.9,1.7-68.8,2.2c-20.8,0.5-41.8,1.1-62.2,5.5c-9.9,2.1-19.8,5.2-29,9.5c-7.6,3.6-15.3,10.2-14.7,19.5
			c0.5,8.3,8.2,12.5,15.6,14c9.1,1.8,18.5,1.6,27.6,2.8c4.8,0.6,9.7,1.5,14.3,3.1c4.1,1.4,9.5,3.7,12,7.4c3.7,5.4-5.2,6.9-8.7,7.6
			c-4.9,1-9.8,1.5-14.8,1.8c-18.3,1.3-39.9-0.3-55.8,10.6c-6.5,4.5-12.5,12-10.7,20.4c1.9,8.4,10.7,12.4,18.3,14.2
			c10.4,2.5,21.1,2.3,31.7,2.2c5.3-0.1,10.7-0.2,16,0.3c3.4,0.3,8.5,1.3,9.7,5c1.7,5-4.6,9.1-8.3,10.9c-4.2,2-8.8,3.3-13.4,4.5
			c-8.3,2.2-18.2,4.5-24.1,11.2c-2.6,2.9-4.5,6.9-3.6,10.8c0.9,3.8,4.1,5.9,7.4,7.4c1.8,0.8,3.7,1.3,5.3,2.4
			c2.9,1.9,2.7,3.8,0.8,6.5c-2.7,3.9-4.6,8.2-5.4,12.8c-0.7,3.9-1.1,8.7,0.9,12.3c1.7,2.9,4.8,4.8,8,2.9c1.9-1.1,1.5-3.3,0.3-4.4
			c0.2-9.3,11.7-15.1,19.1-18.3c8.9-3.8,18.4-6,28-7.7c9.6-1.7,19.3-2.9,28.8-4.8c9-1.8,18.5-3.9,26.7-8.2
			c6.5-3.4,13.7-9.5,13.4-17.6c-0.3-8.4-7.9-12.8-14.5-16.2c-3.9-2-8.3-4.2-10.6-8.1c-2.9-4.7,0.1-9,3.9-12c6.7-5.4,15.4-7.1,23.8-8
			c8.5-0.8,17.1-0.9,25.5-2.1c8-1.1,17.2-3.3,22.9-9.4c5.1-5.4,5.2-12.8-0.4-17.8c-2.3-2.1-5.1-3.6-7.7-5.3
			c-2.2-1.4-4.9-3.2-5.7-5.9c-1.3-4.7,4.1-8.5,7.7-10.3c4.2-2.1,9-3,13.7-3.6c10.2-1.2,20.3-1.6,30.4-3.2
			c10.9-1.8,21.6-4.3,32.2-7.6c7.9-2.5,17-6.2,19.1-15.2C554.2,256.6,546.3,250,539.2,246.4z"/>
		<polygon class="st7" points="342.5,727 251.7,727 273,437.8 321.2,437.8 		"/>
		<g>
			<polygon class="st8" points="251.7,727 273,437.8 297.1,437.8 297.1,727 			"/>
		</g>
		
			<rect x="269.6" y="462.2" transform="matrix(-1 -1.224647e-16 1.224647e-16 -1 595.4019 930.5418)" class="st9" width="56.3" height="6.2"/>
		
			<rect x="268.3" y="480" transform="matrix(-1 -1.224647e-16 1.224647e-16 -1 595.4022 966.2684)" class="st9" width="58.7" height="6.2"/>
	</g>
	<g class="st2">
		<defs>
			<filter id="Adobe_OpacityMaskFilter_2_" filterUnits="userSpaceOnUse" x="330.6" y="190" width="490.4" height="344.8">
				<feFlood  style="flood-color:white;flood-opacity:1" result="back"/>
				<feBlend  in="SourceGraphic" in2="back" mode="normal"/>
			</filter>
		</defs>
		<mask maskUnits="userSpaceOnUse" x="330.6" y="190" width="490.4" height="344.8" id="SVGID_6_">
			<g class="st10">
				<defs>
					<filter id="Adobe_OpacityMaskFilter_3_" filterUnits="userSpaceOnUse" x="330.6" y="190" width="490.4" height="344.8">
						<feFlood  style="flood-color:white;flood-opacity:1" result="back"/>
						<feBlend  in="SourceGraphic" in2="back" mode="normal"/>
					</filter>
				</defs>
				<mask maskUnits="userSpaceOnUse" x="330.6" y="190" width="490.4" height="344.8" id="SVGID_6_">
					<g class="st11">
					</g>
				</mask>
				<linearGradient id="SVGID_7_" gradientUnits="userSpaceOnUse" x1="330.6376" y1="362.397" x2="821.0572" y2="362.397">
					<stop  offset="0" style="stop-color:#FFFFFF"/>
					<stop  offset="1" style="stop-color:#000000"/>
				</linearGradient>
				<path class="st12" d="M799.4,199.6c-13.3-6.8-28.3-9.1-43.2-9.5c-16.8-0.5-33.6,1.1-50.3,2.1c-18.9,1.1-37.7,2.1-56.6,3
					c-37.4,1.7-74.8,2.8-112.2,3.6c-33.9,0.7-68.2,1.8-101.5,9c-16.2,3.5-32.3,8.4-47.3,15.6c-12.4,5.9-24.9,16.6-24,31.7
					c0.9,13.6,13.4,20.4,25.4,22.8c14.8,2.9,30.1,2.7,45.1,4.5c7.9,1,15.8,2.5,23.3,5.1c6.7,2.4,15.5,6,19.6,12.1
					c6,8.8-8.5,11.2-14.2,12.4c-7.9,1.6-16,2.4-24.1,3c-29.8,2.1-65-0.5-90.9,17.2c-10.7,7.3-20.4,19.6-17.4,33.2
					c3,13.7,17.5,20.2,29.8,23.2c16.9,4.1,34.5,3.7,51.7,3.5c8.7-0.1,17.5-0.4,26.1,0.5c5.5,0.6,13.8,2.1,15.9,8.2
					c2.7,8.1-7.5,14.8-13.5,17.7c-6.9,3.3-14.4,5.3-21.8,7.3c-13.5,3.6-29.6,7.3-39.3,18.2c-4.2,4.7-7.4,11.2-5.8,17.6
					c1.5,6.1,6.6,9.7,12.1,12c2.9,1.2,6,2.1,8.7,3.9c4.8,3.2,4.3,6.2,1.3,10.6c-4.4,6.3-7.5,13.3-8.8,20.9c-1.1,6.4-1.8,14.1,1.5,20
					c2.7,4.8,7.9,7.8,13,4.7c3-1.8,2.5-5.4,0.5-7.2c0.3-15.1,19.1-24.7,31.2-29.8c14.6-6.2,30.1-9.8,45.6-12.6
					c15.6-2.8,31.4-4.8,47-7.9c14.7-2.9,30.2-6.4,43.6-13.4c10.6-5.5,22.3-15.6,21.8-28.7c-0.5-13.6-12.8-20.9-23.7-26.4
					c-6.4-3.2-13.5-6.8-17.3-13.2c-4.7-7.7,0.1-14.7,6.3-19.6c11-8.7,25.2-11.6,38.8-13c13.8-1.4,27.8-1.4,41.6-3.4
					c13-1.9,28-5.4,37.3-15.4c8.3-8.9,8.4-20.8-0.7-29c-3.8-3.4-8.2-5.9-12.5-8.6c-3.6-2.3-8-5.2-9.3-9.6
					c-2.1-7.7,6.7-13.8,12.6-16.7c6.9-3.5,14.7-4.9,22.4-5.8c16.6-1.9,33.1-2.6,49.6-5.3c17.7-2.9,35.3-7,52.4-12.3
					c12.9-4,27.8-10.1,31.2-24.7C823.9,216.3,811,205.5,799.4,199.6z"/>
			</g>
		</mask>
		<linearGradient id="SVGID_8_" gradientUnits="userSpaceOnUse" x1="330.6376" y1="362.397" x2="821.0572" y2="362.397">
			<stop  offset="0" style="stop-color:#D9F8FF"/>
			<stop  offset="1" style="stop-color:#FFFFFF"/>
		</linearGradient>
		<path class="st13" d="M799.4,199.6c-13.3-6.8-28.3-9.1-43.2-9.5c-16.8-0.5-33.6,1.1-50.3,2.1c-18.9,1.1-37.7,2.1-56.6,3
			c-37.4,1.7-74.8,2.8-112.2,3.6c-33.9,0.7-68.2,1.8-101.5,9c-16.2,3.5-32.3,8.4-47.3,15.6c-12.4,5.9-24.9,16.6-24,31.7
			c0.9,13.6,13.4,20.4,25.4,22.8c14.8,2.9,30.1,2.7,45.1,4.5c7.9,1,15.8,2.5,23.3,5.1c6.7,2.4,15.5,6,19.6,12.1
			c6,8.8-8.5,11.2-14.2,12.4c-7.9,1.6-16,2.4-24.1,3c-29.8,2.1-65-0.5-90.9,17.2c-10.7,7.3-20.4,19.6-17.4,33.2
			c3,13.7,17.5,20.2,29.8,23.2c16.9,4.1,34.5,3.7,51.7,3.5c8.7-0.1,17.5-0.4,26.1,0.5c5.5,0.6,13.8,2.1,15.9,8.2
			c2.7,8.1-7.5,14.8-13.5,17.7c-6.9,3.3-14.4,5.3-21.8,7.3c-13.5,3.6-29.6,7.3-39.3,18.2c-4.2,4.7-7.4,11.2-5.8,17.6
			c1.5,6.1,6.6,9.7,12.1,12c2.9,1.2,6,2.1,8.7,3.9c4.8,3.2,4.3,6.2,1.3,10.6c-4.4,6.3-7.5,13.3-8.8,20.9c-1.1,6.4-1.8,14.1,1.5,20
			c2.7,4.8,7.9,7.8,13,4.7c3-1.8,2.5-5.4,0.5-7.2c0.3-15.1,19.1-24.7,31.2-29.8c14.6-6.2,30.1-9.8,45.6-12.6
			c15.6-2.8,31.4-4.8,47-7.9c14.7-2.9,30.2-6.4,43.6-13.4c10.6-5.5,22.3-15.6,21.8-28.7c-0.5-13.6-12.8-20.9-23.7-26.4
			c-6.4-3.2-13.5-6.8-17.3-13.2c-4.7-7.7,0.1-14.7,6.3-19.6c11-8.7,25.2-11.6,38.8-13c13.8-1.4,27.8-1.4,41.6-3.4
			c13-1.9,28-5.4,37.3-15.4c8.3-8.9,8.4-20.8-0.7-29c-3.8-3.4-8.2-5.9-12.5-8.6c-3.6-2.3-8-5.2-9.3-9.6c-2.1-7.7,6.7-13.8,12.6-16.7
			c6.9-3.5,14.7-4.9,22.4-5.8c16.6-1.9,33.1-2.6,49.6-5.3c17.7-2.9,35.3-7,52.4-12.3c12.9-4,27.8-10.1,31.2-24.7
			C823.9,216.3,811,205.5,799.4,199.6z"/>
		<polygon class="st14" points="473.2,861.7 329.6,861.7 363.3,520.6 439.5,520.6 		"/>
		<g>
			<polygon class="st15" points="329.6,861.7 363.3,520.6 401.4,520.6 401.4,861.7 			"/>
		</g>
		
			<rect x="357.9" y="545" transform="matrix(-1 -1.224647e-16 1.224647e-16 -1 804.7944 1096.1218)" class="st9" width="89" height="6.2"/>
		
			<rect x="356" y="562.8" transform="matrix(-1 -1.224647e-16 1.224647e-16 -1 804.7944 1131.8481)" class="st9" width="92.8" height="6.2"/>
	</g>
	<g class="st2">
		<g>
			<g>
				<polygon class="st16" points="898,550.2 890.1,550.2 884.7,930.5 903.2,930.5 				"/>
				<path class="st17" d="M888.3,517l-11.1,18.4c-2.6,4.4,0.5,10,5.6,10h22.3c5.1,0,8.3-5.6,5.6-10L899.6,517
					C897,512.8,890.9,512.8,888.3,517z"/>
				<g>
					<path class="st18" d="M834.7,561.2l40.2-18.2l-92,64.4c-1.5,1-3.1-1.1-1.7-2.3L834.7,561.2z"/>
					<path class="st16" d="M844,574.5l30.9-31.5l-92,64.4c-1.5,1,0,3.3,1.5,2.4L844,574.5z"/>
				</g>
				<g>
					<path class="st16" d="M953.2,561.2L913,543l92,64.4c1.5,1,3.1-1.1,1.7-2.3L953.2,561.2z"/>
					<path class="st18" d="M943.9,574.5L913,543l92,64.4c1.5,1,0,3.3-1.5,2.4L943.9,574.5z"/>
				</g>
				<g>
					<path class="st18" d="M902.1,466.9l-8.1,43.4V398c0-1.8,2.7-1.9,2.8-0.1L902.1,466.9z"/>
					<path class="st16" d="M885.8,466.9l8.1,43.4V398c0-1.8-2.7-1.9-2.8-0.1L885.8,466.9z"/>
				</g>
			</g>
			<g>
				<path class="st19" d="M886.4,535.2c4.4-0.9,8.7-3.1,11.6-6.5c2-2.3,3.3-5.2,3.7-8.2l-2.1-3.5c-2.6-4.2-8.7-4.2-11.2,0
					l-11.1,18.3C880.2,535.8,883.4,535.8,886.4,535.2z"/>
				<path class="st20" d="M886.4,535.2c-3,0.6-6.1,0.6-9.1,0.1l-0.1,0.1c-2.7,4.4,0.5,10,5.6,10h22.3c5.1,0,8.3-5.6,5.6-10l-9-14.9
					c-0.4,3-1.7,5.9-3.7,8.2C895,532.1,890.8,534.3,886.4,535.2z"/>
			</g>
		</g>
		<g>
			<g>
				<polygon class="st16" points="785.1,486.5 775.7,486.5 769.2,941.5 791.4,941.5 				"/>
				<path class="st17" d="M773.6,446.8l-13.3,22c-3.2,5.2,0.6,11.9,6.7,11.9h26.7c6.1,0,9.9-6.7,6.7-11.9l-13.3-22
					C783.9,441.8,776.6,441.8,773.6,446.8z"/>
				<g>
					<path class="st18" d="M709.4,499.7l48.1-21.8l-116,81.1c-1.5,1-3.1-1.1-1.7-2.3L709.4,499.7z"/>
					<path class="st16" d="M720.5,515.6l37-37.7l-116,81.1c-1.5,1,0,3.3,1.5,2.4L720.5,515.6z"/>
				</g>
				<g>
					<path class="st16" d="M851.2,499.7l-48.1-21.8L919,559c1.5,1,3.1-1.1,1.7-2.3L851.2,499.7z"/>
					<path class="st18" d="M840,515.6l-37-37.7L919,559c1.5,1,0,3.3-1.5,2.4L840,515.6z"/>
				</g>
				<g>
					<path class="st18" d="M790,386.9l-9.7,51.9V297.3c0-1.8,2.7-1.9,2.8-0.1L790,386.9z"/>
					<path class="st16" d="M770.6,386.9l9.7,51.9V297.3c0-1.8-2.7-1.9-2.8-0.1L770.6,386.9z"/>
				</g>
			</g>
			<g>
				<path class="st19" d="M771.2,468.6c5.3-1.1,10.4-3.7,13.9-7.8c2.4-2.8,3.9-6.2,4.4-9.8l-2.5-4.2c-3.1-5-10.4-5-13.4,0
					l-13.3,21.9C763.9,469.3,767.6,469.3,771.2,468.6z"/>
				<path class="st20" d="M771.2,468.6c-3.6,0.7-7.3,0.7-10.9,0.1l-0.1,0.1c-3.2,5.2,0.6,11.9,6.7,11.9h26.7c6.1,0,9.9-6.7,6.7-11.9
					L789.5,451c-0.5,3.6-2.1,7-4.4,9.8C781.6,464.9,776.5,467.5,771.2,468.6z"/>
			</g>
		</g>
		<g>
			<g>
				<polygon class="st16" points="701.1,670.4 695.8,670.4 692,930.7 704.7,930.7 				"/>
				<path class="st17" d="M694.5,647.7l-7.6,12.6c-1.8,3,0.3,6.8,3.8,6.8H706c3.5,0,5.7-3.8,3.8-6.8l-7.6-12.6
					C700.5,644.8,696.3,644.8,694.5,647.7z"/>
				<g>
					<path class="st18" d="M657.8,677.9l27.5-12.5l-53.5,37.4c-1.5,1-3.1-1.1-1.7-2.3L657.8,677.9z"/>
					<path class="st16" d="M664.2,687l21.1-21.6l-53.5,37.4c-1.5,1,0,3.3,1.5,2.4L664.2,687z"/>
				</g>
				<g>
					<path class="st16" d="M739,677.9l-27.5-12.5l53.5,37.4c1.5,1,3.1-1.1,1.7-2.3L739,677.9z"/>
					<path class="st18" d="M732.6,687l-21.1-21.6l53.5,37.4c1.5,1,0,3.3-1.5,2.4L732.6,687z"/>
				</g>
				<g>
					<path class="st18" d="M704,613.4l-5.6,29.7v-65.2c0-1.8,2.7-1.9,2.8-0.1L704,613.4z"/>
					<path class="st16" d="M692.8,613.4l5.6,29.7v-65.2c0-1.8-2.7-1.9-2.8-0.1L692.8,613.4z"/>
				</g>
			</g>
			<g>
				<path class="st19" d="M693.2,660.1c3-0.6,5.9-2.1,8-4.5c1.3-1.6,2.2-3.5,2.5-5.6l-1.5-2.4c-1.7-2.9-5.9-2.9-7.7,0l-7.6,12.5
					C689,660.6,691.1,660.5,693.2,660.1z"/>
				<path class="st20" d="M693.2,660.1c-2.1,0.4-4.2,0.4-6.2,0.1l0,0.1c-1.8,3,0.3,6.8,3.8,6.8H706c3.5,0,5.7-3.8,3.8-6.8l-6.2-10.2
					c-0.3,2-1.2,4-2.5,5.6C699.1,658,696.2,659.5,693.2,660.1z"/>
			</g>
		</g>
	</g>
	<g class="st2">
		<path class="st19" d="M-64.1,897.8c-6-42.2-13.4-84.4-26.8-122.4c-13.4-38.1-33.4-72.1-59.3-90.2c-21-14.7-44.6-18.2-67.7-17
			c-25.6,1.4-51.5,8.6-74.2,26.6c-8.7,6.9-16.8,15.4-24.3,24.9c1,2,1.7,4.7,2.1,8c1.9,15.5,0.8,31.1,3.5,46.7
			c2.8,16.2,7.6,32,14.1,47.1c7.3,17,16.8,33,28.4,47.4c34.8,43.2,87.5,71.4,142.7,76.3c4.1,0.4,8.4,0.7,11.8,3
			c1.4,0.9,2.4,2.3,3.1,3.9c3.9,0.1,7.9,0.3,11.8,0.4c12.6,0.5,27.8-1.2,34-17.8C-60.8,923.7-62.3,910.1-64.1,897.8z"/>
	</g>
	<g class="st2">
		<path class="st21" d="M1221.3,809.4c-18.8-23.4-40.7-45.5-67.6-63.1c-26.9-17.6-59.1-30.7-93.5-34.9
			c-52.8-6.4-107.5,8.8-149.4,35.2c-41.9,26.4-72.1,63.2-94.1,102c-5.8,10.3-11.2,20.9-13,32.2c-1.8,11.2,0.2,23.2,8.2,32.5
			c12.9,15.2,36.9,22.5,60.2,23.5c135.1,5.4,233.6,6,353,2.2c16.8-0.5,33.8-4.7,48.2-11.6c16.7-8,4.6-22.5-0.9-34.7
			C1259.4,863.6,1242.2,835.5,1221.3,809.4z"/>
		<g>
			<path class="st22" d="M1172.9,772.9c9.5,18.6,13.1,38.2,7.3,57.3c-3.3,10.8-9.6,21.3-19.1,31c-27.4,27.8-79.5,47.1-135.4,57.8
				c-55.4,10.6-114.9,13.5-173.7,15.5c6.5,1.4,13.3,2.2,20,2.5c135.1,5.4,233.6,6,353,2.2c16.8-0.5,33.8-4.7,48.2-11.6
				c16.7-8,4.6-22.5-0.9-34.7c-13-29.2-30.2-57.2-51.1-83.3c-18.5-23.1-40.2-44.9-66.6-62.4c1.7,3.8,7.3,8.4,9.7,11.8
				C1167.6,763.4,1170.4,768.1,1172.9,772.9z"/>
		</g>
	</g>
	<g class="st2">
		<path class="st9" d="M339.2,655.1c59.6-30,141.4-50.5,222.8-44.9c65,4.5,123.3,25.1,166,51.5c42.7,26.4,71.4,58.4,95.4,90.8
			c28.1,37.8,50.5,76.8,67.1,116.4c6.7,16,17.8,45.9-1.8,58.6c-16.8,10.9-45.7,13.5-72.1,15.1c-130.7,7.9-269.2-2.2-400.2-8
			c-64.8-2.9-133.7-8.4-182-31.6C88.3,833.1,230,710,339.2,655.1z"/>
		<g>
			<path class="st23" d="M805.3,931.9c-142.7,0.3-285.5-16.2-414.9-48c-35.9-8.8-72.4-19.6-93.8-37.2
				c-17.8-14.7-23.3-32.8-21.4-50.2c1.9-17.4,10.7-34.4,19.4-51.2c15.7-30.2,31.4-60.4,47-90.6c-0.8,0.4-1.6,0.8-2.4,1.2
				C230,710.8,88.3,833.9,234.4,903.8c48.3,23.1,117.2,28.7,182,31.6c131.1,5.8,269.6,16,400.2,8c16.3-1,33.5-2.4,48.3-5.9
				c-4.4-1.5-9.3-2.8-14.3-3.6C836,931.6,820.5,931.8,805.3,931.9z"/>
		</g>
	</g>
	<g class="st2">
		<path class="st24" d="M183.3,806c-1.6-5.7,2.5-11.3,6.5-15.2c4-4,8.6-8.6,8.3-14.6c-0.3-5.4-4.8-9.6-9.5-11.2
			c-4.7-1.7-9.7-1.6-14.6-2.7c-4.8-1.1-9.9-3.8-11.7-8.8c-2.1-5.7,0.6-12.4,4.7-16.5c4.1-4.1,9.4-6.5,14.3-9.5
			c4.9-3,9.6-7.2,11.2-13.1c2.3-8.7-3.5-18.1-11-21.7c-7.5-3.7-16.1-3-24.2-1.6c-6.4,1.1-14.3,1.8-17.7-4.2
			c-2.1-3.7-1.4-8.5,0.2-12.5c1.6-3.9,4.1-7.4,5.8-11.3c4.1-10,1.4-22.7-6.1-29.8c-8.2-7.7-21.5-7.7-29.6,0
			c-8.2,7.7-10.2,22.2-4.4,32.2c3.4,5.9,9.3,11,9.1,18c-0.3,7.3-7,11.8-12.9,15c-5.9,3.2-12.7,7.5-13.2,14.8
			c-0.5,7.3,5.8,12.9,11.6,16.4c5.8,3.6,12.5,7.6,14,14.7c1.6,7.7-3.8,15-9.4,20.1c-5.6,5.2-11.8,9.7-17.1,15.2
			c-5.3,5.6-9.8,12.5-11.1,20.4c-1.3,8,1.4,17,7.7,21.1c4,2.6,8.8,2.9,13.4,3.9c4.6,1,9.4,3,11.6,7.6c1.6,3.3,1.4,7.2,2,10.8
			c1.2,7.2,5.5,13.6,11.4,17c6.8,3.8,11.9,1.5,18.8,0.9c7-0.5,12.6,0.8,19.3-2.7c3.5-1.9,6.7-4.4,9.8-7c6.1-4.9,12.1-9.9,18.2-14.8
			c4.5-3.6,9.4-8.7,8.2-14.7C195.1,815,185.3,813.1,183.3,806z"/>
		<polygon class="st25" points="171.9,817.4 170.1,816 144.6,834.7 144.1,781.9 140.4,781.9 140.1,810.6 114.8,792.1 113,793.4 
			140,815.3 138.9,942.5 145.6,942.5 144.7,839.4 		"/>
	</g>
	<g class="st2">
		<path class="st26" d="M249.3,719.1c65.9-18.2,141.6-5.4,199,26.2c57.5,31.6,98,80.1,123.1,132.1c3.9,8.1,7.5,16.5,7.8,25.2
			c0.3,8.7-3.3,17.9-11.6,23.5c-7.2,4.9-16.9,6.7-26.3,7.9c-108.2,13.5-212.4,15.3-332.7,10.1c-38.1-1.6-78.1-9-104.7-30.7
			c-17.5-14.3-26.9-34.7-25-54.7c2.9-32.1,38.3-57.5,64.3-79.9C172.7,753.3,207.6,730.6,249.3,719.1z"/>
		<g>
			<path class="st26" d="M537.7,927.7c-8.6-1.2-17.6-0.7-26.5-0.2c-58.8,2.9-119.2,1.9-175-8.2c-55.8-10.2-106.7-30.4-132.3-58.5
				c-13.3-14.6-19.2-30.7-20.7-46.7c-1.3-14.7,1.5-29.3,4.6-43.9c1.6-7.6,4-16.6,0.7-24.5c-16.4,9.9-31.5,21.3-45.4,33.3
				c-25.9,22.4-61.3,47.7-64.3,79.9c-1.8,19.9,7.6,40.4,25.1,54.7c26.5,21.7,66.6,29.1,104.7,30.7c120.3,5.2,224.5,3.3,332.7-10.1
				c3.6-0.4,7.2-1,10.7-1.8C548.4,930,543.1,928.4,537.7,927.7z"/>
		</g>
	</g>
	<g class="st2">
		<path class="st24" d="M0.9,842.1c1.1-4.4-1.6-8.8-4.3-11.9c-2.7-3.1-5.7-6.7-5.5-11.4c0.2-4.2,3.2-7.5,6.3-8.8
			c3.1-1.3,6.5-1.3,9.7-2.1s6.5-3,7.8-6.9c1.4-4.4-0.4-9.7-3.1-12.9c-2.7-3.2-6.3-5.1-9.5-7.4c-3.2-2.4-6.4-5.6-7.4-10.2
			c-1.5-6.8,2.3-14.1,7.3-17c5-2.9,10.7-2.3,16.1-1.2c4.2,0.9,9.5,1.4,11.8-3.3c1.4-2.9,0.9-6.7-0.2-9.7c-1.1-3.1-2.7-5.8-3.8-8.9
			c-2.7-7.8-0.9-17.8,4.1-23.3c5.4-6,14.2-6,19.6,0c5.4,6,6.8,17.4,2.9,25.2c-2.3,4.6-6.2,8.6-6,14c0.2,5.7,4.6,9.2,8.6,11.7
			c3.9,2.5,8.4,5.9,8.8,11.6c0.3,5.7-3.8,10-7.7,12.8c-3.8,2.8-8.3,5.9-9.3,11.5c-1.1,6.1,2.5,11.7,6.2,15.7
			c3.7,4.1,7.8,7.6,11.3,11.9c3.5,4.3,6.5,9.7,7.4,16c0.8,6.2-0.9,13.3-5.1,16.5c-2.7,2-5.9,2.3-8.9,3.1c-3,0.8-6.2,2.4-7.7,5.9
			c-1,2.6-0.9,5.6-1.3,8.4c-0.8,5.6-3.6,10.7-7.5,13.3c-4.5,3-7.9,1.1-12.4,0.7c-4.6-0.4-8.3,0.7-12.8-2.1c-2.3-1.4-4.4-3.5-6.5-5.5
			c-4-3.9-8-7.7-12.1-11.6c-3-2.8-6.3-6.8-5.4-11.5C-7,849.1-0.5,847.7,0.9,842.1z"/>
		<polygon class="st27" points="8.4,851 9.6,849.9 26.5,864.6 26.8,823.3 29.3,823.3 29.5,845.7 46.3,831.2 47.5,832.3 29.5,849.4 
			30.3,948.7 25.9,948.7 26.5,868.2 		"/>
	</g>
	<g class="st2">
		<path class="st28" d="M35,850.7c0.8-4.2,2.8-8.2,2.2-12.5c-0.7-5.2-5.2-8.9-9.8-10.5c-4.6-1.6-9.5-1.7-14.1-3
			c-10.8-3.1-19.6-13.4-21.7-25.5c-2.1-12.1,2.6-25.3,11.5-32.6c5.6-4.6,12.5-6.8,18.6-10.5c6.1-3.7,11.9-9.6,12.4-17.3
			c0.5-7.9-4.7-15-10.6-19.6c-5.8-4.7-12.6-8-17.6-13.7c-11.3-12.9-8.9-36.9,4.6-46.9c6.5-4.8,14.4-6.4,21.5-9.9
			c7.1-3.5,14-10.4,13.8-19c-0.2-9.2-8-15.5-13.2-22.8c-10.3-14.4-9.8-36.9,1.1-50.8c10.9-13.9,30.9-17.7,45.4-8.6
			c14.5,9.1,21.7,30,16.4,47.4c-2.3,7.5-6.5,14.1-9.3,21.4c-2.8,7.3-4.1,16.1-0.4,22.8c8.8,16.2,35,6.8,45.7,21.5
			c6.2,8.4,4,21.2-1.2,30.4c-5.2,9.2-13,16.2-18.6,25.1c-5.6,8.9-8.9,21.1-3.9,30.4c3.6,6.8,10.6,10.3,16.6,14.6
			c6,4.4,11.7,11.4,10.3,19.1c-2.5,13.8-23.5,14.4-26.8,28c-2,8.1,3.7,15.8,5.5,24C124,881.8,26.2,894.7,35,850.7z"/>
		<polygon class="st24" points="98.7,815.3 96.8,813.8 69.9,833.6 69.4,777.8 65.4,777.8 65.1,808.1 38.4,788.5 36.5,790 65,813.1 
			63.9,947.4 70.9,947.4 70,838.6 		"/>
	</g>
	<g class="st2">
		<path class="st29" d="M810.2,844.4c-1.3-4.1,2-8.2,5.2-11.2s7-6.3,6.7-10.6c-0.2-4-3.9-7-7.7-8.2c-3.8-1.2-7.9-1.2-11.8-2
			c-3.9-0.8-8-2.8-9.5-6.4c-1.7-4.2,0.5-9.1,3.8-12.1c3.3-3,7.6-4.7,11.6-6.9c3.9-2.2,7.8-5.3,9-9.6c1.9-6.4-2.8-13.2-8.8-15.9
			c-6.1-2.7-13-2.2-19.6-1.2c-5.1,0.8-11.6,1.3-14.3-3.1c-1.7-2.7-1.1-6.2,0.2-9.1c1.3-2.9,3.3-5.4,4.6-8.3c3.3-7.3,1.2-16.6-5-21.8
			c-6.6-5.6-17.3-5.6-23.9,0c-6.6,5.6-8.2,16.3-3.6,23.6c2.7,4.3,7.5,8,7.3,13.1c-0.2,5.3-5.6,8.7-10.4,11
			c-4.8,2.3-10.3,5.5-10.7,10.8c-0.4,5.4,4.6,9.4,9.3,12c4.7,2.6,10.1,5.5,11.3,10.8c1.3,5.7-3.1,11-7.6,14.7
			c-4.5,3.8-9.5,7.1-13.8,11.2c-4.3,4.1-7.9,9.1-9,14.9c-1,5.8,1.2,12.5,6.2,15.4c3.2,1.9,7.1,2.1,10.8,2.9c3.7,0.7,7.6,2.2,9.4,5.5
			c1.3,2.4,1.1,5.2,1.6,7.9c0.9,5.3,4.4,10,9.2,12.4c5.4,2.8,9.6,1.1,15.1,0.7c5.6-0.4,10.2,0.6,15.6-2c2.8-1.4,5.4-3.2,7.9-5.1
			c4.9-3.6,9.8-7.2,14.7-10.8c3.6-2.7,7.6-6.4,6.6-10.7C819.8,851,811.9,849.6,810.2,844.4z"/>
		<polygon class="st27" points="801.1,852.8 799.6,851.8 779.1,865.5 778.7,826.8 775.6,826.8 775.4,847.8 755,834.2 753.6,835.3 
			775.4,851.3 774.5,944.3 779.8,944.3 779.1,868.9 		"/>
	</g>
	<g class="st2">
		<path class="st28" d="M789.4,889.3c0.5-2.5,1.8-4.9,1.5-7.4c-0.5-3.1-3.4-5.3-6.4-6.2c-3-0.9-6.2-1-9.2-1.8
			c-7-1.8-12.8-7.9-14.2-15.1c-1.4-7.1,1.7-15,7.5-19.3c3.7-2.7,8.1-4,12.1-6.2c4-2.2,7.8-5.7,8.1-10.2c0.4-4.7-3.1-8.9-6.9-11.6
			c-3.8-2.8-8.2-4.7-11.5-8.1c-7.4-7.6-5.8-21.9,3-27.8c4.2-2.8,9.4-3.8,14.1-5.9s9.1-6.1,9-11.2c-0.1-5.4-5.2-9.2-8.6-13.5
			c-6.7-8.5-6.4-21.8,0.7-30c7.1-8.2,20.2-10.5,29.6-5.1c9.4,5.4,14.2,17.8,10.7,28.1c-1.5,4.4-4.2,8.3-6.1,12.6
			c-1.8,4.3-2.7,9.5-0.2,13.5c5.7,9.6,22.8,4,29.8,12.7c4,5,2.6,12.6-0.8,18s-8.5,9.6-12.2,14.9c-3.7,5.3-5.8,12.5-2.5,18
			c2.4,4,6.9,6.1,10.8,8.6c3.9,2.6,7.6,6.8,6.7,11.3c-1.6,8.1-15.3,8.5-17.5,16.6c-1.3,4.8,2.4,9.4,3.6,14.2
			C847.5,907.8,783.7,915.4,789.4,889.3z"/>
		<polygon class="st24" points="831,868.4 829.8,867.5 812.2,879.2 811.9,846.2 809.3,846.2 809.1,864.1 791.7,852.5 790.4,853.4 
			809.1,867.1 808.3,946.6 812.9,946.6 812.3,882.2 		"/>
	</g>
	<g class="st2">
		<path class="st30" d="M1334.5,690.9c0.8-6.7-4-12.6-8.4-16.7c-4.4-4.1-9.6-8.9-10.1-15.7c-0.5-6.3,3.3-11.5,7.7-14
			c4.3-2.5,9.3-3,13.8-4.8c4.6-1.8,9.1-5.5,10.2-11.5c1.3-6.8-2.3-14.1-6.9-18.4c-4.6-4.3-10.1-6.3-15.3-9.2
			c-5.2-2.9-10.4-7.1-12.7-13.7c-3.5-9.7,0.9-21.1,7.7-26.2c6.8-5.1,15.3-5.3,23.4-4.7c6.3,0.5,14.2,0.4,16.7-6.9
			c1.5-4.5,0.2-10-2-14.3c-2.1-4.3-5.1-8-7.2-12.3c-5.3-11-4.5-25.9,1.9-34.9c6.9-9.7,19.8-11.3,28.8-3.5c9,7.9,13,24.3,8.8,36.4
			c-2.5,7.2-7.5,13.7-6.3,21.7c1.3,8.3,8.4,12.8,14.7,15.7c6.2,2.9,13.4,7.2,14.9,15.4c1.5,8.3-3.8,15.4-9,20.2
			c-5.2,4.8-11.1,10.2-11.6,18.6c-0.5,9.1,5.8,16.8,11.9,22c6.2,5.3,12.8,9.7,18.7,15.5c5.9,5.8,11.3,13.2,13.6,22.1
			c2.3,9,1,19.7-4.6,25.1c-3.5,3.4-8.2,4.4-12.5,6.1c-4.3,1.7-8.8,4.6-10.2,10.1c-1.1,3.9-0.4,8.4-0.4,12.6
			c-0.1,8.4-3.5,16.3-8.7,20.8c-6,5.2-11.4,3.1-18.1,3.3c-6.9,0.2-12.1,2.4-19.2-0.9c-3.7-1.7-7.1-4.3-10.5-6.9
			c-6.6-5-13.2-9.9-19.8-14.9c-4.8-3.6-10.4-8.9-10-15.9C1324.2,702.6,1333.5,699.3,1334.5,690.9z"/>
		<polygon class="st27" points="1347.2,702.7 1348.7,700.9 1376.1,719.4 1369.3,658.7 1373,658.3 1377.2,691.2 1399.2,666.9 
			1401.2,668.3 1377.9,696.6 1396.6,842.3 1390.1,843.1 1376.7,724.8 		"/>
	</g>
	<g class="st2">
		<path class="st9" d="M1419.3,695.1c-16.5-12-29.8-38.6-26.7-65.9c2.7-23.9,17.2-44.5,14.3-68.3c-2.4-20.2-16.2-32.1-28.9-39.4
			c-12.7-7.3-26.9-14.2-33.9-31.9c-8.1-20.4-2.5-48.3,9-64.6c11.5-16.3,27.3-23.4,42.7-28.2c15.4-4.8,31.3-7.9,45.5-18.3
			c14.1-10.4,26.6-30.1,27.6-53.8c0.7-16.4-4-32.7-2.5-48.9c1.6-17.1,10.2-31.3,20.5-38.9c10.2-7.6,21.9-9.4,33.3-9.1
			c19.4,0.4,39.4,6.8,54.9,24.4c15.5,17.6,25.6,48.1,21.4,76.7c-3.3,22.7-14.9,44.1-11,66.5c3.4,19.6,17.1,30.3,29.8,37.1
			c12.7,6.7,26.7,13.1,34.1,30.1c8.3,19.2,4.4,46.1-5.2,63.8c-9.6,17.7-23.8,28.3-37.6,37.5c-7.1,4.7-14.4,9.5-19.7,18.1
			c-5.3,8.6-7.8,22.1-3.8,32.1c5.5,13.8,19.3,13.3,27,24.5c9.7,14,4.9,40.5-5.9,52.4c-10.8,11.9-25,13.2-38.4,14.1
			c-27,1.8-54,3.9-81,5.4c-10.1,0.5-20.2-1.9-30.4-3.1c-6.2-0.7-12.4-1.7-18.5-3.8C1431.1,701.9,1423.9,695.1,1419.3,695.1z"/>
		<polygon class="st31" points="1559.5,621 1556.8,618.9 1518.3,647.3 1517.5,567.3 1511.8,567.3 1511.4,610.8 1473.1,582.7 
			1470.4,584.8 1511.3,617.9 1509.8,810.4 1519.8,810.4 1518.4,654.4 		"/>
	</g>
	<g class="st2">
		<path class="st21" d="M1500.1,722c-22.6-23.4-54.1-40.1-86.5-37.4c-25.8,2.2-49.5,16.6-67.2,35.6s-30.1,42.4-40.7,66.2
			c-12.3,27.7-22.5,56.5-30.3,85.8c-3.2,11.9-8.5,34-1.2,43.8c6.3,8.4,17.6,10.9,28,12.6c51.3,8.2,106.3,3,158.3,0.9
			c25.7-1,53.1-4,72.9-20.4C1593.3,859.3,1541.4,764.9,1500.1,722z"/>
		<g>
			<path class="st32" d="M1307,920c56.3,2.7,113.2-7.1,165.4-28.6c14.5-6,29.2-13.3,38.3-26.1c7.5-10.7,10.3-24.1,10.1-37.1
				c-0.2-13-3.1-25.9-6-38.6c-5.2-22.8-10.4-45.6-15.6-68.5c0.3,0.3,0.6,0.6,0.9,0.9c41.3,42.9,93.2,137.3,33.2,187
				c-19.8,16.4-47.2,19.4-72.9,20.4c-51.9,2.1-106.9,7.3-158.3-0.9c-6.4-1-13.2-2.4-18.9-5.2c1.8-1.1,3.8-1.9,5.8-2.4
				C1294.9,919.3,1301,919.7,1307,920z"/>
		</g>
	</g>
	<g class="st2">
		<path class="st9" d="M1199.9,831.2c-1.7-5.5,2.7-11,7-14.9c4.3-3.9,9.3-8.4,9-14.2c-0.3-5.3-5.2-9.3-10.2-11
			c-5.1-1.6-10.5-1.6-15.7-2.6c-5.2-1.1-10.6-3.7-12.6-8.6c-2.3-5.6,0.6-12.1,5.1-16.1c4.4-4,10.2-6.3,15.4-9.3
			c5.2-2.9,10.4-7,12.1-12.8c2.5-8.5-3.7-17.6-11.8-21.2s-17.4-2.9-26.1-1.6c-6.8,1.1-15.4,1.8-19.1-4.1c-2.2-3.6-1.5-8.3,0.3-12.2
			c1.8-3.8,4.5-7.2,6.2-11.1c4.4-9.7,1.5-22.2-6.6-29.1c-8.8-7.5-23.1-7.5-31.9,0c-8.8,7.5-11,21.7-4.8,31.4
			c3.7,5.8,10,10.7,9.7,17.5c-0.3,7.1-7.5,11.6-13.9,14.6c-6.4,3.1-13.7,7.4-14.2,14.4c-0.6,7.1,6.2,12.5,12.4,16
			c6.3,3.5,13.5,7.4,15.1,14.4c1.7,7.6-4.1,14.7-10.1,19.6c-6,5.1-12.7,9.4-18.4,14.9c-5.7,5.4-10.6,12.2-12,19.9
			c-1.4,7.8,1.5,16.6,8.3,20.6c4.3,2.5,9.5,2.9,14.4,3.8c4.9,1,10.1,3,12.5,7.4c1.7,3.2,1.5,7,2.1,10.5c1.2,7,5.9,13.3,12.2,16.6
			c7.3,3.7,12.8,1.4,20.2,0.9c7.5-0.5,13.6,0.8,20.8-2.7c3.8-1.8,7.2-4.3,10.6-6.8c6.5-4.8,13-9.6,19.6-14.5
			c4.8-3.5,10.2-8.5,8.8-14.3C1212.6,840,1202.1,838.2,1199.9,831.2z"/>
		<polygon class="st24" points="1187.6,842.4 1185.7,841 1158.3,859.3 1157.7,807.7 1153.7,807.7 1153.4,835.8 1126.2,817.6 
			1124.3,819 1153.3,840.4 1152.2,964.4 1159.3,964.4 1158.3,863.9 		"/>
	</g>
	<g class="st2">
		<path class="st28" d="M1188.1,866.9c0.9-4.2,3.1-8.3,2.5-12.6c-0.8-5.3-5.8-9-10.9-10.6c-5.1-1.6-10.6-1.7-15.7-3
			c-12-3.1-21.8-13.5-24.2-25.7c-2.4-12.2,2.8-25.5,12.8-32.9c6.2-4.6,13.9-6.9,20.7-10.6c6.8-3.7,13.2-9.7,13.8-17.5
			c0.6-8-5.2-15.1-11.7-19.8c-6.5-4.7-14-8.1-19.6-13.9c-12.5-13-9.9-37.2,5.1-47.3c7.2-4.8,16.1-6.4,24-10
			c7.9-3.6,15.6-10.4,15.4-19.1c-0.2-9.3-8.9-15.6-14.6-22.9c-11.4-14.6-10.9-37.2,1.2-51.2c12.1-14,34.4-17.8,50.5-8.7
			c16.1,9.1,24.2,30.3,18.3,47.8c-2.5,7.6-7.2,14.2-10.4,21.5c-3.1,7.3-4.5,16.2-0.4,23c9.8,16.3,38.9,6.9,50.8,21.7
			c6.9,8.5,4.5,21.4-1.4,30.6c-5.8,9.2-14.5,16.4-20.7,25.3c-6.3,8.9-9.9,21.3-4.3,30.7c4,6.8,11.8,10.3,18.4,14.7
			c6.6,4.4,13,11.5,11.4,19.3c-2.8,13.9-26.1,14.6-29.8,28.2c-2.2,8.2,4.1,16,6.1,24.2C1287.1,898.3,1178.3,911.2,1188.1,866.9z"/>
		<polygon class="st24" points="1259,831.2 1256.9,829.7 1227,849.6 1226.4,793.3 1221.9,793.3 1221.6,824 1191.9,804.1 
			1189.8,805.6 1221.5,828.9 1220.3,964.4 1228,964.4 1227,854.6 		"/>
	</g>
	<g class="st2">
		<rect x="1054.2" y="806.6" class="st33" width="137.7" height="98"/>
		<polygon class="st34" points="1054.2,904.7 1191.9,904.7 1191.9,806.6 		"/>
		<linearGradient id="SVGID_9_" gradientUnits="userSpaceOnUse" x1="1123.0712" y1="904.6684" x2="1123.0712" y2="806.6475">
			<stop  offset="0" style="stop-color:#D6D6D6"/>
			<stop  offset="0.9929" style="stop-color:#F6F6F6"/>
		</linearGradient>
		<path class="st35" d="M1187.9,806.6h-21.4l0,0h-2.8l0,0h-25.2l0,0h-2.8l0,0h-25.2l0,0h-2.8l0,0h-25.2l0,0h-2.8l0,0h-21.4h-4.1v4.1
			v27.7h0v2.8h0v28.9h0v2.8h0v27.7v4.1h4.1h21.4v0h2.8v0h25.2v0h2.8v0h25.2v0h2.8v0h25.2v0h2.8v0h21.4h4.1v-4.1v-89.9v-4.1H1187.9z
			 M1163.7,810.7v27.7h-25.2v-27.7H1163.7z M1187.9,870.1h-21.4v-28.9h21.4V870.1z M1163.7,870.1h-25.2v-28.9h25.2V870.1z
			 M1110.5,841.2h25.2v28.9h-25.2V841.2z M1107.7,870.1h-25.2v-28.9h25.2V870.1z M1135.7,810.7v27.7h-25.2v-27.7H1135.7z
			 M1107.7,810.7v27.7h-25.2v-27.7H1107.7z M1058.3,810.7h21.4v27.7h-21.4V810.7z M1058.3,841.2h21.4v28.9h-21.4V841.2z
			 M1058.3,900.6v-27.7h21.4v27.7H1058.3z M1082.5,900.6v-27.7h25.2v27.7H1082.5z M1110.5,900.6v-27.7h25.2v27.7H1110.5z
			 M1138.5,900.6v-27.7h25.2v27.7H1138.5z M1166.5,900.6v-27.7h21.4v27.7H1166.5z M1187.9,838.4h-21.4v-27.7h21.4V838.4z"/>
		<path class="st17" d="M1130.8,937h-15.4c-5.2,0-9.4,4.2-9.4,9.4l0,0h34.3l0,0C1140.2,941.2,1136,937,1130.8,937z"/>
		<rect x="1120.7" y="902.6" class="st17" width="4.7" height="36.2"/>
	</g>
	<g class="st2">
		<rect x="1238.9" y="799.5" class="st33" width="156.5" height="111.4"/>
		<polygon class="st34" points="1238.9,910.9 1395.4,910.9 1395.4,799.5 		"/>
		<linearGradient id="SVGID_10_" gradientUnits="userSpaceOnUse" x1="1317.1375" y1="910.8789" x2="1317.1375" y2="799.4573">
			<stop  offset="0" style="stop-color:#D6D6D6"/>
			<stop  offset="0.9929" style="stop-color:#F6F6F6"/>
		</linearGradient>
		<path class="st36" d="M1390.8,799.5h-24.3l0,0h-3.2l0,0h-28.6l0,0h-3.2l0,0h-28.6l0,0h-3.2l0,0H1271l0,0h-3.2l0,0h-24.3h-4.6v4.6
			v31.5h0v3.2h0v32.8h0v3.2h0v31.5v4.6h4.6h24.3v0h3.2v0h28.6v0h3.2v0h28.6v0h3.2v0h28.6v0h3.2v0h24.3h4.6v-4.6V804.1v-4.6H1390.8z
			 M1363.3,804.1v31.5h-28.6v-31.5H1363.3z M1390.8,871.6h-24.3v-32.8h24.3V871.6z M1363.3,871.6h-28.6v-32.8h28.6V871.6z
			 M1302.8,838.8h28.6v32.8h-28.6V838.8z M1299.6,871.6H1271v-32.8h28.6V871.6z M1331.4,804.1v31.5h-28.6v-31.5H1331.4z
			 M1299.6,804.1v31.5H1271v-31.5H1299.6z M1243.5,804.1h24.3v31.5h-24.3V804.1z M1243.5,838.8h24.3v32.8h-24.3V838.8z
			 M1243.5,906.3v-31.5h24.3v31.5H1243.5z M1271,906.3v-31.5h28.6v31.5H1271z M1302.8,906.3v-31.5h28.6v31.5H1302.8z M1334.6,906.3
			v-31.5h28.6v31.5H1334.6z M1366.5,906.3v-31.5h24.3v31.5H1366.5z M1390.8,835.6h-24.3v-31.5h24.3V835.6z"/>
		<path class="st17" d="M1325.9,947.6h-17.6c-5.9,0-10.7,4.8-10.7,10.7l0,0h39l0,0C1336.6,952.4,1331.8,947.6,1325.9,947.6z"/>
		<rect x="1314.4" y="908.6" class="st17" width="5.4" height="41.2"/>
	</g>
	<g class="st2">
		<g>
			<rect x="661.2" y="741.2" class="st16" width="83.9" height="205.5"/>
			<polygon class="st37" points="661.2,946.7 745.1,946.7 745.1,741.2 			"/>
			<rect x="679.2" y="804.2" class="st33" width="17.2" height="17.2"/>
			<rect x="679.2" y="840.4" class="st33" width="17.2" height="17.2"/>
			<rect x="679.2" y="876.5" class="st33" width="17.2" height="17.2"/>
			<rect x="679.2" y="912.7" class="st33" width="17.2" height="17.2"/>
			<rect x="713.6" y="840.4" class="st33" width="17.2" height="17.2"/>
			<rect x="713.6" y="876.5" class="st33" width="17.2" height="17.2"/>
			<rect x="713.6" y="912.7" class="st33" width="17.2" height="17.2"/>
		</g>
		<rect x="427.2" y="685.3" class="st16" width="144.6" height="261.4"/>
		<polygon class="st37" points="427.2,946.7 571.8,946.7 571.8,685.3 		"/>
		<rect x="448" y="700.4" class="st33" width="17.2" height="17.2"/>
		<rect x="448" y="736.6" class="st33" width="17.2" height="17.2"/>
		<rect x="448" y="772.7" class="st33" width="17.2" height="17.2"/>
		<rect x="448" y="808.9" class="st33" width="17.2" height="17.2"/>
		<rect x="448" y="845" class="st33" width="17.2" height="17.2"/>
		<rect x="482.3" y="736.6" class="st33" width="17.2" height="17.2"/>
		<rect x="482.3" y="772.7" class="st33" width="17.2" height="17.2"/>
		<rect x="482.3" y="808.9" class="st33" width="17.2" height="17.2"/>
		<rect x="482.3" y="845" class="st33" width="17.2" height="17.2"/>
		<rect x="482.3" y="881.2" class="st33" width="17.2" height="17.2"/>
		<g>
			<rect x="546.2" y="787.3" class="st16" width="144" height="159.4"/>
			<polygon class="st37" points="546.2,946.7 690.2,946.7 690.2,787.3 			"/>
			<rect x="564.2" y="804.2" class="st33" width="17.2" height="17.2"/>
			<rect x="564.2" y="840.4" class="st33" width="17.2" height="17.2"/>
			<rect x="564.2" y="876.5" class="st33" width="17.2" height="17.2"/>
			<rect x="564.2" y="912.7" class="st33" width="17.2" height="17.2"/>
			<rect x="598.6" y="840.4" class="st33" width="17.2" height="17.2"/>
			<rect x="598.6" y="876.5" class="st33" width="17.2" height="17.2"/>
			<rect x="598.6" y="912.7" class="st33" width="17.2" height="17.2"/>
		</g>
	</g>
	<g class="st2">
		<path class="st24" d="M421.7,875.9c-1-3.1,1.5-6.2,3.9-8.4c2.4-2.2,5.2-4.8,5.1-8c-0.2-3-2.9-5.3-5.8-6.2
			c-2.9-0.9-5.9-0.9-8.9-1.5c-2.9-0.6-6-2.1-7.1-4.9c-1.3-3.1,0.4-6.8,2.9-9.1c2.5-2.3,5.7-3.6,8.7-5.2c3-1.7,5.9-4,6.8-7.2
			c1.4-4.8-2.1-10-6.7-12c-4.6-2-9.8-1.7-14.7-0.9c-3.9,0.6-8.7,1-10.8-2.3c-1.3-2-0.9-4.7,0.1-6.9c1-2.2,2.5-4.1,3.5-6.3
			c2.5-5.5,0.9-12.5-3.7-16.4c-5-4.2-13.1-4.2-18,0c-5,4.2-6.2,12.3-2.7,17.8c2.1,3.3,5.7,6,5.5,9.9c-0.2,4-4.3,6.5-7.9,8.3
			c-3.6,1.7-7.7,4.2-8,8.2c-0.3,4,3.5,7.1,7,9.1c3.5,2,7.6,4.2,8.5,8.1c1,4.3-2.3,8.3-5.7,11.1c-3.4,2.9-7.2,5.3-10.4,8.4
			c-3.2,3.1-6,6.9-6.8,11.3c-0.8,4.4,0.9,9.4,4.7,11.6c2.4,1.4,5.4,1.6,8.2,2.2c2.8,0.5,5.7,1.7,7.1,4.2c1,1.8,0.9,4,1.2,6
			c0.7,4,3.3,7.5,6.9,9.4c4.1,2.1,7.2,0.8,11.4,0.5c4.3-0.3,7.7,0.5,11.8-1.5c2.1-1,4.1-2.4,6-3.9c3.7-2.7,7.4-5.4,11.1-8.2
			c2.7-2,5.7-4.8,5-8.1C428.9,880.9,423,879.9,421.7,875.9z"/>
		<polygon class="st27" points="414.8,882.2 413.7,881.5 398.2,891.8 397.9,862.7 395.6,862.7 395.4,878.5 380.1,868.3 379,869 
			395.4,881.1 394.8,951.2 398.8,951.2 398.2,894.4 		"/>
	</g>
	<g class="st2">
		<path class="st28" d="M406,909.8c0.4-1.9,1.4-3.7,1.1-5.6c-0.4-2.3-2.6-4-4.8-4.7c-2.3-0.7-4.7-0.7-7-1.3
			c-5.3-1.4-9.6-6-10.7-11.4c-1-5.4,1.3-11.3,5.7-14.5c2.8-2,6.1-3,9.1-4.7c3-1.6,5.9-4.3,6.1-7.7c0.3-3.5-2.3-6.7-5.2-8.8
			c-2.9-2.1-6.2-3.6-8.7-6.1c-5.5-5.8-4.4-16.5,2.2-20.9c3.2-2.1,7.1-2.8,10.6-4.4c3.5-1.6,6.9-4.6,6.8-8.5
			c-0.1-4.1-3.9-6.9-6.5-10.2c-5-6.4-4.8-16.5,0.5-22.7c5.3-6.2,15.2-7.9,22.3-3.9c7.1,4,10.7,13.4,8.1,21.2
			c-1.1,3.3-3.2,6.3-4.6,9.5c-1.4,3.2-2,7.2-0.2,10.2c4.3,7.2,17.2,3,22.5,9.6c3,3.8,2,9.5-0.6,13.6c-2.6,4.1-6.4,7.2-9.2,11.2
			c-2.8,4-4.4,9.4-1.9,13.6c1.8,3,5.2,4.6,8.2,6.5c2.9,1.9,5.7,5.1,5.1,8.5c-1.2,6.1-11.6,6.4-13.2,12.5c-1,3.6,1.8,7.1,2.7,10.7
			C449.8,923.7,401.7,929.4,406,909.8z"/>
		<polygon class="st38" points="437.4,894 436.5,893.3 423.2,902.2 423,877.3 421,877.3 420.9,890.8 407.7,882 406.8,882.7 
			420.8,893 420.3,953 423.7,953 423.3,904.4 		"/>
	</g>
</g>
</svg>
