<?xml version="1.0" encoding="utf-8"?>
<!-- Generator: Adobe Illustrator 21.1.0, SVG Export Plug-In . SVG Version: 6.00 Build 0)  -->
<svg version="1.1" id="Слой_1" xmlns="http://www.w3.org/2000/svg" xmlns:xlink="http://www.w3.org/1999/xlink" x="0px" y="0px"
	 viewBox="0 0 1000 1000" style="enable-background:new 0 0 1000 1000;" xml:space="preserve">
<style type="text/css">
	.st0{fill:#F8F8F8;}
	.st1{clip-path:url(#SVGID_2_);}
	.st2{clip-path:url(#SVGID_4_);}
	.st3{fill:#3F3F9C;}
	.st4{fill:#554FC9;}
	.st5{fill:#5C5CE3;}
	.st6{fill:#7676F2;}
	.st7{fill:#2C2C75;}
	.st8{fill-rule:evenodd;clip-rule:evenodd;fill:#2C2C75;}
	.st9{fill-rule:evenodd;clip-rule:evenodd;fill:#7E7EDB;}
</style>
<circle class="st0" cx="500" cy="500" r="499.5"/>
<g id="Слой_2">
</g>
<g>
	<defs>
		<circle id="SVGID_1_" cx="500" cy="500" r="499.5"/>
	</defs>
	<clipPath id="SVGID_2_">
		<use xlink:href="#SVGID_1_"  style="overflow:visible;"/>
	</clipPath>
	<g class="st1">
		<defs>
			<rect id="SVGID_3_" x="-138.4" y="113.8" width="1215.4" height="938.7"/>
		</defs>
		<clipPath id="SVGID_4_">
			<use xlink:href="#SVGID_3_"  style="overflow:visible;"/>
		</clipPath>
		<g class="st2">
			<g>
				<path class="st3" d="M31.6,1158.3c0,0-66-241.7-45.8-432.6C6,534.8,13.4,501.9,29.2,445.2C45,388.5,45,388.5,45,388.5
					s-3.6,114.7-3.7,229C41,803.7,87.1,1022.6,106.7,1102c19.6,79.4,34.4,97.4,34.4,97.4L29.2,1219L31.6,1158.3z"/>
				<path class="st4" d="M601.2,1164.3c0,0-12.3-309.2-107.2-526.4c-94.8-217.2-115.9-253.3-155.6-314.1
					c-39.7-60.9-39.7-60.9-39.7-60.9s46.9,133.7,89.7,268.3c69.7,219.2,97,494,103.5,594.8c6.5,100.8-4.2,127.5-4.2,127.5l139-18.5
					L601.2,1164.3z"/>
				<path class="st4" d="M60.3,1184.8c0,0-23.1-249.5,29.8-434c52.9-184.5,66-215.7,91.4-268.8c25.4-53.1,25.4-53.1,25.4-53.1
					s-23.4,112.3-43.4,224.9c-32.5,183.4-25.1,406.9-19.6,488.5c5.5,81.6,17,101.9,17,101.9l-113.5,0L60.3,1184.8z"/>
				<path class="st5" d="M111.1,1101.5c0,0,19.2-237.8,105.9-397.1C303.7,545.2,322.5,519.2,358,475.8
					c35.5-43.4,35.5-43.4,35.5-43.4s-43.6,99.1-83.8,199.2c-65.4,163.1-96.3,373-104.7,450.3c-8.4,77.3,0,98.9,0,98.9l-117.6-27
					L111.1,1101.5z"/>
				<path class="st6" d="M785.1,1266.1c0,0-61.2-260-32.5-462.6c28.7-202.6,37.8-237.4,56.8-297.3c19-59.8,19-59.8,19-59.8
					s-8.1,122-12.6,243.9c-7.3,198.4,33.5,433.3,51.4,518.7c17.9,85.3,32.9,105.1,32.9,105.1l-119.9,16.7L785.1,1266.1z"/>
				<path class="st4" d="M224.2,1219c0,0-40.7-340.6-28.9-487c11.8-146.4,9.7-142.7,28.9-259.1c19.3-116.4,32.1-155.1,32.1-155.1
					s-24.9,150.2-15,275.3c10,125,61.4,651.2,61.4,651.2l-70-20.4"/>
				<path class="st6" d="M335.1,1395.5c0,0-40.7-340.6-28.9-487c11.8-146.4,9.7-142.7,28.9-259.1c19.3-116.4,32.1-155.1,32.1-155.1
					s-24.9,150.2-15,275.3c10,125,61.4,651.2,61.4,651.2l-70-20.4"/>
				<path class="st4" d="M786.1,1318c0,0,75.5-269.1,130-375.7c54.5-106.6,51.7-104.4,102.5-186c50.8-81.6,72.5-106.8,72.5-106.8
					s-65.6,105.3-97,202.6c-31.5,97.2-156.7,509.4-156.7,509.4l-46.3-37.1"/>
				<path class="st5" d="M667.4,1330.2c0,0-40.7-340.6-28.9-487c11.8-146.4,9.7-142.7,28.9-259.1C686.7,467.7,699.5,429,699.5,429
					s-24.9,150.2-15,275.3c10,125,61.4,651.2,61.4,651.2l-70-20.4"/>
				<path class="st4" d="M523.6,1254.7c0,0,33.6-341.4,76.7-481.8c43.1-140.5,40.2-137.3,84-246.8c43.9-109.5,64.8-144.6,64.8-144.6
					s-56.7,141.3-73.9,265.6c-17.2,124.3-80.3,649.1-80.3,649.1l-63.9-35"/>
				<path class="st5" d="M409.5,1250.5c0,0-35.8-299.7-25.4-428.5c10.4-128.9,8.5-125.5,25.4-228c16.9-102.4,28.2-136.5,28.2-136.5
					s-21.9,132.2-13.2,242.2c8.8,110,54,573,54,573l-61.6-17.9"/>
			</g>
			<g>
				<g>
					<path class="st7" d="M124.9,1236.8c0,0,16.9-304.6,16.3-333.9c-0.7-29.3-8.5-196.4-9.1-222.9c-0.6-26.5-4.5-74.8-4.5-74.8
						c14.7,118,14.6,115.5,15.8,176.7c1.1,59.3,17.5,155.9,9.1,214.6c-8.4,58.7,0,235.3,0,235.3L124.9,1236.8z"/>
					<ellipse class="st8" cx="142.5" cy="803.3" rx="70.2" ry="171.1"/>
				</g>
				<g>
					<path id="leaf_6_" class="st9" d="M128.6,657.3c-0.9-16.4-15-28.4-17.6-35.5c-6.9-18.7-7.3-45.3,1.2-63.1
						c2.5-5.2,5.7-9.6,6.6-15.3c0-5.9-1.4-12.6-5.5-20.4c8.3,8,26.3,39.4,27.2,47.6C146.4,627.1,128.8,661,128.6,657.3z"/>
					<path id="leaf_1_" class="st9" d="M137.7,690c5.6-6.2-1.2-25.4-0.4-34c1.7-17,11.2-37.7,24.5-48.3c3.9-3.1,7.9-5.3,10.8-9.4
						c2.2-4.6,3.6-10.2,3.4-17.8c3.4,9.3,5.1,16.3,6.7,26.2c1.1,6.9,0.9,12.6,0.6,19.7C181.3,669.1,135.5,692.4,137.7,690z"/>
					<path id="leaf_2_" class="st9" d="M133.4,690c-7-4.6-5.1-24.9-8.1-33c-5.8-16-20.2-33.7-35.7-40.7c-4.5-2-9-3.1-12.8-6.4
						c-3.3-3.9-6.1-9-7.7-16.4c-1,9.8-0.9,17.1,0,27c0.6,6.9,2.3,12.5,4.3,19.2C86,680.6,136.1,691.8,133.4,690z"/>
					<path id="leaf_4_" class="st9" d="M141.4,727.4c7.5-3.8,7.7-24.2,11.5-32c7.5-15.3,23.7-31.4,39.8-36.7c4.7-1.5,9.3-2.2,13.4-5
						c3.7-3.5,7-8.3,9.4-15.5c-0.1,9.9-0.9,17.1-2.9,26.9c-1.4,6.8-3.6,12.1-6.3,18.6C189.6,723,138.6,728.8,141.4,727.4z"/>
					<path id="leaf_5_" class="st9" d="M134.3,776.7c9-3,12.9-25.7,18.5-33.7c11.1-15.8,32-30.9,50.9-33.9
						c5.5-0.9,10.7-0.8,15.8-3.3c4.7-3.3,9.2-8,13.2-15.6c-1.8,11-4,18.9-7.9,29.5c-2.7,7.4-6.1,12.9-10.4,19.7
						C188.9,780.3,130.9,777.8,134.3,776.7z"/>
					<path id="leaf_7_" class="st9" d="M142,831.4c9-3,12.9-25.7,18.5-33.7c11.1-15.8,32-30.9,50.9-33.9c5.5-0.9,10.7-0.8,15.8-3.3
						c4.7-3.3,9.2-8,13.2-15.6c-1.8,11-4,18.9-7.9,29.5c-2.7,7.4-6.1,12.9-10.4,19.7C196.6,835,138.6,832.5,142,831.4z"/>
					<path id="leaf_8_" class="st9" d="M149.6,902.6c9.9-5.2,10.1-32.3,15.1-42.8c9.8-20.5,31.3-42.1,52.7-49.2
						c6.3-2.1,12.3-3,17.8-6.8c4.8-4.7,9.2-11.1,12.3-20.7c0,13.1-1,22.7-3.6,35.8c-1.7,9.1-4.6,16.2-8.3,24.9
						C213.8,896.4,145.8,904.6,149.6,902.6z"/>
					<path id="leaf_9_" class="st9" d="M142.3,979.2c9.9-5.2,10.1-32.3,15.1-42.8c9.8-20.5,31.3-42.1,52.7-49.2
						c6.3-2.1,12.3-3,17.8-6.8c4.8-4.7,9.2-11.1,12.3-20.7c0,13.1-1,22.7-3.5,35.8c-1.8,9.1-4.6,16.2-8.3,24.9
						C206.5,972.9,138.5,981.2,142.3,979.2z"/>
					<path id="leaf_13_" class="st9" d="M133,773.7c-9-3-12.9-25.7-18.5-33.7c-11.1-15.8-32-30.9-50.9-33.9
						c-5.5-0.9-10.7-0.8-15.8-3.3c-4.7-3.3-9.2-8-13.2-15.6c1.8,11,4,18.9,7.9,29.5c2.7,7.4,6.1,12.9,10.4,19.7
						C78.5,777.4,136.5,774.9,133,773.7z"/>
					<path id="leaf_12_" class="st9" d="M142.1,831.4c-9-3-12.9-25.7-18.5-33.7c-11.1-15.8-32-30.9-50.9-33.9
						c-5.5-0.9-10.7-0.8-15.8-3.3c-4.7-3.3-9.2-8-13.2-15.6c1.8,11,4,18.9,7.9,29.5c3.4,9.1,6,12.7,10.4,19.7
						C87.5,835,145.5,832.5,142.1,831.4z"/>
					<path id="leaf_11_" class="st9" d="M146.2,903.9c-10.3-4.4-12.5-31.4-18.3-41.5c-11.4-19.7-34.4-39.5-56.4-45
						c-6.4-1.6-12.5-2-18.2-5.4c-5.2-4.3-10-10.4-13.9-19.7c1,13.1,2.8,22.6,6.3,35.5c2.5,9,5.9,15.8,10.2,24.2
						C81.8,902.7,150.1,905.6,146.2,903.9z"/>
					<path id="leaf_10_" class="st9" d="M141,975.5c-9.8-5.3-9.7-32.4-14.6-42.9c-9.6-20.6-30.8-42.4-52.1-49.9
						c-6.2-2.1-12.3-3.1-17.7-7.1c-4.8-4.8-9.1-11.2-12.1-20.8c-0.2,13.1,0.8,22.7,3.1,35.9c1.6,9.1,4.5,16.3,8,25
						C77,968.5,144.8,977.5,141,975.5z"/>
					<path id="leaf_3_" class="st9" d="M141.7,720.4c-8.3-1.4-14.7-20.7-20.7-27c-11.8-12.3-32.1-22.7-49.1-22.8
						c-5,0-9.5,0.8-14.3-0.7c-4.6-2.2-9.2-5.8-13.6-11.9c3.1,9.4,6.1,16,10.9,24.7c3.4,6.1,7.1,10.5,11.7,15.8
						C94.5,730.9,144.9,720.9,141.7,720.4z"/>
				</g>
			</g>
			<g>
				<g>
					<path class="st7" d="M546.1,1132.5c0,0,16.1-592.8,15.4-622.1c-0.7-29.3-0.8-197.7-1.4-224.2c-0.6-26.5-4.5-74.8-4.5-74.8
						c14.7,118,14.6,115.5,15.8,176.7c1.1,59.3,11.4,158.4,3,217.1c-8.4,58.7,0,530.4,0,530.4L546.1,1132.5z"/>
					<ellipse class="st8" cx="570.6" cy="409.5" rx="70.2" ry="171.1"/>
				</g>
				<g>
					<path id="leaf_26_" class="st9" d="M556.6,263.5c-0.9-16.4-15-28.4-17.6-35.5c-6.9-18.7-7.3-45.3,1.2-63.1
						c2.5-5.2,5.7-9.6,6.6-15.3c0-5.9-1.4-12.6-5.5-20.4c8.3,8,26.3,39.4,27.2,47.6C574.4,233.3,556.8,267.2,556.6,263.5z"/>
					<path id="leaf_25_" class="st9" d="M565.7,296.2c5.6-6.2-1.2-25.4-0.4-34c1.7-17,11.2-37.7,24.5-48.3c3.9-3.1,7.9-5.3,10.8-9.4
						c2.2-4.6,3.6-10.2,3.4-17.8c3.4,9.3,5.1,16.3,6.7,26.2c1.1,6.9,0.9,12.6,0.6,19.7C609.3,275.3,563.6,298.6,565.7,296.2z"/>
					<path id="leaf_24_" class="st9" d="M561.4,296.2c-7-4.6-5.1-24.9-8.1-33c-5.8-16-20.2-33.7-35.7-40.7c-4.5-2-9-3.1-12.8-6.4
						c-3.3-3.9-6.1-9-7.7-16.4c-1,9.8-0.9,17.1,0,27c0.6,6.9,2.3,12.5,4.3,19.2C514,286.8,564.1,297.9,561.4,296.2z"/>
					<path id="leaf_23_" class="st9" d="M569.5,333.6c7.5-3.8,7.7-24.2,11.5-32c7.5-15.3,23.7-31.4,39.8-36.7
						c4.7-1.5,9.3-2.2,13.4-5c3.7-3.5,7-8.3,9.4-15.5c-0.1,9.9-0.9,17.1-2.9,26.9c-1.4,6.8-3.6,12.1-6.3,18.6
						C617.6,329.2,566.6,335,569.5,333.6z"/>
					<path id="leaf_22_" class="st9" d="M562.4,382.9c9-3,12.9-25.7,18.5-33.7c11.1-15.8,32-30.9,50.9-33.9
						c5.5-0.9,10.7-0.8,15.8-3.3c4.7-3.3,9.2-8,13.2-15.6c-1.8,11-4,18.9-7.9,29.5c-2.7,7.4-6.1,12.9-10.4,19.7
						C616.9,386.5,558.9,384,562.4,382.9z"/>
					<path id="leaf_21_" class="st9" d="M570.1,437.6c9-3,12.9-25.7,18.5-33.7c11.1-15.8,32-30.9,50.9-33.9
						c5.5-0.9,10.7-0.8,15.8-3.3c4.7-3.3,9.2-8,13.2-15.6c-1.8,11-4,18.9-7.9,29.5c-2.7,7.4-6.1,12.9-10.4,19.7
						C624.6,441.2,566.6,438.7,570.1,437.6z"/>
					<path id="leaf_20_" class="st9" d="M577.7,508.8c9.9-5.2,10.1-32.3,15.1-42.8c9.8-20.5,31.3-42.1,52.7-49.2
						c6.3-2.1,12.3-3,17.8-6.8c4.8-4.7,9.2-11.1,12.3-20.7c0,13.1-1,22.7-3.6,35.8c-1.7,9.1-4.6,16.2-8.3,24.9
						C641.8,502.6,573.9,510.8,577.7,508.8z"/>
					<path id="leaf_19_" class="st9" d="M570.4,585.4c9.9-5.2,10.1-32.3,15.1-42.8c9.8-20.5,31.3-42.1,52.7-49.2
						c6.3-2.1,12.3-3,17.8-6.8c4.8-4.7,9.2-11.1,12.3-20.7c0,13.1-1,22.7-3.5,35.8c-1.8,9.1-4.6,16.2-8.3,24.9
						C634.5,579.1,566.6,587.3,570.4,585.4z"/>
					<path id="leaf_18_" class="st9" d="M561.1,379.9c-9-3-12.9-25.7-18.5-33.7c-11.1-15.8-32-30.9-50.9-33.9
						c-5.5-0.9-10.7-0.8-15.8-3.3c-4.7-3.3-9.2-8-13.2-15.6c1.8,11,4,18.9,7.9,29.5c2.7,7.4,6.1,12.9,10.4,19.7
						C506.5,383.6,564.5,381.1,561.1,379.9z"/>
					<path id="leaf_17_" class="st9" d="M570.1,437.6c-9-3-12.9-25.7-18.5-33.7c-11.1-15.8-32-30.9-50.9-33.9
						c-5.5-0.9-10.7-0.8-15.8-3.3c-4.7-3.3-9.2-8-13.2-15.6c1.8,11,4,18.9,7.9,29.5c3.4,9.1,6,12.7,10.4,19.7
						C515.6,441.2,573.6,438.7,570.1,437.6z"/>
					<path id="leaf_16_" class="st9" d="M574.3,510.1c-10.3-4.4-12.5-31.4-18.3-41.5c-11.4-19.7-34.4-39.5-56.4-45
						c-6.4-1.6-12.5-2-18.2-5.4c-5.2-4.3-10-10.4-13.9-19.7c1,13.1,2.8,22.6,6.3,35.5c2.5,9,5.9,15.8,10.2,24.2
						C509.8,508.8,578.2,511.8,574.3,510.1z"/>
					<path id="leaf_15_" class="st9" d="M569.1,581.7c-9.8-5.3-9.7-32.4-14.6-42.9c-9.6-20.6-30.8-42.4-52.1-49.9
						c-6.2-2.1-12.3-3.1-17.7-7.1c-4.8-4.8-9.1-11.2-12.1-20.8c-0.2,13.1,0.8,22.7,3.1,35.9c1.6,9.1,4.5,16.3,8,25
						C505,574.7,572.8,583.7,569.1,581.7z"/>
					<path id="leaf_14_" class="st9" d="M569.8,326.6c-8.3-1.4-14.7-20.7-20.7-27c-11.8-12.3-32.1-22.7-49.1-22.8
						c-5,0-9.5,0.8-14.3-0.7c-4.6-2.2-9.2-5.8-13.6-11.9c3.1,9.4,6.1,16,10.9,24.7c3.4,6.1,7.1,10.5,11.7,15.8
						C522.6,337.1,572.9,327.1,569.8,326.6z"/>
				</g>
			</g>
			<g>
				<g>
					<path class="st7" d="M693.7,1357.2c0,0,158.9-571.3,165.3-599.9c6.5-28.6,47-192.1,52.8-217.9c5.8-25.9,13.7-73.7,13.7-73.7
						c-14.2,118.1-13.7,115.6-27.4,175.3c-13.2,57.9-27.2,156.5-49.6,211.4C826.2,907.3,720.4,1367,720.4,1367L693.7,1357.2z"/>
					
						<ellipse transform="matrix(0.2417 -0.9704 0.9704 0.2417 34.5989 1367.3262)" class="st8" cx="892.1" cy="661.5" rx="171.1" ry="70.2"/>
				</g>
				<g>
					<path id="leaf_78_" class="st9" d="M913.9,516.5c3.1-16.1-7.7-31.2-8.5-38.8c-2.1-19.8,3.8-45.7,16.5-61
						c3.7-4.4,7.8-7.9,10.1-13.3c1.4-5.7,1.7-12.5-0.4-21.1c6.1,9.8,16,44.6,14.9,52.8C938.5,491.5,913.2,520.2,913.9,516.5z"/>
					<path id="leaf_77_" class="st9" d="M914.8,550.4c7-4.7,4.9-24.9,7.8-33.1c5.7-16.1,20-33.9,35.4-40.9c4.5-2,9-3.2,12.7-6.5
						c3.2-3.9,6-9,7.6-16.4c1.1,9.8,1,17.1,0.2,27c-0.6,6.9-2.2,12.5-4.2,19.2C962.2,540.7,912.2,552.2,914.8,550.4z"/>
					<path id="leaf_76_" class="st9" d="M910.7,549.4c-5.7-6.2,1-25.4,0.1-34c-1.8-17-11.5-37.6-24.8-48.1c-3.9-3-8-5.2-10.8-9.3
						c-2.2-4.6-3.7-10.2-3.5-17.7c-3.3,9.3-5,16.3-6.5,26.2c-1.1,6.9-0.8,12.6-0.4,19.7C866.9,528.8,912.8,551.7,910.7,549.4z"/>
					<path id="leaf_75_" class="st9" d="M909.4,587.6c8.2-1.9,13.4-21.6,18.9-28.3c11-13.1,30.6-24.8,47.5-26
						c4.9-0.3,9.5,0.2,14.2-1.7c4.4-2.5,8.8-6.4,12.8-12.7c-2.4,9.6-5,16.3-9.3,25.4c-3,6.3-6.4,10.9-10.7,16.6
						C957.2,595,906.3,588.3,909.4,587.6z"/>
					<path id="leaf_74_" class="st9" d="M890.6,633.7c9.5-0.7,18.7-21.8,26.1-28.2c14.6-12.6,38.5-22.2,57.6-20.6
						c5.6,0.5,10.6,1.8,16.1,0.7c5.4-2,10.9-5.6,16.6-12c-4.4,10.2-8.4,17.4-14.8,26.7c-4.4,6.5-9.1,11.1-14.8,16.6
						C942.6,650.4,887,634,890.6,633.7z"/>
					<path id="leaf_73_" class="st9" d="M884.9,688.7c9.5-0.7,18.7-21.8,26.1-28.2c14.6-12.6,38.5-22.2,57.6-20.6
						c5.6,0.5,10.6,1.8,16.1,0.7c5.4-2,10.9-5.6,16.6-12c-4.4,10.2-8.5,17.4-14.8,26.7c-4.4,6.5-9.1,11.1-14.8,16.6
						C936.9,705.4,881.3,688.9,884.9,688.7z"/>
					<path id="leaf_72_" class="st9" d="M875,759.6c10.9-2.6,17.6-28.9,25-37.8c14.5-17.5,40.5-33.3,63-35
						c6.6-0.5,12.7,0.1,18.9-2.3c5.8-3.4,11.6-8.6,17-17.1c-3.1,12.7-6.5,21.8-12.1,33.9c-3.9,8.4-8.4,14.6-14,22.2
						C938.8,769.1,870.9,760.6,875,759.6z"/>
					<path id="leaf_71_" class="st9" d="M849.4,832.2c10.9-2.6,17.6-28.9,25-37.8c14.5-17.5,40.5-33.3,63-35
						c6.6-0.5,12.7,0.1,18.9-2.3c5.8-3.4,11.6-8.5,17-17.1c-3.1,12.7-6.5,21.8-12.1,33.9c-3.9,8.4-8.4,14.6-14,22.1
						C913.2,841.6,845.3,833.2,849.4,832.2z"/>
					<path id="leaf_70_" class="st9" d="M890.1,630.6c-8-5.1-6.3-28-9.8-37.2c-6.9-18-23.6-37.7-41.2-45.2c-5.2-2.2-10.2-3.3-14.6-7
						c-3.8-4.3-7-10-9-18.3c-0.9,11.1-0.7,19.3,0.6,30.6c0.9,7.8,2.8,14,5.3,21.6C836.3,620.9,893.1,632.5,890.1,630.6z"/>
					<path id="leaf_69_" class="st9" d="M884.9,688.7c-8-5.1-6.3-28-9.8-37.2c-6.9-18-23.6-37.7-41.2-45.2c-5.2-2.2-10.2-3.3-14.6-7
						c-3.8-4.3-7-10-9-18.3c-0.9,11.1-0.7,19.3,0.6,30.6c1.1,9.7,2.7,13.8,5.3,21.6C831.1,679,888,690.6,884.9,688.7z"/>
					<path id="leaf_68_" class="st9" d="M871.4,760.1c-8.9-6.8-4.6-33.6-7.8-44.7c-6.3-21.8-23.9-46.7-43.8-57.3
						c-5.8-3.1-11.7-5-16.4-9.7c-4-5.5-7.2-12.5-8.7-22.4c-2.2,12.9-2.8,22.6-2.4,35.9c0.2,9.3,1.9,16.8,4,25.9
						C809.2,743.3,874.8,762.6,871.4,760.1z"/>
					<path id="leaf_67_" class="st9" d="M849.1,828.3c-8.3-7.5-1.6-33.8-3.8-45.2c-4.3-22.3-19.6-48.6-38.5-61
						c-5.5-3.6-11.2-6-15.5-11.1c-3.5-5.8-6.1-13.1-6.7-23.1c-3.4,12.7-4.8,22.3-5.6,35.6c-0.6,9.3,0.4,16.9,1.7,26.2
						C788.6,806,852.2,831.2,849.1,828.3z"/>
					<path id="leaf_66_" class="st9" d="M911.4,580.9c-7.7-3.3-9.3-23.7-13.6-31.2c-8.5-14.8-25.7-29.8-42.1-34
						c-4.8-1.2-9.4-1.5-13.7-4.1c-3.9-3.3-7.5-7.8-10.4-14.8c0.7,9.8,2,17,4.6,26.6c1.8,6.7,4.4,11.9,7.5,18.2
						C863.1,579.7,914.3,582.2,911.4,580.9z"/>
				</g>
			</g>
		</g>
	</g>
</g>
</svg>
