<?xml version="1.0" encoding="utf-8"?>
<!-- Generator: Adobe Illustrator 21.1.0, SVG Export Plug-In . SVG Version: 6.00 Build 0)  -->
<svg version="1.1" id="Слой_1" xmlns="http://www.w3.org/2000/svg" xmlns:xlink="http://www.w3.org/1999/xlink" x="0px" y="0px"
	 viewBox="0 0 1000 1000" style="enable-background:new 0 0 1000 1000;" xml:space="preserve">
<style type="text/css">
	.st0{fill:#F8F8F8;}
	.st1{clip-path:url(#SVGID_2_);}
	.st2{fill:#776AE4;}
	.st3{opacity:0.53;fill:#778280;}
	.st4{fill:#625FC4;}
	.st5{fill:#403BA1;}
	.st6{fill:#3D4B48;}
	.st7{fill:#808C8A;}
	.st8{fill:#929E9C;}
</style>
<circle class="st0" cx="500" cy="500" r="499.5"/>
<g id="Слой_2__x28_копия_x29_">
</g>
<g id="Слой_2">
</g>
<g>
	<defs>
		<circle id="SVGID_1_" cx="500" cy="500" r="499.5"/>
	</defs>
	<clipPath id="SVGID_2_">
		<use xlink:href="#SVGID_1_"  style="overflow:visible;"/>
	</clipPath>
	<g class="st1">
		<path class="st2" d="M493,752.6c0,0,51.2-18.5,78.4-35.5c27.2-17.1,54-45.2,85.4-51.2c31.4-6,90.7-57,109.8-76.1
			c19.2-19.1,64.6-67.4,100.6-73.4c36-6,70.1,18.9,81.2,23.1c11.1,4.2,143.5,114.4,157.4,128.3c13.8,13.8,140.3,89.5,165.7,97.8
			c25.4,8.3,31.4,10.2,24,17.5c-7.4,7.4-42-3.7-62.3,6c-20.3,9.7-77.5-3.2-95.5,6c-18,9.2,1.8,13.8-23.5,18.5
			c-25.4,4.6-156.9,5.1-198.4-6.5c-41.5-11.5-114,2.8-128.3,2.8c-14.3,0-56.8-24-111.7-8.8c-54.9,15.2-128.3-4.6-159.2-13.8
			C485.6,778,436.7,776.1,493,752.6z"/>
		<path class="st3" d="M867.2,516.3c-36,6-81.4,54.2-100.6,73.4c-19.1,19.2-78.4,70.1-109.8,76.1c-5.3,1-10.4,2.6-15.4,4.7
			c20.5-3.5,44.5-8.5,70.2-18.1c34.4-12.9,92.2-98.5,128.9-121.6c16.9-10.6,30-14.3,40.1-15.4C876.1,515.3,871.7,515.6,867.2,516.3z
			"/>
		<path class="st4" d="M872.6,583.4c-17.2,17.2-10.3,32.9-16.5,61.9c-6.2,29.1-33.6,64-42.2,55.4c-8.7-8.7,6.9-31.1,6.9-51.9
			s-20.8-11.8-41.5,49.1c-20.8,60.9-27,61-27,47.1c0-13.8-2.8-31.8-14.5,0.7c-11.8,32.5-40.8,34.6-47.8,20.1
			c-6.9-14.5,28.4-61.6,22.8-67.1C707.3,693,696.9,720,681,736c-15.9,15.9-68.5,49.8-120.4,49.8c-29.6,0-43-20.3-49.1-40.3
			c-10.9,4.3-18.5,7.1-18.5,7.1c-56.3,23.5-7.4,25.4,23.5,34.6c30.9,9.2,104.3,29.1,159.2,13.8c54.9-15.2,97.4,8.8,111.7,8.8
			c14.3,0,86.8-14.3,128.3-2.8c6.2,1.7,14.4,3.2,23.9,4.4C921.4,727.7,885.3,570.7,872.6,583.4z"/>
		<path class="st4" d="M1271.4,765.5c-25.4-8.3-151.8-84-165.7-97.8c-13.8-13.8-146.3-124.1-157.4-128.3
			c-8.6-3.2-31.3-19.1-57.9-23.1c-9.8,7.3-20.5,19.9-20.5,39.7c0,36.7,16.6,60.2,0,90c-16.6,29.8-22.8,52.6-36,83.8
			c-13.2,31.1-31.7,65.9-74.4,73.1c12.8,3.5,22.3,7,27.8,7c14.3,0,86.8-14.3,128.3-2.8c41.5,11.5,173,11.1,198.4,6.5
			c25.4-4.6,5.5-9.2,23.5-18.5c18-9.2,75.2,3.7,95.5-6c20.3-9.7,54.9,1.4,62.3-6C1302.8,775.6,1296.8,773.8,1271.4,765.5z"/>
		<path class="st5" d="M1271.4,765.5c-25.4-8.3-151.8-84-165.7-97.8c-3.5-3.5-14.3-12.9-28.8-25.2c13.1,18.9,22.8,34.8,22.8,40.2
			c0,16.6-83.8-58.8-90-52.6c-6.2,6.2,72.7,99.7,65.1,114.2c-7.6,14.5-39.5-44.3-63.7-44.3c-24.2,0,9.7,43.6-12.5,56.8
			c-22.1,13.2-29.1-22.1-42.2-42.9c-13.2-20.8-28.7-125.8-54-113.5c-25.3,12.3-29.8-16.9-29.8-16.9l0,0c3.9,22.6,9.4,40.9-2.7,62.6
			c-16.6,29.8-22.8,52.6-36,83.8c-13.2,31.1-31.7,65.9-74.4,73.1c12.8,3.5,22.3,7,27.8,7c14.3,0,86.8-14.3,128.3-2.8
			c41.5,11.5,173,11.1,198.4,6.5c25.4-4.6,5.5-9.2,23.5-18.5c18-9.2,75.2,3.7,95.5-6c20.3-9.7,54.9,1.4,62.3-6
			C1302.8,775.6,1296.8,773.8,1271.4,765.5z"/>
		<circle class="st6" cx="775.5" cy="615.9" r="1.3"/>
		<circle class="st6" cx="769.5" cy="640.6" r="0.9"/>
		<circle class="st6" cx="754.4" cy="653.7" r="1.2"/>
		<circle class="st6" cx="833.5" cy="563.9" r="1"/>
		<circle class="st6" cx="850.7" cy="542.2" r="1.8"/>
		<circle class="st6" cx="835.4" cy="602.6" r="0.9"/>
		<circle class="st6" cx="895.2" cy="561.5" r="1.4"/>
		<circle class="st6" cx="895.2" cy="582.3" r="1.4"/>
		<circle class="st6" cx="903.6" cy="572.7" r="1.1"/>
		<circle class="st6" cx="883.7" cy="528.9" r="1"/>
		<path class="st6" d="M760.2,627.1c-27.3,15.9-20.4,17.1-26.3,24.3c-16.3,21-39.9,28.5-49.5,42.3c-17,24.7-13.9,28.6-83.5,51.8
			c18.6-5.5,37.1-11.6,54.9-19.4c22.4-9.9,28-35.1,40.1-41.1c8.4-5.1,16.1-11,23.7-17.2c32.2-27.1,5.6-18.1,41.1-39.9
			c0.3-0.2,19.9-12,18.7-11.3c1.2-0.8,5.1-3.1,5.6-4.5C784.4,613.5,759.9,627.2,760.2,627.1z"/>
		<path class="st6" d="M1266.1,783.4c-35.4-22.7-73-35.1-74.8-35.8c-15.7-6-8.8-19.6-90.1-54.5c19.5,9.1,49.6,24.4,66.2,38.1
			c3.8,2.9,9.2,8.9,12.7,12.2c10.4,9.9,38.1,15.4,76.9,40.7c-8.4-0.1-16.9,0.6-23.9,3.7c-4.7,1.9-9.5,2.6-9.2,2.6
			c-33.7,3.7-91.7-10.3-97.5,12.5c-0.7,2.8,0.2,4.1-3.3,5.5c-39.6-30.9-16.1-39.3-49.8-65.3c-18.7-14.5,1.7-30.2-80.8-71.3
			c65.7,35,64.6,52.4,70.9,63.8c5.4,10,10.6,11,17.2,17.8c7.7,7.6,10.3,20.5,15.5,32.3c3.3,7.4,6.6,12.7,20.5,24.5
			c-0.9,0.2-1.8,0.4-2.9,0.6c-31,3-98.4,3.2-147.7-0.5c-21.6-39.6-14.2-21.2-13.3-45.1c0.3-9.4-1.8-13.7-7.4-22.6
			c-15.7-24.6-4.7-22.5-11.7-43.1c-3.4-10.4-9.6-20.2-11.9-28.2c-8.7-28.4,18.6-1.1-21.2-87.4c25.4,58.5,21.3,60.3,18.7,72.4
			c-3.5,16.6,6.5,26.6,11.8,44.1c2.9,9.2,1.9,17,2.2,22.4c0.3,13,12.6,23.6,14.9,35.1c3,12.2-5.8,19.4,0.4,30.8l11.1,21.1
			c-14.4-1.2-26.9-2.8-36-4.8c-6.3-1.2-27.5-8.4-66.7-5.7c-43,2-63.8,9.2-77.8,5.4c-14.5-3.9-31-9.6-52.3-11.3
			c-61.2-5.7-69.7,32.1-209-6.6c-21.6-6.1-46.3-7.9-50.1-14.9c1,2,3.1,3.2,5,4.2c6.8,3.6,81.8,23.6,95.9,26.5
			c109.3,22.1,109.6-15.9,183.2,2.5c48.7,11.8,15.1,10.8,79.4,4.4c101-9.7,53.3,11.4,210.5,11c16.7,0,63.9-0.5,80-5.4
			c10.7-3.3,9.1-6.7,10.2-10.8c0.8-4.7,10.3-7.9,10.6-8c25.9-4.7,72.4,1.9,87.1-4.1c10.5-4.4,61.5-4.3,66.1-8.8
			C1291,787,1266.1,783.4,1266.1,783.4z"/>
		<circle class="st7" cx="813" cy="563.9" r="1"/>
		<circle class="st7" cx="822.7" cy="552.8" r="0.9"/>
		<circle class="st7" cx="825.6" cy="576.2" r="1.1"/>
		<circle class="st7" cx="841.2" cy="535.4" r="0.8"/>
		<circle class="st7" cx="799.2" cy="570.8" r="0.7"/>
		<circle class="st7" cx="780" cy="583" r="0.7"/>
		<circle class="st7" cx="862.4" cy="559.7" r="1"/>
		<circle class="st8" cx="862.9" cy="530.4" r="0.5"/>
		<circle class="st8" cx="797.1" cy="577.6" r="1.4"/>
		<circle class="st8" cx="669.7" cy="672.3" r="1.4"/>
		<circle class="st8" cx="810.7" cy="574.1" r="1.4"/>
	</g>
	<g class="st1">
		<path class="st2" d="M-120.6,748.6c0,0,68.4-24.6,104.7-47.4c36.3-22.8,72.1-60.4,114-68.4c41.9-8,121-76.1,146.6-101.6
			c25.6-25.6,86.2-89.9,134.3-97.9c48-8,93.6,25.3,108.4,30.8c14.8,5.5,191.6,152.8,210.1,171.2c18.5,18.5,187.3,119.5,221.1,130.6
			c33.9,11.1,41.9,13.6,32,23.4c-9.9,9.9-56.1-4.9-83.2,8c-27.1,12.9-103.5-4.3-127.5,8c-24,12.3,2.5,18.5-31.4,24.6
			c-33.9,6.2-209.4,6.8-264.9-8.6c-55.4-15.4-152.2,3.7-171.2,3.7c-19.1,0-75.8-32-149.1-11.7c-73.3,20.3-171.2-6.2-212.5-18.5
			C-130.4,782.5-195.7,780-120.6,748.6z"/>
		<path class="st3" d="M379,433.2c-48,8-108.7,72.4-134.3,97.9C219.1,556.7,140,624.8,98.1,632.8c-7,1.3-13.9,3.5-20.6,6.3
			c27.3-4.6,59.4-11.3,93.6-24.2c46-17.2,123.1-131.5,172.1-162.3c22.6-14.2,40.1-19.1,53.5-20.6C390.9,431.9,385,432.2,379,433.2z"
			/>
		<path class="st4" d="M386.3,522.7c-22.9,22.9-13.7,43.9-22.1,82.7c-8.3,38.8-44.8,85.5-56.4,73.9c-11.5-11.5,9.2-41.6,9.2-69.3
			c0-27.7-27.7-15.7-55.4,65.5c-27.7,81.3-36,81.4-36,62.9c0-18.5-3.7-42.5-19.4,0.9c-15.7,43.4-54.5,46.2-63.8,26.8
			c-9.2-19.4,37.9-82.2,30.5-89.6c-7.4-7.4-21.3,28.6-42.5,49.9c-21.3,21.3-91.5,66.5-160.8,66.5c-39.6,0-57.4-27.1-65.5-53.8
			c-14.6,5.8-24.7,9.5-24.7,9.5c-75.1,31.4-9.9,33.9,31.4,46.2c41.3,12.3,139.2,38.8,212.5,18.5c73.3-20.3,130,11.7,149.1,11.7
			c19.1,0,115.8-19.1,171.2-3.7c8.3,2.3,19.2,4.2,31.9,5.9C451.4,715.4,403.2,505.8,386.3,522.7z"/>
		<path class="st4" d="M918.6,765.8c-33.9-11.1-202.7-112.1-221.1-130.6C679,616.8,502.2,469.6,487.4,464
			c-11.5-4.3-41.8-25.5-77.3-30.8c-13.1,9.8-27.4,26.6-27.4,53c0,49,22.2,80.4,0,120.1c-22.2,39.7-30.5,70.2-48,111.8
			c-17.6,41.6-42.4,88-99.3,97.6c17,4.6,29.8,9.3,37,9.3c19.1,0,115.8-19.1,171.2-3.7c55.4,15.4,231,14.8,264.9,8.6
			c33.9-6.2,7.4-12.3,31.4-24.6c24-12.3,100.4,4.9,127.5-8c27.1-12.9,73.3,1.8,83.2-8C960.5,779.4,952.5,776.9,918.6,765.8z"/>
		<path class="st5" d="M918.6,765.8c-33.9-11.1-202.7-112.1-221.1-130.6c-4.6-4.6-19.1-17.2-38.4-33.7
			c17.5,25.3,30.4,46.5,30.4,53.7c0,22.2-111.8-78.5-120.1-70.2c-8.3,8.3,97,133.1,86.9,152.5c-10.2,19.4-52.7-59.1-85-59.1
			c-32.3,0,12.9,58.2-16.6,75.8c-29.6,17.6-38.8-29.6-56.4-57.3c-17.6-27.7-38.3-168-72.1-151.5c-33.8,16.4-39.8-22.6-39.8-22.6l0,0
			c5.2,30.1,12.6,54.6-3.6,83.6c-22.2,39.7-30.5,70.2-48,111.8c-17.6,41.6-42.4,88-99.3,97.6c17,4.6,29.8,9.3,37,9.3
			c19.1,0,115.8-19.1,171.2-3.7c55.4,15.4,231,14.8,264.9,8.6c33.9-6.2,7.4-12.3,31.4-24.6c24-12.3,100.4,4.9,127.5-8
			c27.1-12.9,73.3,1.8,83.2-8C960.5,779.4,952.5,776.9,918.6,765.8z"/>
		<circle class="st6" cx="256.6" cy="566.1" r="1.7"/>
		<circle class="st6" cx="248.6" cy="599.1" r="1.2"/>
		<circle class="st6" cx="228.5" cy="616.5" r="1.6"/>
		<circle class="st6" cx="334.1" cy="496.7" r="1.3"/>
		<circle class="st6" cx="356.9" cy="467.8" r="2.4"/>
		<circle class="st6" cx="336.6" cy="548.4" r="1.2"/>
		<circle class="st6" cx="416.4" cy="493.6" r="1.8"/>
		<circle class="st6" cx="416.4" cy="521.3" r="1.8"/>
		<circle class="st6" cx="427.6" cy="508.5" r="1.5"/>
		<circle class="st6" cx="401.1" cy="450" r="1.3"/>
		<path class="st6" d="M236.2,581.1c-36.5,21.2-27.3,22.8-35.1,32.4c-21.7,28-53.3,38.1-66.1,56.5c-22.7,33-18.6,38.2-111.5,69.2
			c24.8-7.4,49.5-15.5,73.3-25.9c29.8-13.3,37.3-46.8,53.6-54.8c11.2-6.8,21.5-14.7,31.6-22.9c43-36.1,7.5-24.1,54.9-53.2
			c0.4-0.2,26.6-16.1,24.9-15.1c1.7-1.1,6.8-4.2,7.5-6C268.5,562.9,235.8,581.3,236.2,581.1z"/>
		<path class="st6" d="M911.5,789.7c-47.2-30.4-97.4-46.9-99.9-47.8c-20.9-8.1-11.8-26.2-120.3-72.7c26.1,12.1,66.2,32.6,88.4,50.8
			c5.1,3.9,12.3,11.8,17,16.2c13.9,13.2,50.8,20.5,102.7,54.3c-11.3-0.2-22.6,0.8-32,5c-6.3,2.6-12.7,3.5-12.3,3.4
			c-45,5-122.4-13.8-130.2,16.7c-1,3.7,0.3,5.5-4.4,7.3c-52.9-41.3-21.5-52.4-66.5-87.2c-25-19.3,2.3-40.4-107.8-95.2
			c87.8,46.8,86.3,70,94.6,85.1c7.2,13.4,14.2,14.7,22.9,23.7c10.3,10.1,13.8,27.4,20.7,43.2c4.4,9.9,8.9,17,27.4,32.7
			c-1.2,0.2-2.5,0.5-3.9,0.8c-41.4,4-131.4,4.3-197.2-0.7C482,772.4,492,796.9,493.1,765c0.4-12.5-2.4-18.3-9.9-30.1
			c-21-32.8-6.2-30.1-15.7-57.5c-4.6-13.9-12.8-27-15.9-37.6c-11.7-37.9,24.8-1.4-28.3-116.7c33.8,78.1,28.5,80.5,24.9,96.6
			c-4.7,22.2,8.7,35.5,15.8,58.8c3.9,12.2,2.6,22.7,3,29.9c0.4,17.4,16.8,31.5,19.9,46.8c3.9,16.3-7.8,25.9,0.6,41.1l14.8,28.2
			c-19.2-1.6-35.9-3.8-48.1-6.4c-8.4-1.6-36.7-11.2-89.1-7.6c-57.4,2.7-85.2,12.3-103.8,7.2c-19.4-5.2-41.3-12.8-69.8-15.1
			c-81.7-7.6-93,42.8-279.1-8.8c-28.9-8.1-61.8-10.5-66.9-19.9c1.3,2.7,4.1,4.3,6.7,5.6c9.1,4.7,109.2,31.5,128,35.4
			c145.8,29.5,146.3-21.2,244.6,3.4c65,15.7,20.1,14.5,106,5.9c134.9-13,71.1,15.2,281,14.7c22.3,0,85.3-0.7,106.8-7.1
			c14.3-4.4,12.2-9,13.6-14.4c1.1-6.3,13.7-10.5,14.1-10.7c34.5-6.3,96.7,2.5,116.2-5.5c14.1-5.9,82.1-5.8,88.2-11.8
			C944.7,794.5,911.5,789.7,911.5,789.7z"/>
		<circle class="st7" cx="306.7" cy="496.7" r="1.3"/>
		<circle class="st7" cx="319.6" cy="481.9" r="1.2"/>
		<circle class="st7" cx="323.5" cy="513.2" r="1.5"/>
		<circle class="st7" cx="344.3" cy="458.6" r="1.1"/>
		<circle class="st7" cx="288.2" cy="506" r="1"/>
		<circle class="st7" cx="262.6" cy="522.2" r="0.9"/>
		<circle class="st7" cx="372.6" cy="491.2" r="1.3"/>
		<circle class="st8" cx="373.3" cy="452" r="0.7"/>
		<circle class="st8" cx="285.4" cy="515.1" r="1.8"/>
		<circle class="st8" cx="115.3" cy="641.4" r="1.8"/>
		<circle class="st8" cx="303.5" cy="510.3" r="1.8"/>
	</g>
</g>
</svg>
