<?xml version="1.0" encoding="utf-8"?>
<!-- Generator: Adobe Illustrator 21.1.0, SVG Export Plug-In . SVG Version: 6.00 Build 0)  -->
<svg version="1.1" id="Слой_1" xmlns="http://www.w3.org/2000/svg" xmlns:xlink="http://www.w3.org/1999/xlink" x="0px" y="0px"
	 viewBox="0 0 1000 1000" style="enable-background:new 0 0 1000 1000;" xml:space="preserve">
<style type="text/css">
	.st0{fill:#F8F8F8;}
	.st1{clip-path:url(#SVGID_2_);}
	.st2{fill:#8381DB;}
	.st3{display:none;}
	.st4{display:inline;fill:#6563D1;}
	.st5{display:inline;opacity:0.4;fill:#6563D1;}
	.st6{display:inline;opacity:0.2;fill:#6563D1;}
	.st7{display:inline;opacity:0.3;fill:#4742BA;}
	.st8{display:inline;}
	.st9{fill:#B9BFFD;}
	.st10{display:inline;opacity:0.3;fill:#B9BFFD;}
	.st11{display:inline;fill:#FFD59C;}
	.st12{fill:#23207D;}
	.st13{fill:#1B1961;}
	.st14{opacity:0.3;fill:#23207D;}
	.st15{fill:#9391E0;}
	.st16{fill:#3931AA;}
	.st17{fill:#3B35AB;}
	.st18{fill:#463EC9;}
	.st19{fill:#2B277D;}
	.st20{fill:#716FD9;}
	.st21{fill:#8684D9;}
	.st22{fill:#706EDB;}
	.st23{fill:#4D4CB0;}
	.st24{fill:#36358C;}
	.st25{opacity:0.3;fill:#4D4CB0;}
	.st26{opacity:0.3;fill:#706EDB;}
	.st27{fill:#9290DF;}
	.st28{fill:#434299;}
	.st29{fill:#5554C2;}
	.st30{fill:#393882;}
</style>
<circle class="st0" cx="500" cy="500" r="499.5"/>
<g>
	<defs>
		<circle id="SVGID_1_" cx="500" cy="500" r="499.5"/>
	</defs>
	<clipPath id="SVGID_2_">
		<use xlink:href="#SVGID_1_"  style="overflow:visible;"/>
	</clipPath>
	<g class="st1">
		<g>
			<path class="st2" d="M201.2,401.9c3.8-12.2,10.1-23.6,18.1-34.1c8.1-10.2,18.6-19.6,32.1-24.5c13.4-5.2,29.1-3.9,42,1.5
				c13,5.6,23.9,14,33.3,23.4l-14.1,4.8c1.2-7,2.9-13,5.4-19.2c2.6-6.1,5.7-12.1,10.3-17.4c4.5-5.3,10.2-10,16.9-12.8
				c6.7-3,14.1-3.7,20.8-2.9c13.7,1.6,25.1,7.8,35.1,14.8c10,7.2,18.9,15.5,26.8,24.7c-10.2-6.4-20.3-12.8-30.9-17.8
				c-10.4-5.1-21.5-8.8-31.8-8.9c-10.4,0-18.9,4.5-24.8,12.7c-5.9,7.9-9.8,19-11.4,29l-2.6,16.4l-11.5-11.6
				c-8.4-8.5-17.7-15.9-27.9-20.5c-5-2.3-10.3-4.2-15.6-4.7c-5.4-0.6-10.8-0.2-16.1,1.1c-10.7,2.7-21,9.3-29.9,17.5
				C216.3,381.6,208.4,391.4,201.2,401.9z"/>
			<path class="st2" d="M154.4,324.9c1.8-5.9,4.9-11.4,8.7-16.4c3.9-4.9,8.9-9.4,15.4-11.8c6.4-2.5,14-1.9,20.2,0.7
				c6.2,2.7,11.5,6.7,16,11.2l-6.8,2.3c0.6-3.4,1.4-6.2,2.6-9.2c1.2-2.9,2.7-5.8,5-8.4c2.2-2.5,4.9-4.8,8.1-6.2
				c3.2-1.4,6.8-1.8,10-1.4c6.6,0.7,12.1,3.8,16.9,7.1c4.8,3.5,9.1,7.5,12.9,11.9c-4.9-3.1-9.8-6.2-14.9-8.6
				c-5-2.5-10.3-4.2-15.3-4.3c-5,0-9.1,2.2-12,6.1c-2.8,3.8-4.7,9.1-5.5,14l-1.3,7.9l-5.5-5.6c-4-4.1-8.5-7.6-13.4-9.9
				c-2.4-1.1-4.9-2-7.5-2.3c-2.6-0.3-5.2-0.1-7.8,0.5c-5.2,1.3-10.1,4.5-14.4,8.4C161.7,315.1,157.9,319.8,154.4,324.9z"/>
			<path class="st2" d="M604.8,429.3c5.3-7.3,12-13.5,19.7-18.6c7.7-5,16.8-8.9,26.8-9.1c10.1-0.5,20.3,4,27.6,10.4
				c7.4,6.6,12.8,14.7,16.9,23l-10.5,0c2.3-4.4,4.8-8,7.9-11.6c3.1-3.5,6.5-6.8,10.7-9.3c4.2-2.5,9-4.3,14.1-4.7
				c5.1-0.5,10.2,0.7,14.5,2.7c8.7,4.1,14.9,10.8,20,17.8c5,7.1,9.1,14.6,12.3,22.4c-5.4-6.6-10.6-13.1-16.5-18.7
				c-5.8-5.7-12.3-10.7-19.1-13.1c-6.9-2.4-13.6-1.2-19.4,2.9c-5.7,4-10.8,10.4-14.1,16.7l-5.4,10.3l-5.1-10.3
				c-3.7-7.5-8.2-14.5-13.9-19.9c-2.8-2.7-5.9-5.1-9.4-6.6c-3.4-1.6-7.1-2.5-11-2.9c-7.7-0.6-16,1.5-23.8,5
				C619.4,419.2,611.9,423.9,604.8,429.3z"/>
		</g>
		<g>
			<g>
				<g>
					<g class="st3">
						<path class="st4" d="M4129.2,649c-43.3-14.4-87.5-24.5-132.3-30.9c-173.4-25-355.5,4.8-525.5,52.8
							c-213.8,60.5-418.9,148.9-636.9,193.8c-122.5,25.2-250.7,37.3-361.6,92.8c-100.2,50.1-179.2,132.1-271.4,193.8
							c-10-4.1-20-8.2-30.1-12.1c-127.2-49.4-260.7-82.4-396.3-97c-218.8-23.6-444.3-1.3-656-61.4c-62.3-17.7-122.8-42.5-186.4-54.3
							c-164-30.5-332.5,26.6-498.9,14.2C233.5,925.7,51.4,811.7-148.6,792.1c-125.6-12.3-279.6,19.9-419.6,82.5
							c-10.1,4.5-20.2,9.2-30.1,14c-124.9,60.7-235.7,145.4-300.7,243.8c-195.8,296.3,134.4,636.4,333.6,645.5
							c483.6,22.2,1054.6,146.5,1538.1,168.7c34.8-16.8,69-34.6,103.6-52.6c23.9-12.4,48.7-28.7,74.1-47.8h2949.3L4129.2,649z
							 M2080.9,1213c-73.6,25.9-152.8,35.9-231.1,48.7c103.7-34.5,208.9-64.3,313.3-96.2c10.9-3.3,21.8-6.8,32.6-10.2
							c-24.1,15.8-49.1,30.2-75.7,42.2C2107.2,1203.2,2094.1,1208.3,2080.9,1213z"/>
						<path class="st5" d="M2193.5,1324.1c0,0-1726.9,333.3-1658.6,349.4c38.9,9.1,1098.9-36.3,2005.1-77.2
							c619.4-28,1170.3-385.1,1468.8-928.5c18-32.8,36.9-51.6,56.2-50.4c132.5,8,236.9,168.7,253,192.8
							c16.1,24.1-68.3,1232.9-68.3,1232.9S221.7,2059,209.6,2059s-506-321.3-506-321.3S1731.7,1087.1,2193.5,1324.1z"/>
						<path class="st6" d="M1340.1,1124.3L296,939.5l293.1,136.6l-991.9-136.6l357.4-20.1l-521.9-44.9c140-62.5,294-94.8,419.6-82.5
							c200,19.6,382.2,133.7,582.6,148.5c166.4,12.3,334.9-44.8,498.9-14.2c63.7,11.9,124.2,36.6,186.4,54.3
							c211.7,60.2,437.2,37.8,656,61.4c135.7,14.6,269.2,47.6,396.3,97l-892.7-67L1340.1,1124.3z"/>
						<path class="st7" d="M3020.8,893.2l535.6-77.6c0,0-650.1,132-650.1,143.7c0,11.4,696.8-51.6,726.8-54.3L2771.4,1033
							l568.5,104.9c-224.9-36.7-812.7,20-1259,75c13.3-4.6,26.3-9.8,39.1-15.5c131.1-59,224.7-175.8,353.1-239.9
							c110.9-55.4,239.1-67.5,361.6-92.8c218-44.9,423.1-133.3,636.9-193.8c169.9-48.1,352.1-77.8,525.5-52.8l-367,73.2l94.1,93.2
							C3544.1,710.8,3020.8,893.2,3020.8,893.2z"/>
					</g>
					<g class="st3">
						<g class="st8">
							<path class="st9" d="M2884.3,1181c-5.1,25-79.6,48.7-204,73.1c-62.8,12.3-138.3,24.8-224,37.8c-59.5,9-123.9,18.1-192.4,27.6
								c-73.9,10.2-152.4,20.8-234.6,31.7c-191,25.5-401.6,53.4-618.4,85c-76,11.1-152.6,22.6-229.5,34.6
								c-61.6,9.6-123.3,19.6-184.9,29.9c-89,14.9-177.6,30.6-264.9,47.2c-102.6,19.4-203.4,39.9-300.9,61.7
								c-59.5,13.4-117.8,27.2-174.6,41.5c-360.8,91-659.3,202.9-810.4,343.8c137.8-284.7-583.3,262.4-263.9-214.4
								c96.9-144.6,343.9-266.3,660.4-362.9c53.3-16.3,108.6-31.8,165.5-46.7c93.4-24.4,191-46.8,291.1-67.3
								c86-17.6,174-33.7,262.7-48.4c62.1-10.2,124.6-19.8,187.2-28.6c79.5-11.1,159-21.1,237.8-29.9
								c242.8-27.1,478.8-42.8,686.2-46.7c108-2,208.2-0.8,297.5,3.7c65.5,3.3,125.1,8.4,177.6,15.2
								c-46-80.4-173.6-70.8-245.8-107.8c21.2-3.4,67.6-6.9,129.2-9.3c78-3.1,180.4-4.5,287.1-2.2
								C2596.2,1055.8,2903.3,1087.2,2884.3,1181z"/>
						</g>
						<path class="st10" d="M16,1686.1c-162,48.9-242.4-190.5-85.4-253.7c3.3-1.3,6.6-2.6,10-3.9
							c216.9-84.3,1317.2-120.5,1289.1-180.7c-28.1-60.2,24.1-64.3,128.5-64.3c104.4,0,859.4,40.2,851.4-16.1
							c-8-56.2-164.7-92.4-164.7-92.4s618.5-12,650.6,32.1c32.1,44.2-104.4,20.1-104.4,20.1s168.7,60.2,92.4,92.4
							c-76.3,32.1-1012,180.7-1052.2,160.6c-40.2-20.1-1485.9,253-1602.4,301.2C24.7,1683.2,20.4,1684.7,16,1686.1z"/>
					</g>
					<g class="st3">
						<path class="st11" d="M3419.6,674.3l-35.2-6.8C3396.7,669.6,3408.5,671.9,3419.6,674.3z"/>
						<g class="st8">
							<polygon class="st12" points="3332,1542.6 2888.2,1542.6 2914.7,1434.9 3020.2,1336.5 2926.2,1388.6 2965.4,1229.4 
								3036.2,1162.1 2974.9,1191.1 2998.5,1095.9 3062.5,1051 3004.4,1071.5 3060.5,844.5 3099.6,686.4 3209.7,1091.8 3131.2,1051 
								3221.2,1134.3 3266.4,1300.4 3184,1251.8 3278.9,1346.7 3294,1402.5 							"/>
							<polygon class="st13" points="3110.1,1065.1 3116.1,1542.5 3104.1,1542.5 							"/>
							<path class="st14" d="M3294,1402.5c-33.3,6.1-68.8-10.7-90.9-36.9c-24.4-29.1-34.6-67.5-38.9-105.2
								c-4.3-37.7-3.3-75.9-8.4-113.4c-11.4-81.5-51.2-155.9-77.9-233.8c-7.9-23.5-13.8-46.4-17.5-68.7l39-158.1l110.1,405.4
								l-78.5-40.8l90.1,83.3l45.1,166.1l-82.3-48.6l94.8,94.8L3294,1402.5z"/>
						</g>
						<g class="st8">
							<polygon class="st12" points="3654.5,1526.5 3210.6,1526.5 3237.2,1418.8 3342.7,1320.3 3248.7,1372.5 3287.9,1213.3 
								3358.7,1146 3297.4,1175 3321,1079.8 3385,1034.9 3326.9,1055.4 3383,828.4 3422.1,670.3 3532.2,1075.7 3453.7,1034.9 
								3543.7,1118.2 3588.8,1284.3 3506.5,1235.7 3601.4,1330.6 3616.5,1386.4 							"/>
							<polygon class="st13" points="3432.6,1049 3438.6,1526.4 3426.6,1526.4 							"/>
							<path class="st14" d="M3616.5,1386.4c-33.3,6.1-68.8-10.7-90.9-36.9c-24.4-29.1-34.6-67.5-38.9-105.2
								c-4.3-37.7-3.3-75.9-8.4-113.4c-11.4-81.5-51.2-155.9-77.9-233.8c-7.9-23.5-13.8-46.4-17.5-68.7l39-158.1l110.1,405.4
								l-78.5-40.8l90.1,83.3l45.1,166.1l-82.3-48.6l94.8,94.8L3616.5,1386.4z"/>
						</g>
						<g class="st8">
							<path class="st2" d="M3544.7,1811.6h-469.5l32.2-154.9l96.3-76.6l-91.4,53.1l34.5-166.7l72.9-72.9l-67.3,45.7l25.1-120.8
								l48.8-31.1l-44.2,8.9l41.5-200l47.6-229.9l134.7,465.3l-63.9-28.2l71.4,54.2l62.5,215.5c-36.3-24.7-99.7-67.7-107.5-72.9
								l119.2,113.8l25.5,88L3544.7,1811.6z"/>
							<path class="st15" d="M3513.1,1702c-24.3,27-62.1,42.2-94.1,27.2c-33.4-15.4-47.3-54.2-57.9-89.3
								c-18.7-61.7-37.6-123.5-56.3-185.4c-18.7-61.5-37.6-123.5-49.4-186.7c-10.6-57.1-16.4-116.1-31.8-171.5l47.6-229.9
								l134.7,465.3l-63.9-28.2l71.4,54.2l62.5,215.5c-36.3-24.7-99.7-67.7-107.5-72.9l119.2,113.8L3513.1,1702z"/>
							<polygon class="st16" points="3282.5,1062.4 3319.7,1811.2 3300.4,1811.9 							"/>
						</g>
						<g class="st8">
							<path class="st17" d="M3219.2,1764.3h-469.5l32.2-154.9l96.3-76.6l-91.4,53.1l34.5-166.7l72.9-72.9l-67.3,45.7l25.1-120.8
								l48.8-31.1l-44.2,8.9l41.5-200l47.6-229.9l134.7,465.3l-63.9-28.2l71.4,54.2l62.5,215.5c-36.3-24.7-99.7-67.7-107.5-72.9
								l119.2,113.8l25.5,88L3219.2,1764.3z"/>
							<path class="st18" d="M3187.6,1654.7c-24.3,27-62.1,42.2-94.1,27.2c-33.4-15.4-47.3-54.2-57.9-89.3
								c-18.7-61.7-37.6-123.5-56.3-185.4c-18.7-61.5-37.6-123.5-49.4-186.7c-10.6-57.1-16.4-116.1-31.8-171.5l47.6-229.9
								l134.7,465.3l-63.9-28.2l71.4,54.2l62.5,215.5c-36.3-24.7-99.7-67.7-107.5-72.9l119.2,113.8L3187.6,1654.7z"/>
							<polygon class="st19" points="2957,1015.1 2994.2,1763.9 2974.9,1764.6 							"/>
						</g>
						<g class="st8">
							<polygon class="st17" points="3787.4,1769.8 3343.6,1769.8 3370.1,1662.2 3475.6,1563.7 3381.6,1615.9 3420.8,1456.7 
								3491.6,1389.3 3430.3,1418.3 3453.9,1323.2 3517.9,1278.2 3459.8,1298.8 3515.9,1071.7 3555,913.7 3665.1,1319 
								3586.6,1278.2 3676.6,1361.5 3721.8,1527.6 3639.4,1479.1 3734.3,1573.9 3749.4,1629.7 							"/>
							<polygon class="st19" points="3565.5,1292.3 3573.7,1769.8 3557.3,1769.8 							"/>
							<path class="st18" d="M3749.4,1629.7c-33.3,6.1-68.8-10.7-90.9-36.9c-24.4-29.1-34.6-67.5-38.9-105.2
								c-4.3-37.7-3.3-75.9-8.4-113.4c-11.4-81.5-51.2-155.9-77.9-233.8c-7.9-23.5-13.8-46.4-17.5-68.7l39-158.1l110.1,405.4
								l-78.5-40.8l90.1,83.3l45.1,166.1l-82.3-48.6l94.8,94.8L3749.4,1629.7z"/>
						</g>
					</g>
					<g>
						<g>
							<g>
								<path class="st20" d="M1736.7,1114.3c0,0.6,0,1.3,0,1.9h-229.1c0-0.6,0-1.3,0-1.9c0-46.7,27.9-86.9,68-104.7
									c14.2-6.4,30-9.9,46.6-9.9c51.3,0,94.7,33.7,109.3,80.2C1734.9,1090.7,1736.7,1102.3,1736.7,1114.3z"/>
								<path class="st21" d="M1731.4,1079.9c-8.5,4.4-19.5,2.8-28-1.9c-9.1-5-16.2-13.1-23.3-20.7c-7.1-7.6-14.9-15.1-24.7-18.8
									c-21.7-8.1-48.9,4.6-68-8.6c-6.8-4.7-10.8-12.3-12-20.2c14.2-6.4,30-9.9,46.6-9.9C1673.4,999.7,1716.8,1033.4,1731.4,1079.9
									z"/>
								<g>
									<polygon class="st16" points="1618.3,1116.2 1620.2,1027.7 1622.1,1116.2 									"/>
									<polygon class="st16" points="1670.5,1034.1 1621.3,1089.1 1619.4,1085 									"/>
									<polygon class="st16" points="1562.2,1058.9 1620.7,1103.2 1618.3,1106.2 									"/>
									<polygon class="st16" points="1534.9,1089.5 1599.3,1086.8 1602.5,1091.1 									"/>
									<polygon class="st16" points="1706.1,1083.7 1645.6,1061.9 1647,1058.4 									"/>
								</g>
							</g>
							<g>
								<g>
									<path class="st20" d="M624.4,1160.5c0,0.5,0,1,0,1.4H451.2c0-0.5,0-1,0-1.4c0-35.3,21.1-65.7,51.4-79.1
										c10.8-4.9,22.7-7.5,35.2-7.5c38.8,0,71.6,25.5,82.6,60.6C623.1,1142.7,624.4,1151.5,624.4,1160.5z"/>
									<path class="st21" d="M620.5,1134.5c-6.4,3.3-14.7,2.1-21.2-1.5c-6.9-3.8-12.2-9.9-17.6-15.6c-5.4-5.7-11.3-11.4-18.7-14.2
										c-16.4-6.1-37,3.5-51.4-6.5c-5.1-3.5-8.2-9.3-9-15.3c10.8-4.9,22.7-7.5,35.2-7.5C576.6,1073.9,609.4,1099.4,620.5,1134.5z"
										/>
									<g>
										<polygon class="st16" points="534.9,1162 536.4,1095.1 537.8,1162 										"/>
										<polygon class="st16" points="574.4,1099.9 537.2,1141.5 535.8,1138.4 										"/>
										<polygon class="st16" points="492.6,1118.7 536.8,1152.2 535,1154.4 										"/>
										<polygon class="st16" points="471.9,1141.8 520.6,1139.8 523,1143 										"/>
										<polygon class="st16" points="601.3,1137.4 555.6,1121 556.6,1118.3 										"/>
									</g>
								</g>
								<g>
									<path class="st22" d="M526.4,1185.7c0,0.4,0,0.7,0,1.1H390.2c0-0.4,0-0.8,0-1.1c0-27.7,16.6-51.6,40.4-62.2
										c8.5-3.8,17.8-5.9,27.7-5.9c30.5,0,56.3,20,65,47.6C525.3,1171.7,526.4,1178.6,526.4,1185.7z"/>
									<path class="st22" d="M523.3,1165.2c-5.1,2.6-11.6,1.6-16.6-1.2c-5.4-3-9.6-7.8-13.8-12.3c-4.2-4.5-8.9-9-14.7-11.1
										c-12.9-4.8-29.1,2.7-40.4-5.1c-4-2.8-6.4-7.3-7.1-12c8.5-3.8,17.8-5.9,27.7-5.9C488.8,1117.6,514.6,1137.6,523.3,1165.2z"
										/>
									<g>
										<polygon class="st16" points="456.1,1186.8 457.2,1134.2 458.3,1186.8 										"/>
										<polygon class="st16" points="487.1,1138 457.8,1170.7 456.7,1168.3 										"/>
										<polygon class="st16" points="422.8,1152.8 457.5,1179.1 456.1,1180.9 										"/>
										<polygon class="st16" points="406.5,1170.9 444.8,1169.4 446.7,1171.9 										"/>
										<polygon class="st16" points="508.3,1167.5 472.3,1154.6 473.1,1152.5 										"/>
									</g>
								</g>
							</g>
						</g>
						<g>
							<g>
								<polygon class="st23" points="547,950.6 304.6,950.6 319.1,891.8 376.7,838.1 325.4,866.6 346.8,779.6 385.4,742.9 
									352,758.7 364.8,706.7 399.8,682.2 368.1,693.4 398.7,569.5 420,483.2 480.2,704.5 437.3,682.2 486.5,727.7 511.1,818.4 
									466.1,791.9 517.9,843.6 526.2,874.1 								"/>
								<polygon class="st24" points="425.8,689.9 428.8,950.6 422.8,950.6 								"/>
								<path class="st25" d="M526.2,874.1c-18.2,3.3-37.6-5.8-49.6-20.1c-13.3-15.9-18.9-36.9-21.2-57.4
									c-2.3-20.6-1.8-41.4-4.6-61.9c-6.2-44.5-28-85.1-42.5-127.6c-4.3-12.9-7.6-25.3-9.5-37.5l21.3-86.3l60.1,221.3l-42.9-22.3
									l49.2,45.5l24.6,90.7l-44.9-26.5l51.8,51.8L526.2,874.1z"/>
							</g>
							<g>
								<polygon class="st23" points="183.5,926.5 -58.8,926.5 -44.4,867.7 13.3,814 -38.1,842.5 -16.7,755.5 22,718.8 -11.5,734.6 
									1.4,682.6 36.4,658.1 4.6,669.3 35.3,545.4 56.6,459.1 116.7,680.4 73.8,658.1 123,703.6 147.6,794.3 102.7,767.8 
									154.5,819.5 162.7,850 								"/>
								<polygon class="st24" points="62.3,665.8 65.3,926.5 59.3,926.5 								"/>
								<path class="st25" d="M162.7,850c-18.2,3.3-37.6-5.8-49.6-20.1C99.8,814,94.2,793,91.9,772.4c-2.3-20.6-1.8-41.4-4.6-61.9
									c-6.2-44.5-28-85.1-42.5-127.6c-4.3-12.9-7.6-25.3-9.5-37.5l21.3-86.3l60.1,221.3l-42.9-22.3l49.2,45.5l24.6,90.7
									l-44.9-26.5l51.8,51.8L162.7,850z"/>
							</g>
							<g>
								<polygon class="st23" points="374.3,962.7 131.9,962.7 146.4,903.9 204,850.1 152.7,878.6 174.1,791.7 212.7,754.9 
									179.3,770.7 192.1,718.8 227.1,694.2 195.4,705.5 226,581.5 247.3,495.2 307.5,716.5 264.6,694.2 313.8,739.7 338.4,830.4 
									293.5,803.9 345.2,855.7 353.5,886.2 								"/>
								<polygon class="st24" points="253.1,701.9 256.1,962.6 250.1,962.6 								"/>
								<path class="st25" d="M353.5,886.2c-18.2,3.3-37.6-5.8-49.6-20.1c-13.3-15.9-18.9-36.9-21.2-57.4
									c-2.3-20.6-1.8-41.4-4.6-61.9c-6.2-44.5-28-85.1-42.5-127.6c-4.3-12.9-7.6-25.3-9.5-37.5l21.3-86.3l60.1,221.3l-42.9-22.3
									l49.2,45.5l24.6,90.7l-44.9-26.5l51.8,51.8L353.5,886.2z"/>
							</g>
							<g>
								<polygon class="st23" points="718.6,974.7 476.3,974.7 490.8,915.9 548.4,862.2 497.1,890.7 518.5,803.7 557.1,767 
									523.7,782.8 536.5,730.8 571.5,706.3 539.8,717.5 570.4,593.6 591.7,507.3 651.8,728.6 609,706.3 658.1,751.8 682.8,842.5 
									637.8,816 689.6,867.7 697.9,898.2 								"/>
								<polygon class="st24" points="597.5,714 600.5,974.7 594.5,974.7 								"/>
								<path class="st25" d="M697.9,898.2c-18.2,3.3-37.6-5.8-49.6-20.1c-13.3-15.9-18.9-36.9-21.2-57.4
									c-2.3-20.6-1.8-41.4-4.6-61.9c-6.2-44.5-28-85.1-42.5-127.6c-4.3-12.9-7.6-25.3-9.5-37.5l21.3-86.3l60.1,221.3L609,706.3
									l49.2,45.5l24.6,90.7L637.8,816l51.8,51.8L697.9,898.2z"/>
							</g>
							<g>
								<polygon class="st23" points="1007.9,958.9 765.6,958.9 780.1,900.1 837.7,846.4 786.4,874.9 807.8,787.9 846.4,751.2 
									813,767 825.8,715 860.8,690.5 829.1,701.7 859.7,577.8 881,491.5 941.1,712.8 898.3,690.5 947.4,736 972.1,826.7 
									927.1,800.2 978.9,851.9 987.2,882.4 								"/>
								<polygon class="st24" points="886.8,698.2 889.8,958.9 883.8,958.9 								"/>
								<path class="st25" d="M987.2,882.4c-18.2,3.3-37.6-5.8-49.6-20.1c-13.3-15.9-18.9-36.9-21.2-57.4
									c-2.3-20.6-1.8-41.4-4.6-61.9c-6.2-44.5-28-85.1-42.5-127.6c-4.3-12.9-7.6-25.3-9.5-37.5l21.3-86.3l60.1,221.3l-42.9-22.3
									l49.2,45.5l24.6,90.7l-44.9-26.5l51.8,51.8L987.2,882.4z"/>
							</g>
							<g>
								<polygon class="st23" points="1333.2,1001.1 1090.9,1001.1 1105.4,942.3 1163,888.5 1111.7,917 1133,830.1 1171.7,793.3 
									1138.3,809.2 1151.1,757.2 1186.1,732.7 1154.4,743.9 1185,619.9 1206.3,533.6 1266.4,755 1223.6,732.7 1272.7,778.1 
									1297.4,868.8 1252.4,842.3 1304.2,894.1 1312.5,924.6 								"/>
								<polygon class="st24" points="1212.1,740.4 1215.1,1001 1209,1001 								"/>
								<path class="st25" d="M1312.5,924.6c-18.2,3.3-37.6-5.8-49.6-20.1c-13.3-15.9-18.9-36.9-21.2-57.4
									c-2.3-20.6-1.8-41.4-4.6-61.9c-6.2-44.5-28-85.1-42.5-127.6c-4.3-12.9-7.6-25.3-9.5-37.5l21.3-86.3l60.1,221.3l-42.9-22.3
									l49.2,45.5l24.6,90.7l-44.9-26.5l51.8,51.8L1312.5,924.6z"/>
							</g>
							<g>
								<polygon class="st23" points="1152.5,1016.1 910.2,1016.1 924.6,957.3 982.3,903.6 930.9,932.1 952.3,845.2 991,808.4 
									957.5,824.2 970.4,772.3 1005.4,747.7 973.6,759 1004.3,635 1025.6,548.7 1085.7,770 1042.8,747.7 1092,793.2 1116.6,883.9 
									1071.7,857.4 1123.5,909.2 1131.7,939.6 								"/>
								<polygon class="st24" points="1031.3,755.4 1034.4,1016.1 1028.3,1016.1 								"/>
								<path class="st25" d="M1131.7,939.6c-18.2,3.3-37.6-5.8-49.6-20.1c-13.3-15.9-18.9-36.9-21.2-57.4
									c-2.3-20.6-1.8-41.4-4.6-61.9c-6.2-44.5-28-85.1-42.5-127.6c-4.3-12.9-7.6-25.3-9.5-37.5l21.3-86.3l60.1,221.3l-42.9-22.3
									l49.2,45.5l24.6,90.7l-44.9-26.5l51.8,51.8L1131.7,939.6z"/>
							</g>
							<g>
								<path class="st22" d="M1558.2,971.1c-13.6,39.2-87.3,76.8-87.3,76.8s-94.9-28.6-96.4-100.9c-0.3-13.6,2.7-32.7,7.7-54.8
									l22.4,20.2l-19.1-34.3c6.8-27.1,16-57.6,25.7-87.3l23.6,17.7l-18.2-33.7c4.6-13.9,12-34.9,19.8-56.6
									c15.1-42.1,31.3-86.8,31.3-86.8s51.8,168.7,72,238.1l-29.6,46l31.7-38.5c7.4,25.9,13.1,49.2,15.8,66.6
									C1559.6,956.3,1560,965.9,1558.2,971.1z"/>
								<path class="st26" d="M1557.6,943.6c-11,3.3-24.4,0.4-34.5-5.8c-24.5-15.1-36.1-44.4-41.9-72.6
									c-5.8-28.1-7.4-57.5-18.9-83.9c-6.5-14.9-16-28.4-21.4-43.8c-2.2-6.2-3.7-12.7-4.6-19.3c15.1-42.1,31.3-86.8,31.3-86.8
									s51.8,168.7,72,238.1l-29.6,46l31.7-38.5C1549.2,902.8,1554.9,926.2,1557.6,943.6z"/>
								<path class="st16" d="M1466.9,770.9l4.5,305.7c0,2.5-2,4.5-4.5,4.6c-2.5,0-4.5-2-4.6-4.5c0,0,0-0.1,0-0.1L1466.9,770.9z"/>
							</g>
							<g>
								<path class="st22" d="M1254.8,1047h-212.3l14.6-70.1l43.5-34.6l-41.4,24l15.6-75.4l33-33l-30.4,20.7l11.3-54.6l22.1-14
									l-20,4l18.8-90.5l21.5-104l60.9,210.4l-28.9-12.7l32.3,24.5l28.3,97.4c-16.4-11.2-45.1-30.6-48.6-33l53.9,51.5l11.5,39.8
									L1254.8,1047z"/>
								<path class="st26" d="M1240.5,997.4c-11,12.2-28.1,19.1-42.6,12.3c-15.1-7-21.4-24.5-26.2-40.4c-8.5-27.9-17-55.8-25.5-83.8
									c-8.5-27.8-17-55.8-22.3-84.4c-4.8-25.8-7.4-52.5-14.4-77.6l21.5-104l60.9,210.4l-28.9-12.7l32.3,24.5l28.3,97.4
									c-16.4-11.2-45.1-30.6-48.6-33l53.9,51.5L1240.5,997.4z"/>
								<polygon class="st16" points="1136.2,708.2 1153,1046.8 1144.3,1047.1 								"/>
							</g>
							<g>
								<path class="st2" d="M655.4,998.8H399l17.6-84.6l52.6-41.8l-49.9,29l18.9-91l39.8-39.8l-36.8,25l13.7-65.9l26.6-17
									l-24.1,4.8L480,608.3l26-125.5l73.5,254l-34.9-15.4l39,29.6l34.1,117.6c-19.8-13.5-54.5-37-58.7-39.8l65.1,62.1l13.9,48
									L655.4,998.8z"/>
								<path class="st15" d="M638.1,939c-13.3,14.7-33.9,23.1-51.4,14.8c-18.2-8.4-25.8-29.6-31.6-48.8
									c-10.2-33.7-20.5-67.4-30.8-101.2c-10.2-33.6-20.5-67.4-27-102c-5.8-31.2-9-63.4-17.4-93.6l26-125.5l73.5,254l-34.9-15.4
									l39,29.6l34.1,117.6c-19.8-13.5-54.5-37-58.7-39.8l65.1,62.1L638.1,939z"/>
								<polygon class="st16" points="512.3,589.8 532.5,998.6 522,999 								"/>
							</g>
							<g>
								<polygon class="st2" points="1408.4,1065.1 1166,1065.1 1180.5,1006.3 1238.1,952.5 1186.8,981 1208.2,894.1 1246.9,857.3 
									1213.4,873.1 1226.3,821.2 1261.2,796.7 1229.5,807.9 1260.2,683.9 1281.5,597.6 1341.6,818.9 1298.7,796.7 1347.9,842.1 
									1372.5,932.8 1327.6,906.3 1379.3,958.1 1387.6,988.6 								"/>
								<polygon class="st16" points="1287.2,804.4 1291.7,1065 1282.7,1065 								"/>
								<path class="st27" d="M1387.6,988.6c-18.2,3.3-37.6-5.8-49.6-20.1c-13.3-15.9-18.9-36.9-21.2-57.4
									c-2.3-20.6-1.8-41.4-4.6-61.9c-6.2-44.5-28-85.1-42.5-127.6c-4.3-12.9-7.6-25.3-9.5-37.5l21.3-86.3l60.1,221.3l-42.9-22.3
									l49.2,45.5l24.6,90.7l-44.9-26.5l51.8,51.8L1387.6,988.6z"/>
							</g>
							<g>
								<polygon class="st2" points="953.6,1019.9 711.2,1019.9 725.7,961.1 783.3,907.3 732,935.8 753.4,848.9 792,812.1 
									758.6,828 771.5,776 806.4,751.5 774.7,762.7 805.3,638.7 826.6,552.5 886.8,773.8 843.9,751.5 893.1,797 917.7,887.7 
									872.8,861.1 924.5,912.9 932.8,943.4 								"/>
								<polygon class="st16" points="832.4,759.2 836.9,1019.9 827.9,1019.9 								"/>
								<path class="st27" d="M932.8,943.4c-18.2,3.3-37.6-5.8-49.6-20.1c-13.3-15.9-18.9-36.9-21.2-57.4
									c-2.3-20.6-1.8-41.4-4.6-61.9c-6.2-44.5-28-85.1-42.5-127.6c-4.3-12.9-7.6-25.3-9.5-37.5l21.3-86.3l60.1,221.3l-42.9-22.3
									l49.2,45.5l24.6,90.7l-44.9-26.5l51.8,51.8L932.8,943.4z"/>
							</g>
							<g>
								<polygon class="st22" points="296,1001.8 53.6,1001.8 68.1,943 125.7,889.3 74.4,917.8 95.8,830.8 134.4,794.1 101,809.9 
									113.8,757.9 148.8,733.4 117.1,744.6 147.7,620.7 169,534.4 229.2,755.7 186.3,733.4 235.5,778.9 260.1,869.6 215.1,843.1 
									266.9,894.8 275.2,925.3 								"/>
								<polygon class="st16" points="174.8,741.1 179.3,1001.8 170.3,1001.8 								"/>
								<path class="st26" d="M275.2,925.3c-18.2,3.3-37.6-5.8-49.6-20.1c-13.3-15.9-18.9-36.9-21.2-57.4
									c-2.3-20.6-1.8-41.4-4.6-61.9c-6.2-44.5-28-85.1-42.5-127.6c-4.3-12.9-7.6-25.3-9.5-37.5l21.3-86.3l60.1,221.3l-42.9-22.3
									l49.2,45.5l24.6,90.7l-44.9-26.5l51.8,51.8L275.2,925.3z"/>
							</g>
							<g>
								<path class="st2" d="M477.7,1041H221.3l17.6-84.6l52.6-41.8l-49.9,29l18.9-91l39.8-39.8l-36.8,25l13.7-65.9l26.6-17
									l-24.1,4.8l22.6-109.2l26-125.5l73.5,254L367,763.6l39,29.6l34.1,117.6c-19.8-13.5-54.5-37-58.7-39.8l65.1,62.1l13.9,48
									L477.7,1041z"/>
								<path class="st15" d="M460.4,981.1c-13.3,14.7-33.9,23.1-51.4,14.8c-18.2-8.4-25.8-29.6-31.6-48.8
									c-10.2-33.7-20.5-67.4-30.8-101.2c-10.2-33.6-20.5-67.4-27-102c-5.8-31.2-9-63.4-17.4-93.6l26-125.5l73.5,254L367,763.6
									l39,29.6l34.1,117.6c-19.8-13.5-54.5-37-58.7-39.8l65.1,62.1L460.4,981.1z"/>
								<polygon class="st16" points="334.5,631.9 354.8,1040.7 344.3,1041.1 								"/>
							</g>
							<g>
								<polygon class="st2" points="1065.5,1039.9 850.6,1039.9 861.8,996.1 883,984.3 863.5,989 877,935.9 920.1,910.2 881,920 
									900.1,844.6 930.7,825.5 903,833.1 915.9,782.1 927.2,773.1 934.7,767.3 927.4,769.8 918.2,773 937.5,696.9 955.9,624.3 
									998.7,786.6 978.4,779.2 1002.5,801.1 1016.7,854.9 988.9,838.7 1020.5,869.1 1039.5,941.4 981,903.6 1044.8,961.3 
									1060.2,1019.8 								"/>
								<path class="st15" d="M1060.2,1019.8c-3.6,2.5-7.5,4.4-11.8,5.5c-21.2,5.6-43.8-8.3-55-27.2s-13.6-41.5-15.3-63.3
									c-1.7-21.9-3.1-44.5-12.6-64.2c-8.2-16.8-21.8-30.5-29.7-47.4c-7.4-15.7-9.3-32.7-8.6-50.1c0-1.1,0.1-2.2,0.2-3.3
									c1-18.5,4.8-37.3,7.8-55.4c1-6,1.7-11.8,2.3-17.5l18.3-72.6l42.8,162.4l-20.3-7.5l24.1,21.9l14.2,53.8l-27.8-16.1l31.5,30.3
									l19.1,72.3L981,903.6l63.8,57.7L1060.2,1019.8z"/>
								<polygon class="st16" points="958.1,722.2 962.1,1039.9 954.1,1039.9 								"/>
							</g>
							<g>
								<path class="st22" d="M752.4,962.4c-13.6,39.2-87.3,76.8-87.3,76.8s-94.9-28.6-96.4-100.9c-0.3-13.6,2.7-32.7,7.7-54.8
									l22.4,20.2l-19.1-34.3c6.8-27.1,16-57.6,25.7-87.3l23.6,17.7L610.7,766c4.6-13.9,12-34.9,19.8-56.6
									c15.1-42.1,31.3-86.8,31.3-86.8s51.8,168.7,72,238.1l-29.6,46l31.7-38.5c7.4,25.9,13.1,49.2,15.8,66.6
									C753.8,947.6,754.2,957.1,752.4,962.4z"/>
								<path class="st26" d="M751.8,934.8c-11,3.3-24.4,0.4-34.5-5.8c-24.5-15.1-36.1-44.4-41.9-72.6c-5.8-28.1-7.4-57.5-18.9-83.9
									c-6.5-14.9-16-28.4-21.4-43.8c-2.2-6.2-3.7-12.7-4.6-19.3c15.1-42.1,31.3-86.8,31.3-86.8s51.8,168.7,72,238.1l-29.6,46
									l31.7-38.5C743.3,894.1,749.1,917.4,751.8,934.8z"/>
								<path class="st16" d="M661.1,762.1l4.5,305.7c0,2.5-2,4.5-4.5,4.6c-2.5,0-4.5-2-4.6-4.5c0,0,0-0.1,0-0.1L661.1,762.1z"/>
							</g>
							<g>
								<path class="st28" d="M105.8,916.2C92.3,955.4,18.5,993,18.5,993s-94.9-28.6-96.4-100.9c-0.3-13.6,2.7-32.7,7.7-54.8
									l22.4,20.2l-19.1-34.3c6.8-27.1,16-57.6,25.7-87.3l23.6,17.6l-18.2-33.7c4.6-13.9,12-34.9,19.8-56.6
									c15.1-42.1,31.3-86.8,31.3-86.8s51.8,168.7,72,238.1l-29.6,46L89.4,822c7.4,25.9,13.1,49.2,15.8,66.6
									C107.3,901.4,107.6,911,105.8,916.2z"/>
								<path class="st29" d="M105.2,888.6c-11,3.3-24.4,0.4-34.5-5.8c-24.5-15.1-36.1-44.4-41.9-72.6C23,782,21.4,752.7,9.9,726.3
									c-6.5-14.9-16-28.4-21.4-43.8c-2.2-6.2-3.7-12.7-4.6-19.3c15.1-42.1,31.3-86.8,31.3-86.8s51.8,168.7,72,238.1l-29.6,46
									L89.4,822C96.8,847.9,102.5,871.2,105.2,888.6z"/>
								<path class="st30" d="M14.5,715.9l4.5,305.7c0,2.5-2,4.5-4.5,4.6s-4.5-2-4.6-4.5c0,0,0-0.1,0-0.1L14.5,715.9z"/>
							</g>
						</g>
					</g>
				</g>
			</g>
		</g>
	</g>
</g>
</svg>
