<?xml version="1.0" encoding="utf-8"?>
<!-- Generator: Adobe Illustrator 21.1.0, SVG Export Plug-In . SVG Version: 6.00 Build 0)  -->
<svg version="1.1" id="Слой_1" xmlns="http://www.w3.org/2000/svg" xmlns:xlink="http://www.w3.org/1999/xlink" x="0px" y="0px"
	 viewBox="0 0 1000 1000" style="enable-background:new 0 0 1000 1000;" xml:space="preserve">
<style type="text/css">
	.st0{fill:#F8F8F8;}
	.st1{clip-path:url(#SVGID_2_);}
	.st2{fill:#C1D3DD;}
	.st3{clip-path:url(#SVGID_4_);fill:#E0EAEE;}
	.st4{clip-path:url(#SVGID_4_);}
	.st5{clip-path:url(#SVGID_6_);fill:#96B4C8;}
	.st6{clip-path:url(#SVGID_6_);fill:#527E94;}
	.st7{clip-path:url(#SVGID_6_);fill:#004C6B;}
	.st8{clip-path:url(#SVGID_4_);fill:#C1D3DD;}
	.st9{fill:#E0EAEE;}
	.st10{fill:none;stroke:#E0EAEE;stroke-width:3.3759;stroke-miterlimit:10;}
	.st11{fill:#5959B8;}
	.st12{fill:#30306A;}
	.st13{fill:#697580;}
	.st14{display:none;fill:#006800;}
	.st15{display:none;}
	.st16{display:inline;fill:#259B27;}
</style>
<circle class="st0" cx="500" cy="500" r="499.5"/>
<g id="Слой_2">
</g>
<g>
	<defs>
		<circle id="SVGID_1_" cx="500" cy="500" r="499.5"/>
	</defs>
	<clipPath id="SVGID_2_">
		<use xlink:href="#SVGID_1_"  style="overflow:visible;"/>
	</clipPath>
	<g class="st1">
		<g>
			<g>
				<g>
					<g>
						<path class="st2" d="M840.8,333.9c14.5,12.1,43.7,36.3,33.5,58.4c-10.3,22.2-40.3,32.6-60.3,40
							c-33.9,12.5-69.2,20.4-104.4,27.7c-33.3,6.9-67.6,10.1-100.5,18.5c-16.7,4.3-33.7,7-50.5,10.4c-7.5,1.5-5.6,14.5,1.8,14.3
							c56.4-1.6,111.3-8.5,166.6-20.8c34.7-7.7,69.5-17.8,102.1-32.7c21.8-9.9,48-23.2,59.6-47c17-35-18-63.5-43-77.9
							C840,321.5,836,329.8,840.8,333.9L840.8,333.9z"/>
					</g>
					<g>
						<path class="st2" d="M751.2,595.9c12.3-1.5,26,2,26,18.1c0,11.5-9.2,19.2-17.3,24.5c-16.7,11-38.3,14.6-57.4,17.5
							c-36.8,5.7-78.2,0.9-113.1,15.8c-5.9,2.5-5.4,12.1,1.6,12.4c49.5,1.8,100.6,2.2,148.5-13.2c20.5-6.6,42.5-19.3,49.4-42.5
							c3.5-11.6,1.1-24.4-6.6-33.3c-8-9.4-21.6-8.9-32.1-7C746.2,589,747.1,596.4,751.2,595.9L751.2,595.9z"/>
					</g>
					<g>
						<defs>
							<path id="SVGID_3_" d="M843.1,304.5C843.1,304.5,843.1,304.5,843.1,304.5c-0.3-39.8-143.7-71.9-320.3-71.7
								c-148.9,0.2-273.7,23.3-309,54.4c-2.3,1.5-4.4,3.7-6.1,6.7c-1.6,2.3-2.7,4.7-3.3,7.1c-32.8,73.7-33.8,159.5,0.7,233.6
								c18,38.8,45,71.8,76.8,98.1c29.8,24.7,64.7,41.6,95.6,64.5c23.4,17.3,45,39.1,51.5,70.1c8.4,40-4.9,83.3-12.6,122.2
								c-6.4,32.5-12.7,66.4-5.8,99.5c8.6,41.3,35.9,72.5,65.2,98.8c0.6,0.6,1.3,1.1,2,1.6c8.3,13.8,33.7,7.8,32.9-13.2
								c-1.6-41.1,9-78.4,37.4-106.4c26.3-25.9,59.9-42.2,91.3-59.6c37-20.5,74.8-39.5,106.5-69.1c27.2-25.4,59.1-69.9,57.8-111.3
								c-1.1-31.4-27.8-54.3-38.7-82c-13-33.1-11.2-70.8,4-102c12.8-26.4,34.2-47.5,51.6-70.4c19.3-25.4,33.9-53.9,39.4-86.6
								C864.5,360.6,858.4,328.9,843.1,304.5z"/>
						</defs>
						<clipPath id="SVGID_4_">
							<use xlink:href="#SVGID_3_"  style="overflow:visible;"/>
						</clipPath>
						<path class="st3" d="M843.1,304.5C843.1,304.5,843.1,304.5,843.1,304.5c-0.3-39.8-143.7-71.9-320.3-71.7
							c-148.9,0.2-273.7,23.3-309,54.4c-2.3,1.5-4.4,3.7-6.1,6.7c-1.6,2.3-2.7,4.7-3.3,7.1c-32.8,73.7-33.8,159.5,0.7,233.6
							c18,38.8,45,71.8,76.8,98.1c29.8,24.7,64.7,41.6,95.6,64.5c23.4,17.3,45,39.1,51.5,70.1c8.4,40-4.9,83.3-12.6,122.2
							c-6.4,32.5-12.7,66.4-5.8,99.5c8.6,41.3,35.9,72.5,65.2,98.8c0.6,0.6,1.3,1.1,2,1.6c8.3,13.8,33.7,7.8,32.9-13.2
							c-1.6-41.1,9-78.4,37.4-106.4c26.3-25.9,59.9-42.2,91.3-59.6c37-20.5,74.8-39.5,106.5-69.1c27.2-25.4,59.1-69.9,57.8-111.3
							c-1.1-31.4-27.8-54.3-38.7-82c-13-33.1-11.2-70.8,4-102c12.8-26.4,34.2-47.5,51.6-70.4c19.3-25.4,33.9-53.9,39.4-86.6
							C864.5,360.6,858.4,328.9,843.1,304.5z"/>
						<g class="st4">
							<defs>
								<path id="SVGID_5_" d="M826,302.9c0.6,27-135.8,51.3-304.7,54.4c-168.9,3-306.3-16.4-307-43.3
									c-0.6-27,135.8-51.3,304.7-54.4C687.9,256.5,825.4,275.9,826,302.9z"/>
							</defs>
							<clipPath id="SVGID_6_">
								<use xlink:href="#SVGID_5_"  style="overflow:visible;"/>
							</clipPath>
							<path class="st5" d="M826,302.9c0.6,27-135.8,51.3-304.7,54.4c-168.9,3-306.3-16.4-307-43.3c-0.6-27,135.8-51.3,304.7-54.4
								C687.9,256.5,825.4,275.9,826,302.9z"/>
							<path class="st6" d="M781.8,328.1c0.5,23.1-116.2,43.9-260.6,46.5c-144.5,2.6-262-14-262.5-37.1
								c-0.5-23.1,116.1-43.9,260.6-46.5C663.7,288.5,781.3,305.1,781.8,328.1z"/>
							<path class="st7" d="M712.8,354.3c0.5,23.1-85.2,43.3-191.5,45.2c-106.3,1.9-192.9-15.2-193.4-38.3
								c-0.5-23.1,85.2-43.3,191.5-45.2C625.6,314.1,712.2,331.3,712.8,354.3z"/>
						</g>
						<g class="st4">
							<g>
								<path class="st2" d="M162.2,345.9c26.4,25,57.2,44.4,91.1,57.7c35.4,13.9,73.1,21.1,110.8,24.8
									c78.5,7.6,157.8-0.2,235.6-11.3c20.5-2.9,41-6.2,61.4-9.7c18.5-3.2,37.2-5.7,55.4-10.5c3.5-0.9,2.9-6.6-0.9-6.4
									c-16.4,0.6-32.5,3.4-48.7,5.7c-17.7,2.6-35.3,5.2-53,7.7c-38,5.4-76,10.4-114.3,13.5c-76,6-155.1,6.1-228.6-16.8
									c-38.6-12-75.7-30.2-105.4-58C163.4,340.6,160.1,343.8,162.2,345.9L162.2,345.9z"/>
							</g>
						</g>
						<path class="st8" d="M506.5,1086c-12-30.1-25.7-60.8-29.7-93.6c-4.8-39.1,6.1-74.6,17.9-110.9c11.5-35.5,21.2-71.8,18.7-109.9
							c-2.3-34.6-14.6-66.5-34.1-93.8c-31-43.3-80.1-63.3-118.2-97.3c-18.7-16.7-38.1-40.1-39.3-67.4c-1.6-35.2,33.2-74.9,3-94.4
							c-20.4-13.2-45-16-67.8-21.2c-44.3-10.1-95.6-57.1-142.2-33.7C72,385.4,54.1,454.1,41.6,498.1c-17.3,61.2-32,124.6-41.9,187.8
							c-6.1,39.1-7.7,79-2.4,118.4c5,37,16,72.6,29,107.2c46.8,124,133.4,233.1,248.9,285.9c61.6,28.2,137.3,37.5,201.8,16.9
							c21.2-6.8,43.3-19.5,48.4-44.8C531.2,1141.2,516.5,1111.1,506.5,1086z"/>
						<g class="st4">
							<g>
								<path class="st2" d="M827.3,476.3c-46.4,32.1-100.3,52.5-155.5,63.3c-53.8,10.6-108.7,12.6-163.4,13
									c-15.8,0.1-31.5,0.1-47.3,0.2c-15.5,0.1-31.4-0.6-46.8,1.5c-3.1,0.4-3,5.7,0,6.2c13.7,2.1,27.8,1.9,41.7,2.2
									c14.4,0.4,28.8,0.7,43.1,0.7c28.1,0.1,56.3-0.3,84.4-2.2c55-3.7,110.4-12.5,161.7-33.3c30.2-12.2,58.2-28.2,84.7-47.3
									C832.5,478.8,830,474.5,827.3,476.3L827.3,476.3z"/>
							</g>
						</g>
						<g class="st4">
							<g>
								<path class="st2" d="M782.1,531c-46.1,39.6-108.6,46.4-166.8,51.4c-15.9,1.4-32.2,2.5-47.8,6c-2.9,0.6-2.2,5.1,0.7,5.1
									c29.6,0.3,59.7-2.5,89-6.4c29.7-4,59-10.5,86-23.8c15.3-7.6,29.4-17.7,42-29.3C787.2,532.2,784.2,529.2,782.1,531L782.1,531
									z"/>
							</g>
						</g>
						<g class="st4">
							<g>
								<path class="st2" d="M846.7,621.1c-27.9,37.4-66.6,65.3-109.7,82.5c-41.6,16.6-86.4,24.2-130.9,27.4
									c-25,1.8-50.1,2.2-75.1,3.7c-3.2,0.2-3.2,4.8,0,5c45.7,3.3,92.9-0.2,137.9-8.9c44.7-8.6,88.7-24,126-50.6
									c21.9-15.6,40.7-34.7,56.4-56.5C853.4,621,848.7,618.4,846.7,621.1L846.7,621.1z"/>
							</g>
						</g>
						<g class="st4">
							<g>
								<path class="st2" d="M803.1,799.2c-25.1,15.2-54,25.8-82.4,32.9c-29.2,7.3-59.3,10.9-89.3,7.8c-15.9-1.6-31.6-5.4-46.9-10.2
									c-3.2-1-5,3.6-2.2,5.3c25.5,15.6,57.5,18.1,86.8,15.8c31.6-2.5,62.5-10.7,91.6-23c15.8-6.7,30.4-15.2,44.9-24.4
									C808.2,801.7,805.8,797.6,803.1,799.2L803.1,799.2z"/>
							</g>
						</g>
						<g class="st4">
							<g>
								<path class="st9" d="M209.2,626.1c21.9,6.8,42.3,17.2,63.4,26c21.4,8.9,43,13.8,65.9,16.8c45.8,6.1,92.7,5.2,138.3-2.2
									c25.2-4.1,51.3-9.7,74.8-20.1c1.8-0.8,0.5-3.3-1.2-3c-22.2,4.9-44,11-66.4,15c-23,4.1-46.4,6.7-69.7,7.6
									c-22.9,0.9-45.8,0.2-68.6-2.3c-22.4-2.5-44.1-6.4-65.2-14.4c-23.5-9-45.9-20.4-70.1-27.4
									C207.7,621.3,206.6,625.3,209.2,626.1L209.2,626.1z"/>
							</g>
						</g>
						<g class="st4">
							<g>
								<path class="st9" d="M326.8,613.7c20.7,7.3,42.3,11.9,64.3,12.1c21.6,0.1,44.2-3.4,62.8-14.9c1.8-1.1,0.7-4.2-1.5-3.5
									c-20.3,6.5-40.6,11.7-62.1,11.7c-21.1,0-42-3.9-62-10.4C325,607.6,323.7,612.6,326.8,613.7L326.8,613.7z"/>
							</g>
						</g>
						<g class="st4">
							<g>
								<path class="st9" d="M301.3,841.9c71,42,155.1,49.8,235.7,39.3c22.8-3,45.3-8,67.5-14c2.7-0.7,1.5-4.4-1.1-4
									c-77.9,11.6-158.3,22.5-235.4,0.1c-22.2-6.5-43.3-15.6-63.3-27.2C301,833.9,297.6,839.7,301.3,841.9L301.3,841.9z"/>
							</g>
						</g>
						<g class="st4">
							<g>
								<path class="st9" d="M392.1,798c13.3,7.7,29.4,11.4,44.3,14.2c15.6,3,31.2,3.7,47.1,2.5c2.3-0.2,2.3-3.3,0-3.6
									c-15.4-1.5-30.8-3.6-46-6.3c-14.9-2.7-29.1-7.5-43.7-10.8C391.4,793.5,389.9,796.7,392.1,798L392.1,798z"/>
							</g>
						</g>
						<g class="st4">
							<g>
								<path class="st9" d="M105.1,438.5c74.7,32.8,155.5,52.8,237.5,49.4c22.9-0.9,45.7-4.2,67.9-9.8c2.8-0.7,1.5-4.6-1.2-4.2
									c-39.5,6.1-79.7,8.6-119.5,5.6c-39.8-2.9-79-10.7-117.2-22.3c-22-6.7-43.6-14.4-64.8-23.4
									C104.7,432.5,101.9,437.1,105.1,438.5L105.1,438.5z"/>
							</g>
						</g>
					</g>
					<g>
						<g>
							<path class="st9" d="M266,624.7c-9.4,34.1,25.7,52.4,52.6,61.4c38.2,12.7,79.5,16.9,119.6,19c14.6,0.7,29.3,0.9,43.8-0.2
								c2.7-0.2,2.6-3.9,0-4.1c-30.1-2.7-60.2-3.7-90.2-7.3c-19.8-2.4-39.5-5.6-58.7-10.8c-16.1-4.3-32.6-9.9-46.2-19.9
								c-11.9-8.7-19.1-21.6-15.4-36.5C272.3,622.7,266.9,621.2,266,624.7L266,624.7z"/>
						</g>
					</g>
					<g>
						<g>
							<path class="st2" d="M211.7,422.7c-30.4,3.2-138.1,10.6-108.8,65.1c11.1,20.7,36.4,31.2,57.5,38.4
								c27.8,9.5,57.1,14.4,86.1,18.4c14.2,1.9,28.4,3.4,42.6,4.4c5.5,0.4,11,0.8,16.5,1.1c3.7,0.2,7.6,0,11.2,0.6
								c2.5,0.4,3.6-3.4,1.1-3.8c-18.3-3.1-36.6-5.9-55-8.2c-27.6-3.5-55.2-7.5-82.2-14.5c-22.3-5.9-47.6-13.4-64.3-30.2
								c-6.3-6.4-11.1-14.6-11.6-23.7c-0.7-11.4,9.8-18.3,18.9-22.7c14.8-7.1,31.6-10.5,47.7-13.2c13.4-2.2,26.8-3.7,40.3-5
								C215.9,428.8,215.9,422.2,211.7,422.7L211.7,422.7z"/>
						</g>
					</g>
					<path class="st2" d="M874.3,392.3c-10.3,22.2-40.3,32.6-60.3,40c-33.9,12.5-69.2,20.4-104.4,27.7
						c-33.3,6.9-67.6,10.1-100.5,18.5c-16.7,4.3-33.7,7-50.5,10.4c-7.5,1.5-5.6,14.5,1.8,14.3c56.4-1.6,111.3-8.5,166.6-20.8
						c34.7-7.7,69.5-17.8,102.1-32.7c21.8-9.9,48-23.2,59.6-47L874.3,392.3z"/>
					<path class="st2" d="M782.3,595.2l-5.2,18.8c0,11.5-9.2,19.2-17.3,24.5c-16.7,11-38.3,14.6-57.4,17.5
						c-36.8,5.7-78.2,0.9-113.1,15.8c-5.9,2.5-5.4,12.1,1.6,12.4c49.5,1.8,100.6,2.2,148.5-13.2c20.5-6.6,42.5-19.3,49.4-42.5
						C792.3,617,789.9,604.1,782.3,595.2z"/>
				</g>
				<path class="st10" d="M639.6,813.9c134.6-18,215.9-32.6,211.5-69c-2.1-17.4-29.2-29.9-71.7-36.2"/>
				<g>
					<path class="st9" d="M480,1002.8c-51.9-5.8-103.4-22.3-101.7-42.8c0.3-3-2.8-11.4,30-17.8l-0.5,8.4c-22.2,4.3-21.8,8.6-22,10.1
						c-0.8,9.4,35.7,27.3,94.9,33.8L480,1002.8z"/>
				</g>
			</g>
			<g>
				<g>
					<path class="st11" d="M356,885.9c0.5-1.8,0.9-3.6,1.2-5.2c1.8-8.1,2-16.6,1.6-24.8c-0.6-15.4-4.8-34.2-14.8-46.4
						c-6.7-8.2-17.1-14.1-27.3-16.6c-4.8-1.2-10.4-0.9-14.7,1.7c-0.1,0-0.1,0.1-0.2,0.1c-14.4-21.4-39.9-36.2-66-29.8
						c-12.6,3.1-25.2,11.8-30,24.3c-29.2-2.9-62.6,11.8-69.4,41.4c-6.4,27.5,21,46.8,45.7,55.2c-2.9,3.9-4.2,8.5-2.4,14
						c3.1,9.2,13.6,14.2,22.2,17c16.3,5.3,31.6,2.8,45-4.6c1.1,2.6,2.7,5.1,4.7,7.4c10.3,11.8,26.9,13.6,38.1,3.4
						c10.2,6.5,24.5,7.5,35.6,5.8c8.5-1.3,16.3-5.5,21.9-12c2.7-3.2,4.7-7.2,6.5-11c1.7-3.5,4.1-7.2,5.2-10.8
						C359.8,891.5,358.4,887.8,356,885.9z"/>
					<g>
						<g>
							<g>
								<path class="st12" d="M244.4,845.3c29.8-3.5,58.7,6.6,83.9,21.9c25.9,15.7,48.5,36.8,67.8,60c9.7,11.7,18.6,24,26.4,37
									c2.8,4.7,10.2,0.4,7.3-4.3c-15.3-25-34.5-48-56.2-67.8c-23-21-49.8-39.6-80.1-48c-16.3-4.5-33.1-5.8-49.8-3.4
									C241.2,841,241.8,845.6,244.4,845.3L244.4,845.3z"/>
							</g>
						</g>
						<g>
							<g>
								<path class="st12" d="M300.5,851.3c-15.2,10.7-34.3,15.2-52.5,17.4c-17.5,2.1-35.4,1.6-52.9,4.6c-1.1,0.2-0.8,1.9,0.3,1.9
									c18.6,0.6,37.7-0.3,56.2-2.8c18.4-2.5,35.9-7.4,50.7-18.9C303.5,852.6,301.8,850.4,300.5,851.3L300.5,851.3z"/>
							</g>
						</g>
						<g>
							<g>
								<path class="st12" d="M261.9,871.2c-6.7,4.6-14.1,8.6-21.6,11.8c-7.6,3.2-15.6,4.1-23.4,6.6c-1.1,0.4-1.4,2.3,0,2.5
									c7.9,1.2,16.5-1.9,23.7-4.9c8.4-3.6,15.6-8.6,22.7-14.2C264.2,872.2,263,870.5,261.9,871.2L261.9,871.2z"/>
							</g>
						</g>
						<g>
							<g>
								<path class="st12" d="M255.6,812.9c15.3,0.5,30.6,5,43.8,12.7c6.4,3.7,12.4,8.3,17.4,13.9c2.6,2.8,4.8,5.9,6.7,9.3
									c1.8,3.2,2.8,6.8,4.6,10c0.3,0.6,1.3,0.3,1.3-0.4c0-6.8-4.8-14-8.9-19.1c-5.1-6.3-11.6-11.4-18.5-15.5
									c-13.9-8.2-30.3-12.7-46.4-13C254.2,810.7,254.3,812.9,255.6,812.9L255.6,812.9z"/>
							</g>
						</g>
						<g>
							<g>
								<path class="st12" d="M339.1,872.1c-7.6,6.5-18.9,8.4-28.5,9.3c-8.4,0.8-18.8-0.6-26.7,2.6c-0.8,0.3-0.9,1.5,0,1.7
									c4.5,1.2,9.6,0.9,14.2,0.7c5.6-0.1,11.2-0.4,16.8-1.2c9.9-1.3,19-4.1,26.4-11.1C342.6,872.9,340.6,870.9,339.1,872.1
									L339.1,872.1z"/>
							</g>
						</g>
					</g>
				</g>
				<path class="st11" d="M330.4,959.8c0,0,16.7,23.8,30.5,8C361,967.8,355.9,952.7,330.4,959.8z"/>
				<path class="st11" d="M343.1,770.8c0,0,1.7,27.7,20.8,21.8C363.9,792.6,367.4,777.8,343.1,770.8z"/>
				<path class="st11" d="M93,397c0,0,1.7,27.7,20.8,21.8C113.8,418.8,117.3,403.9,93,397z"/>
				<path class="st11" d="M140.4,899.4c0,0,12.2,10.4,17.4,0.1C157.8,899.5,153,892.1,140.4,899.4z"/>
			</g>
			<g>
				<path class="st11" d="M737.6,579.2c0.5,3.2,2.3,6.6,3.3,9.7c1.1,3.4,2.4,6.9,4.4,9.9c4.1,6.1,10.2,10.4,17.3,12.3
					c9.2,2.6,21.4,3.1,30.7-1.3c8.4,9.7,22.7,9.8,32.5,0.9c1.9-1.7,3.5-3.7,4.7-5.8c10.6,7.6,23.2,11.2,37.6,8.3
					c7.6-1.5,16.9-4.7,20.4-12.2c2.1-4.4,1.4-8.5-0.6-12c21.7-4.6,46.7-18.2,44.1-42.1c-2.8-25.6-29.6-41.4-54.6-41.8
					c-2.8-11-12.6-19.6-23-23.5c-21.4-8-44.4,2-58.7,18.7c-0.1,0-0.1-0.1-0.2-0.1c-3.4-2.6-8.1-3.4-12.3-2.9
					c-8.9,1.1-18.2,5-24.7,11.3c-9.7,9.3-15,24.8-17.1,37.8c-1.1,6.9-1.8,14.1-1.1,21.1c0.1,1.4,0.3,2.9,0.5,4.5
					C738.6,573.3,737.1,576.3,737.6,579.2z"/>
				<g>
					<g>
						<g>
							<path class="st12" d="M840,544.7c-52-13.8-104.1,18.1-140.8,52.2c-10,9.2-19.3,19.2-27.7,29.9c-2.9,3.6,2.3,8.8,5.1,5.1
								c14.6-18.8,31.9-35.7,51-49.9c20.4-15.2,43.3-27.8,68.3-33.3c14.2-3.1,28.8-3.5,43-0.1C841.4,549.1,842.5,545.3,840,544.7
								L840,544.7z"/>
						</g>
					</g>
					<g>
						<g>
							<path class="st12" d="M789.6,550c11.4,11.1,25.8,17,41,20.9c15.3,3.9,31.4,6.5,47.2,7.9c1,0.1,1.1-1.4,0.2-1.6
								c-29.2-8.5-62.6-7.3-86.7-28.9C790.2,547.2,788.5,548.9,789.6,550L789.6,550z"/>
						</g>
					</g>
					<g>
						<g>
							<path class="st12" d="M820.6,570.2c9.3,9.2,22.9,21.1,37.1,20.7c1,0,1.6-1.6,0.6-2c-6.1-2.8-12.6-4.3-18.6-7.6
								c-6.3-3.5-12.3-7.8-17.7-12.4C821.1,568.1,819.8,569.3,820.6,570.2L820.6,570.2z"/>
						</g>
					</g>
					<g>
						<g>
							<path class="st12" d="M833,518.3c-13.5-1.2-27.6,0.9-40.1,6.3c-10.5,4.6-25.1,14.1-26.9,26.6c-0.1,0.7,0.7,1,1.1,0.5
								c3.8-5.5,6.5-10.8,11.6-15.3c5-4.4,10.8-7.8,16.9-10.3c11.8-4.9,24.7-7,37.4-5.9C834.2,520.2,834.2,518.4,833,518.3
								L833,518.3z"/>
						</g>
					</g>
					<g>
						<g>
							<path class="st12" d="M754.7,563.6c5.6,6.7,13.1,9.9,21.3,12c7.9,2,17.7,4.4,25.8,3.4c0.7-0.1,1.1-1,0.4-1.4
								c-6.6-3.5-15.3-3.4-22.5-4.9c-8.2-1.7-17.4-4.4-23.3-10.7C755.3,560.6,753.6,562.3,754.7,563.6L754.7,563.6z"/>
						</g>
					</g>
				</g>
			</g>
			<path class="st11" d="M974.6,598.3c0,0-16.5,18.4-26.6,3.8C948,602,953.8,589.7,974.6,598.3z"/>
			<path class="st11" d="M590.7,782.8c0,0-2.1,24.7-19,19C571.8,801.8,569,788.5,590.7,782.8z"/>
			<path class="st11" d="M895,696c0,0-1.5,17.4-13.4,13.4C881.7,709.4,879.7,700,895,696z"/>
			<path class="st11" d="M756.7,410.2c0,0-4.2,23.2-19.7,16.3C737,426.5,735.5,413.7,756.7,410.2z"/>
			<path class="st11" d="M915.3,538.9c0,0-11.4,7.5-14.7-1.7C900.6,537.3,905.4,531.5,915.3,538.9z"/>
		</g>
		<path class="st13" d="M625.4,941.3c-3.9-1.9-7.5-1.7-10.3-0.1c-0.8-3.7-1.9-7.2-2.9-9.7c-3.3-9-10.8-16.7-20.4-18.4
			c-10.5-1.8-20.2,2.5-26.2,11.2c-2.8,4.1-4.2,8.7-4.2,13.4c-11.3-6.6-25.4,3.6-27.5,16.5c-1.1,7,3.1,13,9.3,15.9
			c4.8,2.2,9.7,1.4,14.6,1.4c14.6-0.1,29.2-0.1,43.8-0.1c11.3,0,25.5,1.6,32.2-10.1C638.5,953.4,632.8,945,625.4,941.3z"/>
		<path class="st13" d="M720.4,470.8c-6-2.9-11.5-2.6-15.8-0.1c-1.2-5.6-2.9-11-4.4-14.9c-5-13.7-16.5-25.7-31.3-28.3
			c-16.2-2.8-31,3.9-40.2,17.3c-4.3,6.2-6.4,13.4-6.5,20.5c-17.3-10.2-39.1,5.6-42.2,25.4c-1.7,10.8,4.7,20,14.2,24.4
			c7.4,3.4,14.8,2.2,22.3,2.1c22.4-0.1,44.8-0.1,67.3-0.1c17.3,0,39.1,2.5,49.4-15.4C740.4,489.3,731.8,476.4,720.4,470.8z"/>
		<g>
			<defs>
				<rect id="SVGID_7_" x="-80" y="114" width="1159" height="1163.6"/>
			</defs>
			<clipPath id="SVGID_8_">
				<use xlink:href="#SVGID_7_"  style="overflow:visible;"/>
			</clipPath>
		</g>
		<path class="st14" d="M162.4,1147c-0.5,1.6-1.1,3-1.9,4.3c-0.1-3.2-0.3-6.8-2-9.5c-1.1-1.9-3.8-1.9-5,0c-1.7,2.8-1.8,6.3-2,9.5
			c0,0,0,0.1,0,0.1c-0.8-1.3-1.5-2.8-1.9-4.4c-1.2-4.1-7.4-2.4-6.4,1.8c1.3,5.1,3.8,9.7,8,12.9c8.3,6.3,15.9-6.4,17.5-12.9
			C169.8,1144.6,163.6,1142.9,162.4,1147z"/>
		<path class="st14" d="M-18.6,1217.5c-0.5,1.6-1.1,3-1.9,4.3c-0.1-3.2-0.3-6.8-2-9.5c-1.1-1.9-3.8-1.9-5,0c-1.7,2.8-1.8,6.3-2,9.5
			c0,0,0,0.1,0,0.1c-0.8-1.3-1.5-2.8-1.9-4.4c-1.2-4.1-7.4-2.4-6.4,1.8c1.3,5.1,3.8,9.7,8,12.9c8.3,6.3,15.9-6.4,17.5-12.9
			C-11.1,1215.1-17.4,1213.4-18.6,1217.5z"/>
		<path class="st14" d="M644.4,1109.2c-0.5,1.6-1.1,3-1.9,4.3c-0.1-3.2-0.3-6.8-2-9.5c-1.1-1.9-3.8-1.9-5,0
			c-1.7,2.8-1.8,6.3-1.9,9.5c0,0,0,0.1,0,0.1c-0.8-1.3-1.5-2.8-1.9-4.4c-1.2-4.1-7.4-2.4-6.4,1.8c1.3,5.1,3.8,9.7,8,12.9
			c8.3,6.3,15.9-6.4,17.5-12.9C651.8,1106.8,645.6,1105,644.4,1109.2z"/>
		<path class="st14" d="M1033.7,1182.6c-0.5,1.6-1.1,3-1.9,4.3c-0.1-3.2-0.3-6.8-2-9.5c-1.1-1.9-3.8-1.9-5,0
			c-1.7,2.8-1.8,6.3-1.9,9.5c0,0,0,0.1,0,0.1c-0.8-1.3-1.5-2.8-1.9-4.4c-1.2-4.1-7.4-2.4-6.4,1.8c1.3,5.1,3.8,9.7,8,12.9
			c8.3,6.3,15.9-6.4,17.5-12.9C1041.1,1180.2,1034.8,1178.5,1033.7,1182.6z"/>
		<path class="st14" d="M938.5,1132.1c-0.5,1.6-1.1,3-1.9,4.3c-0.1-3.2-0.3-6.8-2-9.5c-1.1-1.9-3.8-1.9-5,0
			c-1.7,2.8-1.8,6.3-1.9,9.5c0,0,0,0.1,0,0.1c-0.8-1.3-1.5-2.8-1.9-4.4c-1.2-4.1-7.4-2.4-6.4,1.8c1.3,5.1,3.8,9.7,8,12.9
			c8.3,6.3,15.9-6.4,17.5-12.9C946,1129.7,939.7,1128,938.5,1132.1z"/>
		<g class="st15">
			<path class="st16" d="M845.9,1045.6c-0.5,1.6-1.1,3-1.9,4.3c-0.1-3.2-0.3-6.8-2-9.5c-1.1-1.9-3.8-1.9-5,0
				c-1.7,2.8-1.8,6.3-1.9,9.5c0,0,0,0.1,0,0.1c-0.8-1.3-1.5-2.8-1.9-4.4c-1.2-4.1-7.4-2.4-6.4,1.8c1.3,5.1,3.8,9.7,8,12.9
				c8.3,6.3,15.9-6.4,17.5-12.9C853.3,1043.2,847,1041.5,845.9,1045.6z"/>
			<path class="st16" d="M307.6,1045.6c-0.5,1.6-1.1,3-1.9,4.3c-0.1-3.2-0.3-6.8-2-9.5c-1.1-1.9-3.8-1.9-5,0
				c-1.7,2.8-1.8,6.3-1.9,9.5c0,0,0,0.1,0,0.1c-0.8-1.3-1.5-2.8-1.9-4.4c-1.2-4.1-7.4-2.4-6.4,1.8c1.3,5.1,3.8,9.7,8,12.9
				c8.3,6.3,15.9-6.4,17.5-12.9C315,1043.2,308.7,1041.5,307.6,1045.6z"/>
			<path class="st16" d="M-25.2,1045.6c-0.5,1.6-1.1,3-1.9,4.3c-0.1-3.2-0.3-6.8-2-9.5c-1.1-1.9-3.8-1.9-5,0
				c-1.7,2.8-1.8,6.3-1.9,9.5c0,0,0,0.1,0,0.1c-0.8-1.3-1.5-2.8-1.9-4.4c-1.2-4.1-7.4-2.4-6.4,1.8c1.3,5.1,3.8,9.7,8,12.9
				c8.3,6.3,15.9-6.4,17.5-12.9C-17.7,1043.2-24,1041.5-25.2,1045.6z"/>
			<path class="st16" d="M1007.9,1045.6c-0.5,1.6-1.1,3-1.9,4.3c-0.1-3.2-0.3-6.8-2-9.5c-1.1-1.9-3.8-1.9-5,0
				c-1.7,2.8-1.8,6.3-1.9,9.5c0,0,0,0.1,0,0.1c-0.8-1.3-1.5-2.8-1.9-4.4c-1.2-4.1-7.4-2.4-6.4,1.8c1.3,5.1,3.8,9.7,8,12.9
				c8.3,6.3,15.9-6.4,17.5-12.9C1015.3,1043.2,1009.1,1041.5,1007.9,1045.6z"/>
		</g>
		<path class="st14" d="M761.9,1207.5c-0.5,1.6-1.1,3-1.9,4.3c-0.1-3.2-0.3-6.8-2-9.5c-1.1-1.9-3.8-1.9-5,0
			c-1.7,2.8-1.8,6.3-1.9,9.5c0,0,0,0.1,0,0.1c-0.8-1.3-1.5-2.8-1.9-4.4c-1.2-4.1-7.4-2.4-6.4,1.8c1.3,5.1,3.8,9.7,8,12.9
			c8.3,6.3,15.9-6.4,17.5-12.9C769.3,1205.1,763.1,1203.4,761.9,1207.5z"/>
		<path class="st14" d="M361.6,1182.6c-0.5,1.6-1.1,3-1.9,4.3c-0.1-3.2-0.3-6.8-2-9.5c-1.1-1.9-3.8-1.9-5,0
			c-1.7,2.8-1.8,6.3-1.9,9.5c0,0,0,0.1,0,0.1c-0.8-1.3-1.5-2.8-1.9-4.4c-1.2-4.1-7.4-2.4-6.4,1.8c1.3,5.1,3.8,9.7,8,12.9
			c8.3,6.3,15.9-6.4,17.5-12.9C369,1180.2,362.7,1178.5,361.6,1182.6z"/>
		<path class="st14" d="M70.7,1086.5c-0.5,1.6-1.1,3-1.9,4.3c-0.1-3.2-0.3-6.8-2-9.5c-1.1-1.9-3.8-1.9-5,0c-1.7,2.8-1.8,6.3-2,9.5
			c0,0,0,0.1,0,0.1c-0.8-1.3-1.5-2.8-1.9-4.4c-1.2-4.1-7.4-2.4-6.4,1.8c1.3,5.1,3.8,9.7,8,12.9c8.3,6.3,15.9-6.4,17.5-12.9
			C78.2,1084.1,71.9,1082.4,70.7,1086.5z"/>
	</g>
</g>
</svg>
