<?xml version="1.0" encoding="utf-8"?>
<!-- Generator: Adobe Illustrator 24.0.0, SVG Export Plug-In . SVG Version: 6.00 Build 0)  -->
<svg version="1.1" id="Capa_1" xmlns="http://www.w3.org/2000/svg" xmlns:xlink="http://www.w3.org/1999/xlink" x="0px" y="0px"
	 viewBox="0 0 512 512" style="enable-background:new 0 0 512 512;" xml:space="preserve">
<style type="text/css">
	.st0{fill:#4F4F4F;}
</style>
<g>
	<g>
		<path class="st0" d="M479.9,4.4c-2.8-4-8.1-5.5-12.5-3.4L134.8,153.3c-4.3,2-6.7,6.7-5.7,11.4c1,4.6,5.1,8,9.9,8h103.9l-194.1,138
			c-3.6,2.6-5.1,7.1-3.8,11.3s5.2,7,9.6,7H150L32.1,496c-2.8,3.9-2.4,9.3,0.9,12.8c2,2.1,4.7,3.2,7.4,3.2c1.8,0,3.7-0.5,5.3-1.5
			l362.1-225.4c4.7-3,6.2-9.2,3.2-13.9c-1.7-2.8-4.5-4.4-7.5-4.7c-0.1,0-0.2,0-0.2,0c-0.2,0-0.4,0-0.7,0c0,0-0.1,0-0.1,0l-99.7-0.1
			l157.2-129c3.3-2.7,4.5-7.2,3.1-11.2c-1.4-4-5.3-6.7-9.5-6.7c0,0,0,0,0,0l-77.8,0L478.7,17.3C482.2,13.9,482.7,8.4,479.9,4.4z
			 M159.4,415.9l-81.9,51l81.9-116.1V415.9z M264.5,276.3C264.5,276.3,264.5,276.3,264.5,276.3v74.2l-84.8,52.8v-84.4
			c0-0.1,0-0.3,0-0.4c0-0.1,0-0.2,0-0.4c-0.1-0.8-0.2-1.7-0.5-2.4c0-0.1-0.1-0.2-0.1-0.3c-0.1-0.3-0.3-0.7-0.4-1c0,0,0-0.1-0.1-0.1
			c0,0,0,0,0,0c-0.2-0.4-0.4-0.7-0.7-1.1c-0.1-0.1-0.1-0.1-0.2-0.2c-0.2-0.3-0.4-0.5-0.6-0.8c-0.1-0.1-0.1-0.2-0.2-0.2
			c-0.3-0.3-0.6-0.6-0.9-0.8c0,0-0.1-0.1-0.1-0.1c-0.3-0.2-0.6-0.4-0.9-0.6c-0.1-0.1-0.2-0.1-0.3-0.2c-0.3-0.2-0.7-0.4-1-0.5
			c0,0-0.1,0-0.1,0c-0.4-0.2-0.8-0.3-1.2-0.4c-0.1,0-0.2,0-0.2-0.1c-0.3-0.1-0.7-0.2-1-0.2c-0.1,0-0.2,0-0.3,0
			c-0.4-0.1-0.8-0.1-1.3-0.1H86.3L207,222.9v59.2c0,5.6,4.5,10.1,10.1,10.1s10.1-4.5,10.1-10.1v-73.6l37.2-26.4L264.5,276.3
			L264.5,276.3z M367.2,286.5l-82.5,51.3v-51.4L367.2,286.5z M425.3,139.5L361.3,192v-52.5L425.3,139.5z M344.1,122.2
			C344.1,122.2,344.1,122.2,344.1,122.2c-0.3,0.3-0.6,0.7-0.9,1c-0.1,0.1-0.1,0.2-0.2,0.2c-0.3,0.4-0.5,0.7-0.7,1.1c0,0,0,0,0,0
			c-0.2,0.4-0.4,0.8-0.5,1.2c0,0.1-0.1,0.2-0.1,0.2c-0.3,0.8-0.5,1.7-0.5,2.6c0,0.1,0,0.2,0,0.4c0,0.1,0,0.2,0,0.4v79.2l-56.4,46.3
			v-92.3c0,0,0,0,0,0v-0.1c0,0,0-0.1,0-0.1c0-0.3,0-0.5,0-0.8c0-0.1,0-0.2,0-0.3c0-0.2-0.1-0.4-0.1-0.6c0-0.1,0-0.2-0.1-0.4
			c0-0.2-0.1-0.4-0.1-0.5c0-0.1-0.1-0.2-0.1-0.4c0,0,0,0,0,0c-0.1-0.3-0.2-0.5-0.3-0.8c0-0.1-0.1-0.2-0.2-0.3
			c-0.1-0.2-0.2-0.3-0.2-0.5c-0.1-0.1-0.1-0.2-0.2-0.3c-0.1-0.2-0.2-0.3-0.3-0.5c-0.1-0.1-0.1-0.2-0.2-0.3c-0.1-0.2-0.3-0.3-0.4-0.5
			c-0.1-0.1-0.1-0.1-0.2-0.2c-0.4-0.5-0.8-0.9-1.3-1.3c-0.1-0.1-0.1-0.1-0.2-0.2c-0.2-0.1-0.3-0.2-0.5-0.4c-0.1-0.1-0.2-0.1-0.3-0.2
			c-0.2-0.1-0.3-0.2-0.5-0.3c-0.1-0.1-0.2-0.1-0.3-0.2c-0.2-0.1-0.4-0.2-0.6-0.3c-0.1-0.1-0.2-0.1-0.3-0.1c-0.2-0.1-0.5-0.2-0.7-0.3
			c-0.1,0-0.2-0.1-0.3-0.1c-0.2-0.1-0.4-0.1-0.5-0.1c-0.1,0-0.2-0.1-0.4-0.1c-0.2,0-0.4-0.1-0.6-0.1c-0.1,0-0.2,0-0.3,0
			c-0.3,0-0.6,0-0.9,0h-89.2L423.9,43.1L344.1,122.2z"/>
	</g>
</g>
<g>
	<g>
		<path class="st0" d="M217.2,308.7c-13,0-13,20.2,0,20.2C230.2,329,230.2,308.7,217.2,308.7z"/>
	</g>
</g>
</svg>
