<svg fill="currentColor" version="1.1" xmlns="http://www.w3.org/2000/svg" xmlns:xlink="http://www.w3.org/1999/xlink" x="0px" y="0px"
	 viewBox="0 0 493.7 493.7" style="enable-background:new 0 0 493.7 493.7;" xml:space="preserve">
		<path class="st0" d="M427.2,360H380v-18h95.7c5.6,0,10.2-4.5,10.3-10.1v-87.4c-0.1-2.9-1.4-5.7-3.6-7.5c-2.2-1.9-5.1-2.8-8-2.4
			L391,246.4v-88.7c-0.1-5.4-4.5-9.7-10-9.6c-0.1,0-0.1,0-0.2,0h-71.6L175.8,3.9c-3.5-3.8-9.3-4.3-13.4-1.2l-25.2,19.2
			c-4.1,3.1-5.1,8.9-2.4,13.2l0.2,0.2c-0.3,0.7-0.6,1.4-0.8,2.1L81.4,257.3c-0.1,0.5-0.2,1.1-0.2,1.7c-4.5,2.2-8.5,5.1-12,8.8
			L2.7,338.5c-2.7,2.8-3.5,7-1.9,10.6S6,355,10,355h89.8c19.8,0,36.3-15.7,36.3-35.5v-54.7c-0.1-1.6-0.5-3.1-1.3-4.5l52.5-141.6
			l34.3,55.3c-20.8,18.9-32.7,45.7-32.6,73.9V275c-4.2,1.3-7.1,5.3-7,9.7v47.2c0,5.5,4.1,10.1,9.6,10.1H232v18h-47.1
			c-36.7,0-66.5,29.8-66.5,66.5s29.8,66.5,66.5,66.5h242.3c36.7,0,66.5-29.8,66.5-66.5S463.9,360,427.2,360z M311,170.3
			c1.4-0.5,2.7-1.2,3.8-2.1c0.1-0.1,0.1-0.2,0.2-0.2h56v81.2l-60,8.5V170.3z M116,319.5c0,8.7-7.5,15.5-16.3,15.5H33.1l50.6-53.7
			c3-3.1,6.8-5.2,11.1-6.1c0.1,0,0.1,0.1,0.2,0.1c1.3-0.2,2.7-0.3,4.1-0.3H116V319.5z M172,102.4L115.2,255h-12.7l47.1-196.1
			l24.8,39.7C173.3,99.6,172.5,100.9,172,102.4z M196.6,96.2l-40-64l10.7-8.2l114.9,123.9c-15.8,1.1-31,5.9-44.5,14L196.6,96.2z
			 M209,247.9c-0.1-25.1,11.7-48.7,31.8-63.7c14-10.6,31.1-16.3,48.6-16.2h1.6v92.4c0,0.1-0.2,0.1-0.2,0.2L209,272.1V247.9z
			 M202,322v-28.7L303.5,279l80.1-11.3L466,256v66H202z M360,342v18H252v-18H360z M427.2,473H184.9c-25.7,0-46.5-20.8-46.5-46.5
			s20.8-46.5,46.5-46.5h242.3c25.7,0,46.5,20.8,46.5,46.5S452.9,473,427.2,473z"/>
		<path class="st0" d="M303.6,382.3c-24,0-43.5,19.4-43.5,43.5s19.4,43.5,43.5,43.5c24,0,43.5-19.4,43.5-43.5
			C347,401.8,327.6,382.4,303.6,382.3z M327.1,425.9c-0.1,12.9-10.6,23.3-23.5,23.4c-13,0-23.5-10.5-23.5-23.5s10.5-23.5,23.5-23.5
			s23.5,10.5,23.5,23.5C327.1,425.8,327.1,425.8,327.1,425.9z"/>
		<path class="st0" d="M414.4,382.3c-24,0-43.5,19.4-43.5,43.5s19.4,43.5,43.5,43.5s43.5-19.4,43.5-43.5
			C457.8,401.8,438.4,382.4,414.4,382.3z M437.9,425.9c-0.1,12.9-10.6,23.3-23.5,23.4c-13,0-23.5-10.5-23.5-23.5
			s10.5-23.5,23.5-23.5s23.5,10.5,23.5,23.5C437.9,425.8,437.9,425.8,437.9,425.9z"/>
		<path class="st0" d="M192.8,382.3c-24,0-43.5,19.4-43.5,43.5s19.4,43.5,43.5,43.5s43.5-19.4,43.5-43.5
			C236.2,401.8,216.8,382.4,192.8,382.3z M216.3,425.9c-0.1,12.9-10.6,23.3-23.5,23.4c-13,0-23.5-10.5-23.5-23.5
			s10.5-23.5,23.5-23.5s23.5,10.5,23.5,23.5C216.3,425.8,216.3,425.8,216.3,425.9z"/>
</svg>
