<svg fill="currentColor" version="1.1"
	 xmlns="http://www.w3.org/2000/svg" xmlns:xlink="http://www.w3.org/1999/xlink" x="0px" y="0px" viewBox="0 0 400 400"
	 style="enable-background:new 0 0 400 400;" xml:space="preserve">
<path class="st0" d="M149,205.2c-1.9,7.1-0.8,14.5,2.9,20.8l24.4,40.8c2.4,4.3,5.9,7.9,10.3,10.4c1.8,1,3.6,1.8,5.5,2.4v115.6
	c1.8,3.4,5.2,4.7,7.9,4.7c3.2,0,5.9-0.9,8-4.5V279.9c7-2,12.8-6.5,16.4-12.7l23.8-41.3c3.7-6.4,4.6-13.8,2.7-20.9
	c-1.7-6.5-5.7-12-11.2-15.7l8.5-14.7c7.3-12.6,3.4-28.7-8.5-36.7l8.5-14.7c6.7-11.6,4-26.2-5.8-34.7V29c0-4.4-3.5-7.9-7.9-7.9
	c-4.4,0-7.9,3.5-7.9,7.9v52.8c-3.1-0.2-6.3,0-9.4,0.9c-3.4,0.9-6.4,2.4-9.2,4.4V7.9c0-4.4-3.5-7.9-7.9-7.9c-4.4,0-7.9,3.5-7.9,7.9
	v79.1c-5.3-3.9-11.9-5.8-18.5-5.2V29c0-4.4-3.5-7.9-7.9-7.9c-4.4,0-7.9,3.5-7.9,7.9v59.4c-9.8,8.5-12.6,23-5.8,34.7l8.5,14.7
	c-11.9,8-15.8,24.1-8.5,36.7l8.5,14.7C154.8,193,150.7,198.7,149,205.2z M214.1,103.5c1.6-2.7,4.1-4.6,7.1-5.5
	c3-0.8,6.2-0.4,8.9,1.2c5.6,3.2,7.5,10.4,4.3,16.1l-10.3,17.9c-2.3,0-4.7,0.3-7,1c-7.1,1.9-13.1,6.5-16.8,12.8l-0.3,0.5l-0.3-0.5
	c-1.7-3-3.9-5.5-6.4-7.5L214.1,103.5z M234.4,166.6l-10.3,17.9c-2.3,0-4.7,0.3-7,1c-7.1,1.9-13.1,6.5-16.8,12.8l-0.3,0.5l-0.3-0.5
	c-1.7-2.9-3.8-5.4-6.4-7.5l20.7-35.9c1.6-2.7,4.1-4.6,7.1-5.5c3-0.8,6.2-0.4,8.9,1.2C235.7,153.8,237.7,161,234.4,166.6z
	 M214.1,206.2c1.6-2.7,4.1-4.6,7.1-5.5c1-0.3,2.1-0.4,3.1-0.4c2,0,4,0.5,5.8,1.6c2.7,1.6,4.6,4.1,5.5,7.1c0.8,3,0.4,6.2-1.2,8.9
	l-23.8,41.3c-1.6,2.7-4.1,4.6-7.1,5.5c-1.1,0.3-2.3,0.4-3.4,0.4c0,0,0,0,0,0s0,0,0,0c-1.9-0.1-3.8-0.6-5.5-1.6c-1.7-1-3-2.3-4-3.9
	l-0.1-0.2c-0.6-0.9-1-2-1.3-3c-0.8-3-0.4-6.2,1.2-8.9L214.1,206.2z M169.9,99.2c5.6-3.2,12.8-1.3,16.1,4.3l4.9,8.5l-12.3,21.3
	c-0.9-0.1-1.7-0.1-2.6-0.1l-10.3-17.9C162.4,109.6,164.3,102.4,169.9,99.2z M190.9,163.3l-12.3,21.3c-0.9-0.1-1.7-0.1-2.6-0.1
	l-10.3-17.9c-3.2-5.6-1.3-12.8,4.3-16.1c5.6-3.2,12.8-1.3,16.1,4.3L190.9,163.3z M164.4,209.2c0.8-3.1,2.8-5.7,5.5-7.3
	c2.7-1.6,5.9-2,8.9-1.2c3,0.8,5.6,2.8,7.1,5.5l4.9,8.5l-13.4,23.2l-11.9-20C164,215.3,163.6,212.2,164.4,209.2z"/>
</svg>
