<svg version="1.1" id="Layer_1" xmlns="http://www.w3.org/2000/svg" xmlns:xlink="http://www.w3.org/1999/xlink" x="0px" y="0px"
	 viewBox="0 0 512 512" style="enable-background:new 0 0 512 512;" xml:space="preserve">
<style type="text/css">
	.st0{clip-path:url(#SVGID_2_);fill:#37A9BF;}
	.st1{clip-path:url(#SVGID_2_);fill:#52DDDC;}
	.st2{clip-path:url(#SVGID_2_);fill:#E3E3E3;}
	.st3{clip-path:url(#SVGID_2_);fill:#FFFFFF;}
	.st4{clip-path:url(#SVGID_2_);fill:#AA315E;}
	.st5{clip-path:url(#SVGID_2_);fill:#DF3F7C;}
</style>
<g>
	<defs>
		<circle id="SVGID_1_" cx="255.7" cy="256.4" r="254.4"/>
	</defs>
	<clipPath id="SVGID_2_">
		<use xlink:href="#SVGID_1_"  style="overflow:visible;"/>
	</clipPath>
	<path class="st0" d="M476.3,384.4c21.5-37.2,34-80.4,34.4-126.5C511.7,117.6,399.1,1.9,259.4,0C115.7-1.9-1,115.8,1.3,260.3
		C3.6,400.3,118.6,513,257.9,512c40.6-0.3,79-10.2,113-27.5l67.5-0.1c21.1,0,38.1-17.2,38.1-38.4L476.3,384.4z"/>
	<path class="st1" d="M232,1.1C101.2,13.4-0.9,125.1,1.3,260.3C3.5,391.5,104.6,498.8,232,510.9L232,1.1L232,1.1z"/>
	<path class="st2" d="M500,329.6c6.8-22.7,10.5-46.8,10.7-71.7c0.2-26.2-3.6-51.6-10.8-75.5H366l87.6-87.6
		c-10.8-13.4-23-25.6-36.2-36.6L329.6,146V10.9C307.3,4.1,283.8,0.3,259.4,0c-26.8-0.4-52.7,3.5-77,10.8V146l-88-88
		C81.2,69,69.1,81.3,58.3,94.6l87.8,87.8H12C4.6,207,0.9,233.2,1.3,260.3c0.4,24.1,4.1,47.3,10.7,69.3h134l-87.6,87.6
		c10.8,13.4,23,25.6,36.2,36.6l87.8-87.8v135.1c23.9,7.3,49.3,11.1,75.5,10.9c24.9-0.2,48.9-4,71.6-10.9V366l117.4,117.4
		c17-3.9,29.6-19.2,29.5-37.4l0-5.8L366,329.6L500,329.6L500,329.6z"/>
	<path class="st3" d="M236.6,511.2V0.7c-18.7,1.4-36.8,4.8-54.2,10.1V146l-88-88C81.2,69,69.1,81.3,58.3,94.6l87.8,87.8H12
		C4.6,207,0.9,233.2,1.3,260.3c0.4,24.1,4.1,47.3,10.7,69.3h134l-87.6,87.6c10.8,13.4,23,25.6,36.2,36.6l87.8-87.8v135.1
		C199.8,506.4,217.9,509.8,236.6,511.2z"/>
	<path class="st4" d="M507.3,214.5H297.5V3.4c-12.4-2.1-25.1-3.2-38.1-3.4c-15.3-0.2-30.3,1-44.9,3.4v211.1H4.6
		c-2.4,14.9-3.6,30.2-3.3,45.8c0.2,12.7,1.3,25.1,3.3,37.2h209.8v211.1c14.1,2.4,28.6,3.5,43.4,3.4c13.5-0.1,26.7-1.3,39.6-3.4
		V297.5h209.9c2.1-12.9,3.3-26.1,3.3-39.6C510.8,243.1,509.7,228.6,507.3,214.5z"/>
	<path class="st5" d="M256,0c-14.1,0-28,1.2-41.5,3.4v211.1H4.6c-2.4,14.9-3.6,30.2-3.3,45.8c0.2,12.7,1.3,25.1,3.3,37.2h209.8
		v211.1c13.5,2.2,27.4,3.4,41.5,3.4L256,0z"/>
</g>
</svg>
