<svg fill="currentColor" version="1.1" id="Capa_1" xmlns="http://www.w3.org/2000/svg" xmlns:xlink="http://www.w3.org/1999/xlink" x="0px" y="0px"
	 viewBox="0 0 512 512" style="enable-background:new 0 0 512 512;" xml:space="preserve">
	<path class="st0" d="M395.2,251.9c-8-12.8-18.5-27.3-29.7-42.6c-21.7-29.8-46.3-63.6-61.7-97.5c-16.7-36.6-19.3-66.2-8.1-90.5
		c2.6-5.6,1.5-12.3-2.8-16.7c-4.3-4.5-10.9-5.9-16.6-3.5c-2.6,1.1-65.1,27.5-88.4,85.1c-7.8,19.2-10.3,39.5-7.6,60.6
		c-10.3-5.5-21.5-9.8-31.8-10.2c-4.8-0.2-9.5,2-12.4,5.8c-3,3.8-3.9,8.8-2.6,13.5c11.2,38.2-2.3,66.8-17.9,100
		c-7.3,15.6-14.9,31.7-20.5,49.8c-14.7,48-3.8,95.4,32.6,140.9c33.8,42.3,84.1,65.4,135.4,65.4c23.2,0,46.5-4.7,68.6-14.5
		c1-0.4,1.9-0.9,2.9-1.3c0.1,0,0.2-0.1,0.3-0.1c39.9-19.3,68.7-54,81.3-97.6C430.2,349.9,422.3,295.1,395.2,251.9L395.2,251.9z
		 M201.7,456.6c-14.7-16.5-21.7-38.9-19.1-61.4c2.6-22.8,22.4-48.7,41.5-73.8c20.2-26.5,42.3-55.5,47.4-86c3.2,3.8,6.5,8.1,9.5,12.9
		c20.9,33.3,22.9,75.3,6,124.7c-1.7,4.9-0.7,10.3,2.5,14.3c3.2,4,8.3,6.1,13.4,5.5c6.6-0.8,16.4-3.9,25.3-10.8
		c4.4,24.8,0.5,50.4-11.5,69.4c-8.6,13.6-25.2,29.7-55.8,30.4c-5.2-0.1-10.4-0.5-15.5-1.1C228.5,477.9,213.3,469.6,201.7,456.6
		L201.7,456.6z M387.4,390.1c-6.7,23.3-19.1,43.3-35.9,58.8c12.9-33,11.3-73.4-5.2-108.2c-2.8-5.9-9.1-9.3-15.5-8.4
		c-1.4,0.2-2.7,0.5-3.9,1.1c3.8-32.1,0.2-68-20.5-101c-19.7-31.3-45.7-44.9-46.8-45.4c-5.6-2.9-12.5-1.9-17.1,2.4
		c-4.6,4.3-6,11.1-3.5,16.9c12.7,29.4-12.3,62.2-38.8,96.9c-21.6,28.3-43.8,57.5-47.4,88.5c-1.6,14.1-0.5,28.1,3.1,41.4
		c-1.5-1.7-3-3.5-4.5-5.4c-30.2-37.8-39.1-74.9-27.3-113.3c4.9-16.1,12.1-31.2,18.9-45.9c13.5-28.7,27.4-58.2,24.5-94.6
		c10.4,5.8,21.4,13.9,28.9,20.4c5.3,4.6,13.1,5,18.8,0.8c5.7-4.1,7.7-11.7,4.9-18.1c-12.4-28.7-13.9-55.4-4.2-79.4
		c9.3-23.2,27.5-40.5,43.3-51.9c-1.6,23.5,4.2,49.5,17.4,78.5c16.7,36.6,42.2,71.7,64.7,102.7c10.8,14.9,21,28.9,28.5,40.9
		C392.4,304,399,349.7,387.4,390.1L387.4,390.1z"/>
</svg>
