<svg fill="currentColor" version="1.1" id="Слой_1" xmlns="http://www.w3.org/2000/svg" xmlns:xlink="http://www.w3.org/1999/xlink" x="0px" y="0px"
	 viewBox="0 0 18 18" style="enable-background:new 0 0 18 18;" xml:space="preserve">
<path d="M16.4,2H1.6C1.3,2,1.1,2.1,0.9,2.2L9,10.4l1.8-1.8l0,0l6.3-6.5C16.9,2.1,16.7,2,16.4,2z M17.8,2.9l-6,6.1l5.9,6.1
	c0.1-0.2,0.2-0.5,0.2-0.7V3.6C18,3.4,17.9,3.1,17.8,2.9L17.8,2.9z M0.2,2.9C0.1,3.1,0,3.4,0,3.6v10.8c0,0.2,0.1,0.5,0.2,0.7L6.1,9
	L0.2,2.9z M11.1,9.8l-1.8,1.8c-0.1,0.1-0.2,0.2-0.4,0.2c-0.1,0-0.3-0.1-0.4-0.2L6.9,9.8l-6,6.1C1.1,15.9,1.3,16,1.6,16h14.8
	c0.2,0,0.5-0.1,0.7-0.2L11.1,9.8z"/>
</svg>
