<?xml version="1.0" encoding="utf-8"?>
<!-- Generator: Adobe Illustrator 24.0.0, SVG Export Plug-In . SVG Version: 6.00 Build 0)  -->
<svg version="1.1" id="Layer_1" xmlns="http://www.w3.org/2000/svg" xmlns:xlink="http://www.w3.org/1999/xlink" x="0px" y="0px"
	 viewBox="0 0 469.8 469.8" style="enable-background:new 0 0 469.8 469.8;" xml:space="preserve">
<style type="text/css">
	.st0{fill:#4F4F4F;stroke:#4F4F4F;stroke-width:5;stroke-miterlimit:10;}
</style>
<g>
	<g>
		<path class="st0" d="M188.9,67.4c-41-41-121.4-45.8-178.2-45.8C4.8,21.6,0,26.4,0,32.2c0,56.9,4.7,137.2,45.8,178.2
			c17.3,17.3,43.9,25.1,70.2,25.1c28.6,0,57-9.2,72.9-25.1C219.5,179.9,225.1,103.5,188.9,67.4z M173.8,195.4
			c-22.8,22.8-86.2,26.7-112.9,0C27.8,162.3,22,94.9,21.4,43c52,0.6,119.3,6.4,152.4,39.5C200.5,109.2,196.6,172.6,173.8,195.4z"/>
	</g>
</g>
<g>
	<g>
		<path class="st0" d="M459.2,63.8c-56.9,0-137.2,4.7-178.2,45.8c-36.2,36.2-30.6,112.5,0,143.1c15.9,15.9,44.3,25.1,72.9,25.1
			c26.3,0,52.9-7.7,70.2-25c41-41,45.8-121.4,45.8-178.2C469.8,68.6,465,63.8,459.2,63.8z M408.9,237.6
			c-26.7,26.7-90.1,22.8-112.9,0s-26.7-86.2,0-112.9c33.1-33.1,100.4-38.9,152.4-39.5C447.8,137.1,442,204.4,408.9,237.6z"/>
	</g>
</g>
<g>
	<g>
		<path class="st0" d="M382.1,156.1c-2.5-5.4-9.7-7.2-15-4.7c-81.8,38.5-122,105.5-140.3,174.5c-22.6-146.6-87.9-191.3-115.6-210.3
			c-3.5-2.4-6.1-4.1-7.6-5.6c-4.2-4.2-10.9-4.2-15.1,0s-4.2,10.9,0,15.1c2.1,2.1,5.8,4.7,10.7,8.1c31.2,21.4,114.2,78.1,114.2,304.4
			c0,5.9,4.8,10.7,10.7,10.7s10.7-4.8,10.7-10.6c0-91.4,24.6-211.9,141.5-266.9c0,0,1.7-0.8,1.7-0.8
			C383.2,167.4,384.6,161.4,382.1,156.1z"/>
	</g>
</g>
</svg>
