<svg fill="currentColor" width="512" height="512" focusable="false" viewBox="0 0 512 512" aria-hidden="true" role="presentation"><path d="M463.9 377c-29.1-28.1-67-44-107.3-44.9v-46.8c19.6-23.4 30.4-52.8 30.4-83.7v-71.1C386.9 58.5 328.4 0 256.5 0S126.1 58.5 126.1 130.4v71.1c0 30.8 10.7 60.2 30.4 83.7V332c-40.3 1-78.3 16.9-107.3 44.9-7.1 6.8-8.1 17.8-2.5 25.9C94.6 471.2 173.1 512 256.5 512s161.9-40.8 209.9-109.1c5.6-8.1 4.6-19.1-2.5-25.9zM166.1 130.4c0-49.9 40.6-90.4 90.4-90.4 49.9 0 90.4 40.6 90.4 90.4v71.1c0 23.3-8.9 45.5-24.9 62.3-17.2 18.2-40.5 28.2-65.5 28.2s-48.3-10-65.5-28.1c-16.1-16.9-24.9-39-24.9-62.4v-71.1zM256.5 472c-64.3 0-125.1-28.7-166-77.6 20.3-14.5 44.5-22.4 69.9-22.4h16c11 0 20-9 20-20v-34.6c18.3 9.5 38.8 14.6 60.1 14.6 21.3 0 41.8-5 60.1-14.6V352c0 11 9 20 20 20h16c25.4 0 49.6 7.9 69.9 22.4-40.9 48.9-101.7 77.6-166 77.6z"></path></svg>
