<svg
  fill="currentColor"
  xmlns="http://www.w3.org/2000/svg"
  xmlns:xlink="http://www.w3.org/1999/xlink"
  viewbox="0 0 18 18">

<path fill-rule="evenodd"
 d="M13.887,14.500 C13.242,14.500 12.612,14.348 12.045,14.064 L12.045,10.293 L13.930,9.302 L13.439,8.368 L12.045,9.101 L12.045,7.560 L10.991,7.560 L10.991,11.015 L9.596,10.282 L9.106,11.215 L10.991,12.206 L10.991,14.064 C10.423,14.348 9.794,14.500 9.149,14.500 C8.422,14.500 7.708,14.308 7.083,13.944 C6.900,13.837 6.725,13.716 6.561,13.583 C7.139,13.288 7.662,12.885 8.100,12.391 C9.093,11.270 9.558,9.774 9.377,8.287 L8.870,4.136 C9.611,3.512 10.543,3.170 11.518,3.170 C12.562,3.170 13.557,3.562 14.320,4.273 C14.998,4.904 15.438,5.733 15.580,6.638 C17.041,7.298 18.000,8.765 18.000,10.387 C18.000,12.655 16.155,14.500 13.887,14.500 ZM4.707,13.068 L4.707,18.000 L3.653,18.000 L3.653,13.068 L3.653,13.068 C3.657,13.068 3.662,13.069 3.667,13.069 C3.836,13.090 4.007,13.102 4.180,13.102 C4.357,13.102 4.534,13.090 4.707,13.068 L4.707,10.524 L6.593,9.533 L6.102,8.599 L4.707,9.332 L4.707,6.653 L6.593,5.662 L6.102,4.729 L4.707,5.462 L4.707,3.921 L3.653,3.921 L3.653,7.397 L2.259,6.664 L1.768,7.597 L3.653,8.589 L3.653,13.068 C2.653,12.940 1.726,12.455 1.050,11.692 C0.257,10.796 -0.114,9.602 0.031,8.414 L0.680,3.099 C0.896,1.332 2.400,-0.000 4.180,-0.000 C5.960,-0.000 7.465,1.332 7.680,3.099 L8.330,8.414 C8.475,9.602 8.103,10.796 7.310,11.692 C6.635,12.455 5.707,12.941 4.707,13.068 ZM11.255,13.919 C11.344,13.866 11.432,13.809 11.518,13.749 C11.686,13.868 11.862,13.973 12.045,14.064 L12.045,18.000 L10.990,18.000 L10.990,14.064 C10.991,14.064 10.992,14.063 10.993,14.063 C11.082,14.018 11.169,13.970 11.255,13.919 Z"/>
</svg>
