<?xml version="1.0" encoding="utf-8"?>
<!-- Generator: Adobe Illustrator 24.0.0, SVG Export Plug-In . SVG Version: 6.00 Build 0)  -->
<svg version="1.1" id="Слой_1" xmlns="http://www.w3.org/2000/svg" xmlns:xlink="http://www.w3.org/1999/xlink" x="0px" y="0px"
	 viewBox="0 0 512 512" style="enable-background:new 0 0 512 512;" xml:space="preserve">
<style type="text/css">
	.st0{fill:#4F4F4F;}
</style>
<path class="st0" d="M512,298.6V207c0-51.3-41.7-93-93-93c-27,0-51.4,11.6-68.4,30c-3.7-3.6-7.5-7-11.6-10.2
	c3.7-9.9,5.7-20.5,5.7-31.2c0-48.9-39.8-88.7-88.7-88.7s-88.7,39.8-88.7,88.7c0,10.7,1.9,21.2,5.7,31.2
	c-15.2,11.8-27.4,26.6-36.2,43.2c-13.1-7-27.9-11-43.8-11c-51.3,0-93,41.7-93,93v39.5c0,46.2,33.8,84.6,78,91.8V468H0v30h512v-30
	h-78v-77.7C478.2,383.2,512,344.8,512,298.6z M419,144c34.7,0,63,28.2,63,63v91.6c0,29.6-20.5,54.4-48,61.2v-70.1h-30v70.1
	c-19.1-4.7-34.7-18-42.6-35.6c18.4-23.1,29.4-52.2,29.4-83.9c0-26.2-7.5-51.2-21-72.4C381.4,153.3,399.1,144,419,144z M199.8,151.6
	l12-7.6l-7-12.4c-5-8.8-7.6-18.7-7.6-28.8c0-32.4,26.3-58.7,58.7-58.7s58.7,26.3,58.7,58.7c0,10.1-2.6,20.1-7.6,28.8l-7,12.4l12,7.6
	c30.5,19.4,48.7,52.5,48.7,88.6c0,52.7-39.1,96.5-89.9,103.8v-40.2h14c25.4,0,46-20.6,46-46V235h-30v22.7c0,8.8-7.2,16-16,16h-14
	V175h-30v65h-16.3c-8.8,0-16-7.2-16-16v-22.7h-30V224c0,25.4,20.6,46,46,46H241V344c-50.7-7.3-89.9-51.1-89.9-103.8
	C151.1,204.1,169.3,171,199.8,151.6z M30,298.6v-39.5c0-34.7,28.2-63,63-63c12,0,23.2,3.4,32.7,9.2c-3,11.2-4.5,22.9-4.5,34.9
	c0,31.7,11,60.9,29.4,83.9c-7.8,17.6-23.5,31-42.5,35.7v-70.1H78v70.1C50.5,353,30,328.2,30,298.6z M108,390.4
	c27.5-4.5,51-21.1,64.8-44.1c19.2,15.1,42.7,25.1,68.2,28V468H108V390.4z M271,468v-93.8c25.6-2.8,49-12.8,68.2-28
	c13.8,23,37.3,39.6,64.8,44.1V468H271z"/>
</svg>
